<svg width="20" height="20" viewBox="0 0 20 20" fill="none" xmlns="http://www.w3.org/2000/svg">
<path d="M10 1.25C7.10938 1.25 4.75781 3.54297 4.75781 6.43359C4.75781 7.07422 4.89453 7.77344 5.14063 8.40234H5.13672L5.16016 8.44922C5.17969 8.49219 5.19922 8.53516 5.21875 8.57812L10 18.75L14.7578 8.62891L14.7812 8.58203C14.8008 8.53906 14.8242 8.49609 14.8438 8.44922L14.8594 8.40625C15.1133 7.77734 15.2422 7.11328 15.2422 6.44141C15.2422 3.54297 12.8906 1.25 10 1.25ZM14.2617 8.17969L14.2539 8.19922C14.2422 8.22266 14.2305 8.25 14.2188 8.27344L14.1797 8.35547L10 17.2383L5.81641 8.35547L5.78125 8.27734C5.76953 8.25391 5.75781 8.23047 5.75 8.20703C5.51953 7.64062 5.39453 7.01172 5.39453 6.43359C5.39453 3.89453 7.46094 1.88281 10.0039 1.88281C12.5469 1.88281 14.6133 3.89062 14.6133 6.43359C14.6094 7.02734 14.4922 7.61328 14.2617 8.17969Z" fill="#F60656"/>
<path d="M10 3.75C8.62109 3.75 7.5 4.87109 7.5 6.25C7.5 7.62891 8.62109 8.75 10 8.75C11.3789 8.75 12.5 7.62891 12.5 6.25C12.5 4.87109 11.3789 3.75 10 3.75ZM10 8.08203C8.98828 8.08203 8.16797 7.26172 8.16797 6.25C8.16797 5.23828 8.98828 4.41797 10 4.41797C11.0117 4.41797 11.832 5.23828 11.832 6.25C11.832 7.26172 11.0117 8.08203 10 8.08203Z" fill="#F60656"/>
</svg>
