<svg width="55" height="55" viewBox="0 0 55 55" fill="none" xmlns="http://www.w3.org/2000/svg">
<g clip-path="url(#clip0_2539_37186)">
<path d="M24.9856 55.0001C24.4368 54.9377 23.8816 54.9044 23.3452 54.7695C21.5442 54.3162 19.7475 53.8442 17.947 53.3888C15.3414 52.7292 12.7304 52.0932 10.0952 51.5604C9.26375 51.3926 8.43015 51.2276 7.58419 51.1684C7.11445 51.1357 6.63611 51.1722 6.16529 51.2136C5.08069 51.3088 3.99986 51.4448 2.92762 51.6367C2.54226 51.7055 2.16765 51.8351 1.78552 51.9249C1.51303 51.9889 1.23247 51.9937 0.961055 51.9276C0.346737 51.7787 0.00222406 51.3421 0.0016866 50.7056C-0.0010007 47.0003 7.4218e-05 43.2949 0.00114914 39.5896C0.00114914 39.2907 0.0355466 39.2461 0.306964 39.3612C1.18679 39.7343 2.03598 39.5655 2.92332 39.3509C4.66739 38.93 6.33136 38.2811 8.02114 37.7015C9.6002 37.1596 11.2255 36.887 12.8932 36.9504C14.9506 37.0284 16.9591 37.3908 18.8736 38.1735C20.0818 38.6676 21.1486 39.4117 22.215 40.1515C23.1921 40.8294 24.1546 41.5305 25.2242 42.0638C25.9976 42.4493 26.7984 42.7444 27.6659 42.8294C28.155 42.8772 28.6226 42.738 29.0966 42.6579C30.4198 42.4353 31.75 42.2729 33.0942 42.3192C34.196 42.3573 35.2871 42.4837 36.3061 42.9541C37.015 43.281 37.6041 43.7449 37.9626 44.4568C38.0485 44.6283 38.1577 44.6191 38.3146 44.575C40.4553 43.9724 42.6089 43.4208 44.7905 42.9847C46.2964 42.6842 47.8078 42.4251 49.3406 42.2971C50.4392 42.2057 51.5356 42.1477 52.624 42.3654C53.3635 42.5132 54.0563 42.7697 54.5276 43.4121C54.7405 43.7014 54.9211 44.0094 55.0006 44.3664V44.796C54.8765 45.4019 54.5147 45.8368 54.0176 46.1793C53.572 46.4857 53.0921 46.7282 52.5815 46.8943C51.1293 47.3674 49.6733 47.8293 48.2152 48.2819C44.0181 49.5846 39.8179 50.876 35.6219 52.1824C33.5839 52.8168 31.5184 53.3609 29.4943 54.0426C28.7499 54.2931 28.0555 54.6856 27.2757 54.8313C26.9086 54.9001 26.5367 54.9453 26.1669 55.0012H24.9856V55.0001ZM18.7301 47.3562C18.8214 47.3562 18.9133 47.3572 19.0047 47.3562C19.3535 47.3519 19.7039 47.3658 20.0506 47.3373C20.8525 47.2718 21.6565 47.2094 22.4595 47.2164C24.1976 47.232 25.9148 47.4529 27.603 47.8707C28.6236 48.1233 29.64 48.2405 30.6714 47.9416C31.7785 47.6212 32.9045 47.3771 34.0294 47.1282C34.8318 46.9508 35.6284 46.7476 36.3985 46.4529C36.5082 46.411 36.6248 46.3809 36.6178 46.225C36.5969 45.7707 36.5302 45.3336 36.1895 44.9901C35.8364 44.6347 35.3946 44.4439 34.9211 44.3288C33.2646 43.9272 31.6033 44.0799 29.9431 44.3041C29.2976 44.3912 28.6666 44.5869 28.012 44.5933C26.6512 44.6078 25.4171 44.1465 24.2315 43.531C23.0287 42.9062 21.9435 42.0982 20.8315 41.3315C19.8872 40.681 18.9327 40.0455 17.8454 39.6552C16.5797 39.2004 15.272 38.9214 13.9321 38.7918C12.6164 38.6649 11.3072 38.687 10.0119 38.9682C8.85528 39.2192 7.75295 39.645 6.65008 40.0628C5.24193 40.5966 3.78272 40.9466 2.32244 41.2939C1.81884 41.4138 1.86076 41.3122 1.86076 41.8692C1.86076 44.4562 1.86184 47.0427 1.86291 49.6298C1.86291 49.7104 1.86506 49.7911 1.86399 49.8712C1.86238 50.0195 1.94407 50.0679 2.07252 50.0255C2.5686 49.8609 3.08779 49.8276 3.59838 49.7475C4.73726 49.5679 5.88205 49.4368 7.03383 49.4013C8.31245 49.362 9.55506 49.6518 10.795 49.9061C14.6808 50.7029 18.5215 51.691 22.3563 52.7023C23.3506 52.9647 24.3401 53.2265 25.3817 53.2302C26.2497 53.2335 27.0919 53.1523 27.8889 52.7711C28.1942 52.6249 28.5199 52.52 28.8402 52.4077C30.2994 51.8953 31.7941 51.4969 33.2743 51.0512C39.2971 49.2362 45.2973 47.3476 51.3018 45.4723C51.8398 45.304 52.3724 45.1196 52.861 44.8309C52.9787 44.761 53.1566 44.7127 53.1394 44.5412C53.1222 44.3718 52.954 44.3089 52.8142 44.2525C52.4122 44.0906 51.9881 44.0288 51.5576 44.0084C49.6324 43.9175 47.7443 44.2154 45.8648 44.5718C43.0545 45.1046 40.2876 45.818 37.5482 46.639C36.8328 46.8535 36.1169 47.0551 35.4198 47.3395C33.9117 47.9545 32.3192 48.3147 30.7643 48.7905C29.8216 49.0787 28.8639 49.0862 27.9072 48.8346C25.3333 48.1572 22.7196 47.7508 20.0576 47.6513C19.6099 47.6346 19.1584 47.5658 18.729 47.3572L18.7301 47.3562Z" fill="#F60656"/>
<path d="M55 15.6843C54.8038 15.7198 54.6232 15.6364 54.4571 15.5676C53.7783 15.2859 53.1205 15.4122 52.4368 15.5676C50.4858 16.009 48.6316 16.7461 46.744 17.3805C45.3251 17.8574 43.8605 18.0859 42.368 18.0563C40.2714 18.0149 38.228 17.6466 36.2695 16.8794C35.0698 16.4095 34.0116 15.6854 32.9581 14.9574C31.8843 14.2155 30.8336 13.4354 29.6501 12.8666C28.9202 12.5161 28.1629 12.2516 27.353 12.1698C26.8655 12.1209 26.3963 12.2634 25.9217 12.344C24.5985 12.5682 23.2677 12.729 21.9235 12.6827C20.8309 12.6451 19.7484 12.5204 18.7359 12.058C18.0173 11.7301 17.4185 11.2639 17.0552 10.5435C16.9681 10.3704 16.8574 10.3844 16.7021 10.4279C14.4743 11.0537 12.2342 11.6279 9.96181 12.0704C8.55097 12.3451 7.13476 12.58 5.70028 12.7021C4.59257 12.7967 3.48701 12.8553 2.38952 12.6354C1.64997 12.487 0.959334 12.2279 0.486369 11.586C-0.240816 10.5989 -0.113438 9.67903 0.858292 8.93012C1.54355 8.40217 2.34222 8.11024 3.15486 7.85595C6.40435 6.8393 9.65492 5.82803 12.9055 4.81568C16.7274 3.62538 20.5568 2.45981 24.3964 1.3265C25.1854 1.09371 25.9604 0.818448 26.7188 0.498024C27.798 0.0421194 28.9245 -0.044438 30.0822 0.0179263C31.6983 0.105021 33.214 0.638344 34.7603 1.0292C38.0683 1.8652 41.3748 2.7039 44.7156 3.40066C45.624 3.59044 46.5371 3.7743 47.4648 3.83344C47.9173 3.86247 48.3774 3.82968 48.8304 3.78936C49.9328 3.69151 51.0319 3.55549 52.1219 3.36087C52.4986 3.29367 52.8636 3.16249 53.2371 3.07539C53.5091 3.01195 53.7896 3.00819 54.0616 3.07539C54.5437 3.19367 54.8592 3.49635 55.0005 3.97591V15.6848L55 15.6843ZM36.3167 7.59251C36.2017 7.67262 36.1012 7.64197 36.0072 7.64412C35.6498 7.65219 35.2897 7.63176 34.9344 7.66401C34.1502 7.73444 33.3645 7.78713 32.5792 7.78337C30.8406 7.77476 29.1228 7.55273 27.4347 7.13553C26.3866 6.87639 25.3482 6.75812 24.2905 7.07263C23.2199 7.39144 22.1267 7.61993 21.0373 7.86293C20.2176 8.04573 19.4034 8.25056 18.6149 8.54679C18.4585 8.60539 18.3897 8.6855 18.3962 8.86023C18.422 9.54301 18.7063 10.0559 19.3249 10.3785C19.9414 10.7 20.6084 10.8312 21.2856 10.8774C22.7722 10.979 24.2497 10.8656 25.7137 10.5882C26.3205 10.4731 26.9251 10.3537 27.5475 10.4199C28.7772 10.5505 29.9048 10.9838 30.9808 11.5725C32.1686 12.2225 33.2543 13.0295 34.3679 13.7929C35.3816 14.4875 36.4221 15.1354 37.6077 15.4988C38.7536 15.8499 39.9199 16.1074 41.1184 16.2122C42.146 16.302 43.1699 16.3063 44.1938 16.1735C45.3907 16.0182 46.5178 15.6144 47.6443 15.2069C49.4002 14.5725 51.1491 13.9128 53.0382 13.7816C53.2016 13.7703 53.2817 13.6865 53.265 13.5187C53.2624 13.4924 53.265 13.465 53.265 13.4381C53.265 10.7709 53.265 8.10325 53.265 5.4361C53.265 5.13503 53.006 4.87374 52.7668 4.97804C52.3288 5.16836 51.8639 5.18503 51.4087 5.25707C50.2789 5.43449 49.1427 5.56459 47.9995 5.60061C46.7204 5.64147 45.4783 5.35116 44.2378 5.09632C40.0725 4.23935 35.9572 3.17432 31.8488 2.0824C30.7035 1.77811 29.5458 1.69854 28.3698 1.84477C27.791 1.91681 27.2815 2.18616 26.7478 2.38723C25.1064 3.0055 23.4102 3.44743 21.7338 3.95333C15.7202 5.76835 9.72694 7.65111 3.73156 9.5258C3.18496 9.69677 2.6432 9.88279 2.14766 10.1763C2.03587 10.2425 1.87248 10.2919 1.87678 10.4451C1.88215 10.6204 2.05038 10.6844 2.18851 10.7424C2.59752 10.9129 3.03071 10.9731 3.47035 10.9946C5.05962 11.0709 6.62847 10.8769 8.18765 10.6064C11.2888 10.0688 14.3346 9.2957 17.3497 8.39948C18.1339 8.16669 18.9186 7.94358 19.6818 7.63068C21.0969 7.05005 22.5997 6.72855 24.0546 6.26404C24.7167 6.05275 25.3955 5.96136 26.0899 6.00061C26.7005 6.03501 27.2842 6.21297 27.8727 6.35759C30.187 6.92639 32.5341 7.25219 34.915 7.3495C35.38 7.36832 35.8475 7.4323 36.3167 7.59305V7.59251Z" fill="#F60656"/>
<path d="M27.5178 36.9703C22.2528 36.9117 18.0622 32.7854 18.0547 27.5108C18.0472 22.2754 22.1942 18.0578 27.4979 18.0459C32.7408 18.0341 36.9529 22.2012 36.9604 27.4909C36.968 32.7462 32.7956 36.9052 27.5178 36.9703ZM35.2223 27.4861C35.2556 23.3329 31.8594 19.9212 27.8021 19.7792C23.3508 19.6239 19.9175 23.198 19.7869 27.2205C19.6424 31.6693 23.2245 35.1101 27.2679 35.2262C31.7159 35.3542 35.2873 31.6903 35.2228 27.4861H35.2223Z" fill="#F60656"/>
<path d="M27.0354 25.7779C27.0257 25.9344 27.1208 26.0602 27.2466 26.1698C27.5067 26.3962 27.8142 26.5403 28.1248 26.6795C28.4672 26.8333 28.8112 26.9827 29.1304 27.1849C29.8205 27.6209 30.1709 28.2392 30.0957 29.0558C30.0183 29.8972 29.562 30.4778 28.7805 30.7993C28.5983 30.874 28.4129 30.9386 28.2156 30.9617C28.0415 30.9821 27.9469 31.0547 27.9496 31.2541C27.9528 31.4945 27.9152 31.7353 27.9034 31.9762C27.8969 32.1036 27.8615 32.1789 27.7142 32.1686C27.4734 32.1514 27.2326 32.1423 26.9913 32.1348C26.808 32.1289 26.7339 32.0471 26.7683 31.8606C26.8134 31.6127 26.8672 31.3278 26.7704 31.1197C26.6613 30.8853 26.3265 30.9751 26.0964 30.9031C25.7632 30.7988 25.4338 30.6907 25.1183 30.5386C24.9694 30.4665 24.9232 30.3762 24.9764 30.2203C25.078 29.9246 25.1768 29.6273 25.2677 29.3284C25.3171 29.1644 25.3977 29.1386 25.5434 29.2198C26.0336 29.4924 26.5587 29.6515 27.1182 29.7144C27.3853 29.7445 27.6384 29.716 27.8819 29.6284C28.4038 29.4402 28.4989 28.894 28.0802 28.5241C27.8566 28.3262 27.59 28.1988 27.317 28.0827C26.8145 27.8698 26.3109 27.6591 25.8954 27.2886C24.9398 26.437 25.0882 24.9285 26.1926 24.2774C26.4571 24.1215 26.7387 23.9989 27.0408 23.9575C27.2778 23.9253 27.3358 23.8027 27.3326 23.5962C27.3299 23.4177 27.338 23.2387 27.346 23.0597C27.3536 22.8855 27.4272 22.8059 27.6212 22.835C27.8233 22.8656 28.0308 22.8624 28.2361 22.8667C28.4279 22.871 28.5123 22.9522 28.4871 23.1516C28.4575 23.3801 28.3516 23.6419 28.4849 23.8317C28.6155 24.0177 28.9014 23.936 29.1127 24.0011C29.3604 24.0774 29.6077 24.1527 29.8458 24.258C30 24.3263 30.0694 24.407 29.9995 24.5881C29.8968 24.8543 29.8114 25.1285 29.7334 25.4037C29.6813 25.5881 29.6071 25.6241 29.4314 25.5311C28.8988 25.25 28.3285 25.1242 27.7244 25.157C27.302 25.1801 27.0322 25.4123 27.037 25.7795L27.0354 25.7779Z" fill="#F60656"/>
</g>
<defs>
<clipPath id="clip0_2539_37186">
<rect width="55" height="55" rx="8" fill="white"/>
</clipPath>
</defs>
</svg>
