<svg width="80" height="30" viewBox="0 0 80 30" fill="none" xmlns="http://www.w3.org/2000/svg">
<path fill-rule="evenodd" clip-rule="evenodd" d="M3.93861 30C1.77871 29.9961 0.00381958 28.2213 -3.05176e-05 26.0613V3.93865C0.00381958 1.77875 1.77871 0.0038501 3.93861 0H75.9392C78.0991 0.0038501 79.874 1.77875 79.8779 3.93865V26.0575C79.874 28.2174 78.0991 29.9923 75.9392 29.9961H3.93861V30Z" fill="#015A75"/>
<path fill-rule="evenodd" clip-rule="evenodd" d="M3.93979 0.616211C2.11869 0.620061 0.617157 2.11775 0.617157 3.93885V26.0577C0.621007 27.8788 2.11869 29.3803 3.93979 29.3803H27.0788V0.616211H3.93979ZM58.4147 20.6367L58.9076 19.9437C59.2618 20.3133 59.7546 20.5212 60.2666 20.5212C60.7672 20.5212 61.0097 20.2902 61.0097 20.0477C61.0097 19.7358 60.6132 19.6434 60.1434 19.5279C59.4427 19.3701 58.5495 19.1776 58.5495 18.2035C58.5495 17.4912 59.1655 16.9021 60.1704 16.9021C60.8519 16.9021 61.414 17.1062 61.8375 17.4989L61.3293 18.165C60.9866 17.8608 60.5438 17.6953 60.0857 17.6991C59.6968 17.6991 59.4774 17.8724 59.4774 18.1265C59.4774 18.4037 59.8701 18.4922 60.3282 18.6C61.029 18.7656 61.9299 18.9774 61.9299 19.9476C61.9299 20.7291 61.3716 21.3182 60.2204 21.3182C59.4004 21.3105 58.8075 21.041 58.4147 20.6367ZM54.5185 20.6367L55.0113 19.9437C55.3655 20.3133 55.8583 20.5212 56.3703 20.5212C56.8709 20.5212 57.1134 20.2902 57.1134 20.0477C57.1134 19.7358 56.7169 19.6434 56.251 19.5279C55.5503 19.3701 54.6571 19.1776 54.6571 18.2035C54.6571 17.4912 55.2731 16.9021 56.278 16.9021C56.9556 16.9021 57.5215 17.1062 57.945 17.4989L57.4407 18.165C57.098 17.8608 56.6553 17.6953 56.1971 17.6991C55.8082 17.6991 55.5888 17.8724 55.5888 18.1265C55.5888 18.4037 55.9815 18.4922 56.4397 18.6C57.1404 18.7656 58.0413 18.9774 58.0413 19.9476C58.0413 20.7291 57.483 21.3182 56.3319 21.3182C55.5079 21.3105 54.9189 21.041 54.5185 20.6367ZM40.3309 20.6367L40.8237 19.9437C41.1779 20.3133 41.6707 20.5212 42.1828 20.5212C42.6833 20.5212 42.9258 20.2902 42.9258 20.0477C42.9258 19.7358 42.5293 19.6434 42.0596 19.5279C41.3588 19.3701 40.4656 19.1776 40.4656 18.2035C40.4656 17.4912 41.0816 16.9021 42.0865 16.9021C42.768 16.9021 43.3301 17.1062 43.7536 17.4989L43.2454 18.165C42.9027 17.8608 42.46 17.6953 42.0018 17.6991C41.6129 17.6991 41.3935 17.8724 41.3935 18.1265C41.3935 18.4037 41.7823 18.4922 42.2444 18.6C42.9451 18.7656 43.846 18.9774 43.846 19.9476C43.846 20.7291 43.2877 21.3182 42.1366 21.3182C41.3203 21.3105 40.7313 21.041 40.3309 20.6367ZM35.8725 19.5356V16.9637H36.8042V19.501C36.8042 20.0977 37.1545 20.5058 37.8091 20.5058C38.4636 20.5058 38.8101 20.0939 38.8101 19.501V16.9637H39.7418V19.5279C39.7418 20.5905 39.1142 21.3144 37.8129 21.3144C36.5154 21.3182 35.8725 20.5867 35.8725 19.5356ZM49.2592 21.2412L47.2225 18.4537V21.2412H46.3139V16.9637H47.2456L49.2284 19.6434V16.9637H50.1371V21.2374H49.2592V21.2412ZM44.5121 21.2412V16.9637H45.4207V21.2374H44.5121V21.2412ZM51.0264 21.2412V16.9637H54.0564V17.7646H51.9389V18.6693H54.0103V19.4702H51.9389V20.4365H54.0526V21.2374L51.0264 21.2412ZM31.5835 21.2412V16.9637H33.8319C34.6481 16.9637 35.0639 17.4835 35.0639 18.0533C35.0639 18.5923 34.729 18.9504 34.3286 19.0351C34.7829 19.1044 35.1448 19.5472 35.1448 20.0823C35.1448 20.7214 34.7174 21.2374 33.9012 21.2374L31.5835 21.2412ZM34.2169 19.9591C34.2169 19.6896 34.0244 19.4586 33.6664 19.4586H32.4959V20.4519H33.6664C34.009 20.4519 34.2169 20.2633 34.2169 19.9591ZM34.1361 18.2112C34.1361 17.9532 33.9243 17.7453 33.6702 17.7453C33.6587 17.7453 33.6471 17.7453 33.6356 17.7453H32.4959V18.677H33.6356C33.9436 18.677 34.1361 18.4845 34.1361 18.215V18.2112ZM35.807 11.7623C35.807 10.4494 36.8003 9.54845 38.0824 9.54845C38.8293 9.5292 39.5223 9.93731 39.8689 10.5957L39.0873 10.9807C38.8948 10.6072 38.5098 10.3647 38.0863 10.357C37.3124 10.357 36.7464 10.9537 36.7464 11.7546C36.7464 12.5554 37.3085 13.1521 38.0863 13.1521C38.5098 13.1483 38.8986 12.9096 39.0911 12.5323L39.8689 12.9211C39.5608 13.4525 39.0218 13.9684 38.0824 13.9684C36.8042 13.9722 35.807 13.079 35.807 11.7623ZM40.2539 11.7623C40.2539 10.4494 41.2472 9.54845 42.5293 9.54845C43.2762 9.5292 43.9692 9.93731 44.3157 10.5957L43.5341 10.9807C43.3378 10.6034 42.9528 10.3647 42.5293 10.357C41.7554 10.357 41.1894 10.9537 41.1894 11.7546C41.1894 12.5554 41.7515 13.1521 42.5293 13.1521C42.9528 13.1483 43.3416 12.9096 43.5341 12.5323L44.3157 12.9096C44.0077 13.4409 43.4687 13.9568 42.5293 13.9568C41.251 13.9722 40.2539 13.079 40.2539 11.7623ZM47.3226 13.8991L46.4833 12.386H45.8172V13.8991H44.9086V9.62545H46.9068C47.7962 9.62545 48.3429 10.2068 48.3429 11.0038C48.3429 11.7584 47.8693 12.1704 47.4112 12.2743L48.3737 13.9068L47.3226 13.8991ZM34.5326 13.8991L34.2708 13.1752H32.4382L32.1687 13.8991H31.1291L32.7847 9.62545H33.9243L35.5722 13.8991H34.5326ZM66.858 13.8991V9.62545H68.5443C69.8842 9.62545 70.812 10.4763 70.812 11.7661C70.812 13.0559 69.8803 13.8991 68.5443 13.8991H66.858ZM63.0772 13.8991V9.62545H66.1072V10.4263H63.9858V11.331H66.0533V12.1319H63.9858V13.0982H66.0995V13.8991H63.0772ZM57.5023 13.8991V9.62545H58.4109V13.8991H57.5023ZM52.8552 13.8991V9.62545H54.5416C55.8814 9.62545 56.8093 10.4763 56.8093 11.7661C56.8093 13.0559 55.8775 13.8991 54.5416 13.8991H52.8552ZM49.0744 13.8991V9.62545H52.1044V10.4263H49.983V11.331H52.0544V12.1319H49.983V13.0982H52.0968V13.8991H49.0744ZM60.2897 13.8991V10.4263H59.0385V9.62545H62.4496V10.4263H61.2061V13.8991H60.2897ZM69.888 11.7661C69.888 11.0115 69.4222 10.4263 68.5482 10.4263H67.7743V13.0982H68.5482C69.3875 13.0982 69.8803 12.4899 69.8803 11.7661H69.888ZM55.8852 11.7661C55.8852 11.0115 55.4194 10.4263 54.5454 10.4263H53.7715V13.0982H54.5454C55.3847 13.0982 55.8775 12.4899 55.8775 11.7661H55.8852ZM33.3545 10.5341L32.6884 12.3744H34.0206L33.3545 10.5341ZM47.4112 10.9999C47.4112 10.6419 47.1378 10.4224 46.7721 10.4224H45.8172V11.5775H46.7721C47.1378 11.5775 47.4112 11.3618 47.4112 10.9999Z" fill="white"/>
<path fill-rule="evenodd" clip-rule="evenodd" d="M9.57122 24.7132C10.1795 24.9827 10.476 25.1598 10.5915 25.9144C10.7878 27.2312 9.57507 27.7317 8.43159 27.7317H5.75192V21.9873H8.45469C9.42491 21.9873 10.3104 22.4301 10.3104 23.512C10.3104 24.051 10.0294 24.4437 9.57122 24.7132ZM14.9382 24.7132C15.5466 24.9827 15.843 25.1598 15.9585 25.9144C16.1549 27.2312 14.9421 27.7317 13.7986 27.7317H11.119V21.9873H13.8217C14.7919 21.9873 15.6775 22.4301 15.6775 23.512C15.6775 24.051 15.3964 24.4437 14.9382 24.7132ZM21.3256 25.9183C21.21 25.1637 20.9097 24.9866 20.3053 24.7171C20.7634 24.4476 21.0483 24.0548 21.0483 23.512C21.0483 22.4301 20.1628 21.9873 19.1926 21.9873H16.4898V27.7355H19.1695C20.3091 27.7355 21.5258 27.235 21.3256 25.9183ZM22.0725 26.3572V26.3457C22.0725 25.618 22.6692 25.0212 23.3969 25.0212C24.1246 25.0212 24.7213 25.618 24.7213 26.3418V26.3534C24.7213 27.081 24.1246 27.6778 23.3969 27.6778C22.6731 27.6816 22.0763 27.0849 22.0725 26.3572ZM24.602 26.3534V26.3418C24.5981 25.6834 24.0553 25.1406 23.3969 25.1406C22.7347 25.1406 22.1918 25.6834 22.1918 26.3457V26.3572C22.1957 27.0156 22.7385 27.5584 23.3969 27.5584C24.0591 27.5584 24.602 27.0156 24.602 26.3534ZM22.8771 25.6334H23.4855C23.6318 25.6257 23.7781 25.6796 23.8897 25.7758C23.9629 25.8451 24.0014 25.9414 24.0014 26.0376V26.0453C24.0014 26.2648 23.8551 26.3957 23.651 26.4458L24.0707 26.9925H23.8204L23.4277 26.4804H23.0812V26.9925H22.881L22.8771 25.6334ZM8.54324 26.646H6.9724V25.3369H8.54324C9.69442 25.3369 9.62512 26.646 8.54324 26.646ZM13.9103 26.646H12.3433V25.3369H13.9103C15.0614 25.3369 14.9921 26.646 13.9103 26.646ZM17.7103 25.3369V26.646H19.2773C20.3592 26.646 20.4285 25.3369 19.2773 25.3369H17.7103ZM23.4662 26.2995C23.6549 26.2995 23.7896 26.2109 23.7896 26.0569V26.0492C23.7896 25.9067 23.6741 25.8143 23.4778 25.8143H23.0773V26.2995H23.4662ZM6.9724 23.0846H8.38154C9.25936 23.0846 9.29016 24.3089 8.43544 24.3089H6.9724V23.0846ZM17.7142 23.0846H19.1117C19.9896 23.0846 20.0204 24.3089 19.1656 24.3089H17.7065L17.7142 23.0846ZM12.3471 23.0846H13.7524C14.6302 23.0846 14.661 24.3089 13.8063 24.3089H12.3433L12.3471 23.0846ZM8.34689 19.4155H10.9611L11.427 21.0017H15.7006L16.1664 19.4155H18.7806L18.438 18.2489H8.68954L8.34689 19.4155ZM11.5117 10.0174L10.245 11.7653C9.60972 12.6393 9.80607 14.1909 10.6723 14.8146L13.0209 16.5086C13.4252 16.8012 13.456 17.09 13.2635 17.3942L13.6061 17.6483L14.7958 16.0004C15.5312 14.9801 15.4657 13.598 14.3761 12.801L12.0045 11.0723C11.7234 10.8644 11.6926 10.5756 11.8466 10.2561L11.5117 10.0174ZM13.5445 2.30176L11.5733 5.03148C10.6492 6.30972 10.9842 8.49272 12.247 9.42445L15.4888 11.8038C16.1472 12.2851 16.2319 13.5171 15.7545 14.1447L16.0278 14.3526L18.2647 11.207C19.2696 9.79406 19.2118 7.70345 17.6333 6.55997L14.1644 4.03815C13.6793 3.6878 13.4367 3.08718 13.841 2.51351L13.5445 2.30176Z" fill="#015A75"/>
</svg>
