<svg width="40" height="40" viewBox="0 0 40 40" fill="none" xmlns="http://www.w3.org/2000/svg">
<circle cx="20" cy="20" r="19.5" transform="matrix(-1 0 0 1 40 0)" fill="#232323" stroke="#232323"/>
<path d="M18.0186 17.6829C18.0499 17.7139 18.0747 17.7507 18.0916 17.7913C18.1085 17.832 18.1172 17.8755 18.1172 17.9195C18.1172 17.9635 18.1085 18.0071 18.0916 18.0477C18.0747 18.0883 18.0499 18.1252 18.0186 18.1562L16.4853 19.6895L24.3353 19.6895C24.4237 19.6895 24.5085 19.7247 24.571 19.7872C24.6335 19.8497 24.6686 19.9345 24.6686 20.0229C24.6686 20.1113 24.6335 20.1961 24.571 20.2586C24.5085 20.3211 24.4237 20.3562 24.3353 20.3562L16.4953 20.3562L18.0186 21.8795C18.0732 21.9433 18.1018 22.0253 18.0985 22.1092C18.0953 22.1931 18.0605 22.2727 18.0011 22.3321C17.9418 22.3914 17.8622 22.4262 17.7783 22.4294C17.6944 22.4327 17.6124 22.4041 17.5486 22.3495L15.4253 20.2295C15.3693 20.1733 15.3379 20.0972 15.3379 20.0179C15.3379 19.9385 15.3693 19.8624 15.4253 19.8062L17.5486 17.6829C17.6111 17.6208 17.6956 17.5859 17.7836 17.5859C17.8717 17.5859 17.9562 17.6208 18.0186 17.6829Z" fill="white"/>
</svg>
