<svg width="40" height="40" viewBox="0 0 40 40" fill="none" xmlns="http://www.w3.org/2000/svg">
<circle cx="20" cy="20" r="19.5" fill="#232323" stroke="#232323"/>
<path d="M21.9814 17.6829C21.9501 17.7139 21.9253 17.7507 21.9084 17.7913C21.8915 17.832 21.8828 17.8755 21.8828 17.9195C21.8828 17.9635 21.8915 18.0071 21.9084 18.0477C21.9253 18.0883 21.9501 18.1252 21.9814 18.1562L23.5147 19.6895L15.6647 19.6895C15.5763 19.6895 15.4915 19.7247 15.429 19.7872C15.3665 19.8497 15.3314 19.9345 15.3314 20.0229C15.3314 20.1113 15.3665 20.1961 15.429 20.2586C15.4915 20.3211 15.5763 20.3562 15.6647 20.3562L23.5047 20.3562L21.9814 21.8795C21.9268 21.9433 21.8982 22.0253 21.9015 22.1092C21.9047 22.1931 21.9395 22.2727 21.9989 22.3321C22.0582 22.3914 22.1378 22.4262 22.2217 22.4294C22.3056 22.4327 22.3876 22.4041 22.4514 22.3495L24.5747 20.2295C24.6307 20.1733 24.6621 20.0972 24.6621 20.0179C24.6621 19.9385 24.6307 19.8624 24.5747 19.8062L22.4514 17.6829C22.3889 17.6208 22.3044 17.5859 22.2164 17.5859C22.1283 17.5859 22.0438 17.6208 21.9814 17.6829Z" fill="white"/>
</svg>
