<svg width="20" height="20" viewBox="0 0 20 20" fill="none" xmlns="http://www.w3.org/2000/svg">
<path d="M14.0001 18C13.9334 18 10.4973 17.8999 6.22724 13.6966C1.99055 9.39318 1.92383 5.95712 1.92383 5.92376C1.92383 5.39 4.59261 1.9873 5.39325 1.9873C5.69348 2.02066 5.99372 2.18746 6.19388 2.45434C6.66092 3.08818 8.49571 5.82368 8.36227 6.49088C8.29555 6.85783 8.02867 7.05799 7.46155 7.55839C7.36147 7.62511 7.12795 7.82527 6.96116 7.99207L6.9278 8.05878L6.96116 8.15886C7.06123 8.4591 7.19467 8.7927 7.32811 9.09294C8.06203 10.6275 9.3297 11.8618 10.8643 12.6291C11.1645 12.7625 11.4647 12.896 11.7983 12.996L11.8984 13.0294L11.9651 12.9627C12.0986 12.7959 12.2987 12.5624 12.3988 12.4956C12.8658 11.9285 13.0994 11.6616 13.4663 11.5949C13.4663 11.5949 13.4997 11.5949 13.533 11.5949C14.4004 11.5949 17.1692 13.5298 17.5362 13.7633C17.8031 13.9635 17.9699 14.2637 18.0032 14.5639C17.9365 15.3312 14.5338 18 14.0001 18ZM5.29317 2.8213C4.29237 3.72201 3.42502 4.75617 2.6911 5.8904L2.65774 5.92376V5.99048C2.6911 6.55759 3.12478 9.49326 6.72764 13.1628C10.3972 16.7657 13.3329 17.1994 13.9 17.2327H14.0668V17.1326C15.1677 16.4321 16.1685 15.5647 17.0692 14.5973L17.1692 14.4639L17.0358 14.3638C17.0024 14.3304 16.9691 14.2971 16.9357 14.2637C15.9016 13.4964 14.7673 12.8292 13.5998 12.2955L13.4997 12.2621L13.433 12.3288C13.3329 12.3956 13.1661 12.6291 12.9326 12.896C12.699 13.1962 12.4322 13.4631 12.1653 13.6966C12.0986 13.7299 12.0318 13.7633 11.9651 13.7633C11.9318 13.7633 11.9318 13.7633 11.8984 13.7633C11.4314 13.6632 10.9643 13.4964 10.4973 13.2629C8.8293 12.4289 7.42819 11.0612 6.62756 9.39318C6.39404 8.9595 6.22724 8.4591 6.12716 7.99207C6.12716 7.89199 6.12716 7.79191 6.19388 7.72519C6.4274 7.45831 6.69428 7.19143 6.99452 6.99127C7.19467 6.82447 7.39483 6.65767 7.56163 6.49088L7.62835 6.42416L7.59499 6.29072C7.06123 5.12312 6.39404 3.98889 5.62676 2.95474C5.5934 2.88802 5.56004 2.85466 5.52668 2.85466L5.42661 2.75458L5.29317 2.8213Z" fill="#F60656"/>
<path d="M14.2989 9.82795C14.0987 9.82795 13.9319 9.66115 13.9319 9.46099C13.9319 7.55948 12.3974 6.02493 10.4959 6.02493C10.2957 6.02493 10.1289 5.85813 10.1289 5.65797C10.1289 5.45781 10.2957 5.29102 10.4959 5.29102C12.7977 5.29102 14.6992 7.15916 14.6992 9.49435C14.6658 9.66115 14.499 9.82795 14.2989 9.82795Z" fill="#F60656"/>
<path d="M17.0031 9.82712C16.803 9.82712 16.6362 9.66032 16.6362 9.46016C16.6362 6.05746 13.8673 3.2886 10.4646 3.2886C10.2645 3.2886 10.0977 3.1218 10.0977 2.92165C10.0977 2.72149 10.2645 2.55469 10.4646 2.55469C14.2676 2.55469 17.3701 5.65715 17.3701 9.46016C17.4034 9.66032 17.2367 9.82712 17.0031 9.82712Z" fill="#F60656"/>
</svg>
