<svg width="40" height="40" viewBox="0 0 40 40" fill="none" xmlns="http://www.w3.org/2000/svg">
<circle cx="20" cy="20" r="19.5" transform="matrix(-1 0 0 1 40 0)" fill="#232323" stroke="#232323"/>
<path d="M9.25797 24.13C8.78464 24.13 8.33964 24.0367 7.92297 23.85C7.5063 23.66 7.13964 23.4 6.82297 23.07C6.50964 22.7367 6.26297 22.35 6.08297 21.91C5.9063 21.47 5.81797 21 5.81797 20.5C5.81797 20 5.9063 19.53 6.08297 19.09C6.26297 18.65 6.50964 18.265 6.82297 17.935C7.13964 17.6017 7.5063 17.3417 7.92297 17.155C8.33964 16.965 8.78464 16.87 9.25797 16.87C9.82464 16.87 10.3463 17.0017 10.823 17.265C11.2996 17.5283 11.6946 17.8783 12.008 18.315L11.083 18.81C10.8663 18.5367 10.598 18.3183 10.278 18.155C9.95797 17.9917 9.61797 17.91 9.25797 17.91C8.92464 17.91 8.61297 17.9783 8.32297 18.115C8.03297 18.2517 7.77797 18.4383 7.55797 18.675C7.33797 18.9117 7.1663 19.1867 7.04297 19.5C6.91964 19.8133 6.85797 20.1467 6.85797 20.5C6.85797 20.8567 6.91964 21.1917 7.04297 21.505C7.1663 21.815 7.33797 22.09 7.55797 22.33C7.7813 22.5667 8.03797 22.7533 8.32797 22.89C8.61797 23.0233 8.92797 23.09 9.25797 23.09C9.62464 23.09 9.9663 23.0083 10.283 22.845C10.603 22.6783 10.8696 22.4583 11.083 22.185L12.008 22.69C11.6946 23.1267 11.2996 23.4767 10.823 23.74C10.3463 24 9.82464 24.13 9.25797 24.13ZM16.3072 19H17.3472V24H16.3022L16.2622 23.275C16.1155 23.5317 15.9172 23.7383 15.6672 23.895C15.4172 24.0517 15.1222 24.13 14.7822 24.13C14.4155 24.13 14.0705 24.0617 13.7472 23.925C13.4239 23.785 13.1389 23.5917 12.8922 23.345C12.6489 23.0983 12.4589 22.815 12.3222 22.495C12.1855 22.1717 12.1172 21.825 12.1172 21.455C12.1172 21.0983 12.1839 20.7633 12.3172 20.45C12.4505 20.1333 12.6355 19.8567 12.8722 19.62C13.1089 19.3833 13.3822 19.1983 13.6922 19.065C14.0055 18.9283 14.3405 18.86 14.6972 18.86C15.0605 18.86 15.3805 18.9433 15.6572 19.11C15.9372 19.2733 16.1689 19.4833 16.3522 19.74L16.3072 19ZM14.7572 23.125C15.0505 23.125 15.3072 23.0533 15.5272 22.91C15.7472 22.7633 15.9172 22.5667 16.0372 22.32C16.1605 22.0733 16.2222 21.8 16.2222 21.5C16.2222 21.1967 16.1605 20.9217 16.0372 20.675C15.9139 20.4283 15.7422 20.2333 15.5222 20.09C15.3055 19.9433 15.0505 19.87 14.7572 19.87C14.4672 19.87 14.2022 19.9433 13.9622 20.09C13.7222 20.2367 13.5322 20.4333 13.3922 20.68C13.2522 20.9267 13.1822 21.2 13.1822 21.5C13.1822 21.8033 13.2539 22.0783 13.3972 22.325C13.5439 22.5683 13.7355 22.7633 13.9722 22.91C14.2122 23.0533 14.4739 23.125 14.7572 23.125ZM22.5449 20.865V24H21.5049V21.12C21.5049 20.8967 21.4499 20.6933 21.3399 20.51C21.2333 20.3267 21.0883 20.1817 20.9049 20.075C20.7249 19.965 20.5216 19.91 20.2949 19.91C20.0749 19.91 19.8733 19.965 19.6899 20.075C19.5066 20.1817 19.3599 20.3267 19.2499 20.51C19.1399 20.6933 19.0849 20.8967 19.0849 21.12V24H18.0449V19H19.0849V19.53C19.2583 19.3233 19.4716 19.16 19.7249 19.04C19.9783 18.92 20.2516 18.86 20.5449 18.86C20.9149 18.86 21.2516 18.95 21.5549 19.13C21.8583 19.31 22.0983 19.5517 22.2749 19.855C22.4549 20.1583 22.5449 20.495 22.5449 20.865ZM26.4103 22.58L27.3403 23.085C27.1136 23.4017 26.8253 23.655 26.4753 23.845C26.1286 24.035 25.752 24.13 25.3453 24.13C24.8853 24.13 24.4653 24.0117 24.0853 23.775C23.7086 23.5383 23.407 23.2217 23.1803 22.825C22.957 22.425 22.8453 21.9833 22.8453 21.5C22.8453 21.1333 22.9103 20.7917 23.0403 20.475C23.1703 20.155 23.3486 19.875 23.5753 19.635C23.8053 19.3917 24.072 19.2017 24.3753 19.065C24.6786 18.9283 25.002 18.86 25.3453 18.86C25.752 18.86 26.1286 18.955 26.4753 19.145C26.8253 19.335 27.1136 19.59 27.3403 19.91L26.4103 20.415C26.2703 20.2483 26.107 20.1217 25.9203 20.035C25.7336 19.945 25.542 19.9 25.3453 19.9C25.072 19.9 24.8236 19.975 24.6003 20.125C24.3803 20.2717 24.2053 20.4667 24.0753 20.71C23.9486 20.95 23.8853 21.2133 23.8853 21.5C23.8853 21.7833 23.9503 22.0467 24.0803 22.29C24.2103 22.53 24.3853 22.7233 24.6053 22.87C24.8286 23.0167 25.0753 23.09 25.3453 23.09C25.552 23.09 25.7486 23.0433 25.9353 22.95C26.122 22.8567 26.2803 22.7333 26.4103 22.58ZM30.016 24.13C29.556 24.13 29.136 24.0117 28.756 23.775C28.3793 23.5383 28.0777 23.2217 27.851 22.825C27.6277 22.425 27.516 21.9833 27.516 21.5C27.516 21.1333 27.581 20.7917 27.711 20.475C27.841 20.155 28.0193 19.875 28.246 19.635C28.476 19.3917 28.7427 19.2017 29.046 19.065C29.3493 18.9283 29.6727 18.86 30.016 18.86C30.3993 18.86 30.751 18.94 31.071 19.1C31.391 19.2567 31.6643 19.475 31.891 19.755C32.1177 20.0317 32.2843 20.3517 32.391 20.715C32.4977 21.075 32.5293 21.4583 32.486 21.865H28.631C28.6743 22.095 28.7577 22.3033 28.881 22.49C29.0077 22.6733 29.1677 22.8183 29.361 22.925C29.5577 23.0317 29.776 23.0867 30.016 23.09C30.2693 23.09 30.4993 23.0267 30.706 22.9C30.916 22.7733 31.0877 22.5983 31.221 22.375L32.276 22.62C32.076 23.0633 31.7743 23.4267 31.371 23.71C30.9677 23.99 30.516 24.13 30.016 24.13ZM28.596 21.07H31.436C31.4027 20.83 31.3177 20.6133 31.181 20.42C31.0477 20.2233 30.8793 20.0683 30.676 19.955C30.476 19.8383 30.256 19.78 30.016 19.78C29.7793 19.78 29.5593 19.8367 29.356 19.95C29.156 20.0633 28.9893 20.2183 28.856 20.415C28.726 20.6083 28.6393 20.8267 28.596 21.07ZM32.9457 24V16.5H33.9857V24H32.9457Z" fill="white"/>
</svg>
