<svg width="33" height="33" viewBox="0 0 33 33" fill="none" xmlns="http://www.w3.org/2000/svg">
<path d="M16.5 2.0625C11.7305 2.0625 7.8504 5.8459 7.8504 10.6154C7.8504 11.6725 8.07599 12.8262 8.48204 13.8639H8.4756L8.51427 13.9412C8.5465 14.0121 8.57872 14.083 8.61095 14.1539L16.5 30.9375L24.3504 14.2377L24.3891 14.1604C24.4213 14.0895 24.46 14.0186 24.4922 13.9412L24.518 13.8703C24.9369 12.8326 25.1496 11.7369 25.1496 10.6283C25.1496 5.8459 21.2695 2.0625 16.5 2.0625ZM23.5318 13.4965L23.519 13.5287C23.4996 13.5674 23.4803 13.6125 23.4609 13.6512L23.3965 13.7865L16.5 28.4432L9.59708 13.7865L9.53907 13.6576C9.51974 13.6189 9.5004 13.5803 9.48751 13.5416C9.10724 12.607 8.90099 11.5693 8.90099 10.6154C8.90099 6.42598 12.3106 3.10664 16.5065 3.10664C20.7024 3.10664 24.1119 6.41953 24.1119 10.6154C24.1055 11.5951 23.9121 12.5619 23.5318 13.4965Z" fill="white"/>
<path d="M16.5 6.1875C14.2248 6.1875 12.375 8.0373 12.375 10.3125C12.375 12.5877 14.2248 14.4375 16.5 14.4375C18.7752 14.4375 20.625 12.5877 20.625 10.3125C20.625 8.0373 18.7752 6.1875 16.5 6.1875ZM16.5 13.3354C14.8307 13.3354 13.4771 11.9818 13.4771 10.3125C13.4771 8.64316 14.8307 7.28965 16.5 7.28965C18.1693 7.28965 19.5229 8.64316 19.5229 10.3125C19.5229 11.9818 18.1693 13.3354 16.5 13.3354Z" fill="white"/>
</svg>
