<svg width="27" height="27" viewBox="0 0 27 27" fill="none" xmlns="http://www.w3.org/2000/svg">
<path d="M19.9258 26.4209C19.8157 26.4209 14.1462 26.2558 7.10063 19.3203C0.110087 12.2197 0 6.55019 0 6.49515C0 5.61445 4.40349 0 5.72454 0C6.21993 0.0550436 6.71532 0.330262 7.04559 0.770611C7.8162 1.81644 10.8436 6.33002 10.6234 7.43089C10.5133 8.03637 10.073 8.36663 9.13725 9.19229C8.97697 9.29914 8.60928 9.6134 8.33615 9.88344C8.31983 9.89957 8.30636 9.91832 8.2961 9.93884C8.27077 9.98949 8.26661 10.0481 8.28451 10.1018L8.31159 10.1831C8.47672 10.6785 8.6969 11.2289 8.91707 11.7243C10.128 14.2563 12.2197 16.2929 14.7517 17.5589C15.2471 17.7791 15.7425 17.9993 16.2929 18.1644L16.3104 18.1702C16.4009 18.2004 16.5007 18.1768 16.5681 18.1094C17.0047 17.5637 17.4911 17.0479 17.9699 16.5389C18.3123 16.175 18.5926 15.9656 18.9376 15.8762C19.0085 15.8578 19.0819 15.8526 19.1552 15.8526C20.5863 15.8526 25.1549 19.0451 25.7604 19.4304C26.5966 20.0576 26.3921 21.2808 25.6869 22.0523C24.0612 23.8307 20.6013 26.4209 19.9258 26.4209ZM5.59423 1.35868C5.57112 1.37023 5.54966 1.38485 5.53049 1.40216C3.89529 2.87868 2.47667 4.57146 1.27462 6.42679C1.26889 6.43564 1.26225 6.44386 1.25479 6.45132C1.22673 6.47938 1.21096 6.51745 1.21096 6.55714V6.60524C1.266 7.54098 1.98157 12.3848 7.92628 18.4396C13.9811 24.3843 18.8249 25.0999 19.7607 25.1549H19.9293C19.9882 25.1549 20.0359 25.1072 20.0359 25.0483C20.0359 25.0119 20.0545 24.978 20.0852 24.9583C21.8822 23.808 23.5171 22.3883 24.9898 20.8065L25.0008 20.7919C25.0859 20.6784 25.0629 20.5173 24.9494 20.4321C24.9397 20.4249 24.9305 20.4169 24.9219 20.4083C24.8991 20.3856 24.8764 20.3628 24.8537 20.3401C24.7977 20.2842 24.7378 20.2323 24.6741 20.1854C22.9935 18.9491 21.1559 17.8728 19.2653 17.0085L19.2274 16.9959C19.1494 16.9699 19.0634 16.9902 19.0053 17.0483C18.9951 17.0584 18.984 17.0674 18.9726 17.0759C18.8058 17.2003 18.5364 17.5741 18.1644 17.9993C17.8553 18.3966 17.5108 18.7586 17.1594 19.0851C16.9885 19.2439 16.8014 19.4304 16.5681 19.4304C16.4949 19.4304 16.4219 19.4229 16.3506 19.4067C15.6158 19.2394 14.881 18.9721 14.1462 18.6048C11.394 17.2287 9.0822 14.9719 7.76115 12.2197C7.45064 11.643 7.21163 10.9949 7.04411 10.3616C6.96477 10.0617 6.82621 9.68689 7.04559 9.46751C7.43089 9.02716 7.87124 8.58681 8.36663 8.25655C8.6969 7.98133 9.02716 7.70611 9.30238 7.43089C9.37067 7.36259 9.39813 7.26347 9.3747 7.16977L9.36512 7.13145C9.36 7.11095 9.35301 7.09097 9.3442 7.07176C8.47162 5.16828 7.38424 3.3191 6.1352 1.63049C6.11834 1.6077 6.10384 1.58328 6.08982 1.55864C6.06667 1.51796 6.04353 1.48702 6.02038 1.46581C5.98015 1.42894 5.92304 1.40946 5.88445 1.37087C5.82182 1.30824 5.72615 1.29272 5.64694 1.33233L5.59423 1.35868Z" fill="white"/>
<path d="M20.4188 12.9371C20.0886 12.9371 19.8134 12.6619 19.8134 12.3316C19.8134 9.19414 17.2814 6.66213 14.1439 6.66213C13.8136 6.66213 13.5384 6.38691 13.5384 6.05665C13.5384 5.72639 13.8136 5.45117 14.1439 5.45117C17.6331 5.45117 20.5648 8.05272 21.0185 11.4633C21.0996 12.0735 21.0344 12.9371 20.4188 12.9371Z" fill="white"/>
<path d="M24.8809 12.9355C24.5506 12.9355 24.2754 12.6603 24.2754 12.3301C24.2754 6.71562 19.7067 2.147 14.0923 2.147C13.762 2.147 13.4868 1.87178 13.4868 1.54152C13.4868 1.21125 13.762 0.936035 14.0923 0.936035C20.0374 0.936035 24.9449 5.531 25.4445 11.3506C25.5002 12.0004 25.5331 12.9355 24.8809 12.9355Z" fill="white"/>
</svg>
