<svg width="33" height="34" viewBox="0 0 33 34" fill="none" xmlns="http://www.w3.org/2000/svg">
<path d="M28.3461 8.9707H4.65386C3.9092 8.9707 3.29999 9.57991 3.29999 10.3245V25.2168C3.29999 25.9614 3.9092 26.5707 4.65386 26.5707H28.3461C29.0907 26.5707 29.7 25.9615 29.7 25.2168V10.3245C29.6999 9.57991 29.0907 8.9707 28.3461 8.9707ZM27.838 9.98602L17.2788 17.9061C17.0889 18.0506 16.7975 18.141 16.4999 18.1396C16.2024 18.141 15.911 18.0506 15.7211 17.9061L5.16185 9.98602H27.838ZM22.1976 18.4287L27.9515 25.5364C27.9572 25.5435 27.9643 25.5489 27.9704 25.5554H5.02949C5.03558 25.5486 5.04269 25.5435 5.04847 25.5364L10.8023 18.4287C10.9786 18.2107 10.9452 17.8912 10.7268 17.7145C10.5089 17.5382 10.1893 17.5716 10.013 17.7896L4.31535 24.8279V10.6206L15.1122 18.7183C15.5181 19.0206 16.0118 19.1536 16.4999 19.1549C16.9872 19.1539 17.4814 19.0209 17.8875 18.7183L28.6844 10.6206V24.8278L22.9869 17.7896C22.8105 17.5717 22.4907 17.5382 22.273 17.7145C22.0547 17.8908 22.0212 18.2107 22.1976 18.4287Z" fill="white"/>
</svg>
