<svg width="64" height="64" viewBox="0 0 64 64" fill="none" xmlns="http://www.w3.org/2000/svg">
<g clip-path="url(#clip0_2539_37221)">
<path d="M23.3555 0.00031376H28.2587C30.0961 0.415152 30.9923 1.54096 30.9936 3.43709C30.9936 4.82418 30.9936 6.21128 30.9936 7.59773C30.9936 8.02139 31.2002 8.23322 31.6136 8.23322C40.849 8.23322 50.0845 8.23322 59.32 8.23386C59.9465 8.23386 59.8961 8.1816 59.8961 8.80548C59.8968 19.3739 59.8981 29.9429 59.8916 40.5113C59.8916 40.8029 59.9787 41.01 60.1819 41.219C61.7219 42.8035 62.82 44.6506 63.4548 46.7719C63.7516 47.7635 63.9071 48.7784 64.0006 49.8055V51.3539C63.9452 51.8003 63.9026 52.2487 63.8329 52.6926C63.4581 55.07 62.4955 57.1855 60.989 59.059C60.869 59.2081 60.7774 59.2339 60.6258 59.101C60.2548 58.7745 59.8794 58.4526 59.4916 58.1461C59.269 57.97 59.2884 57.839 59.4555 57.6229C61.5955 54.8571 62.3755 51.7377 61.6903 48.3145C60.4445 42.0913 54.2471 38.1068 48.091 39.5126C42.3794 40.8171 38.591 46.1952 39.3329 52.0281C39.7206 55.0752 41.1568 57.5848 43.5748 59.4797C46.2458 61.5732 49.2871 62.3126 52.6348 61.7255C54.5026 61.3984 56.1716 60.6158 57.651 59.4332C57.8413 59.281 57.9658 59.2668 58.1258 59.4668C58.4342 59.8526 58.7548 60.2293 59.0832 60.5984C59.2355 60.7693 59.211 60.8687 59.0361 61.0087C57.5123 62.2281 55.8129 63.09 53.9226 63.5816C53.0781 63.8016 52.2187 63.9087 51.3548 63.999H49.8065C49.3703 63.9455 48.9323 63.9074 48.4994 63.8358C44.7684 63.2229 41.8174 61.3487 39.6174 58.2893C39.3781 57.9564 39.1445 57.8203 38.7284 57.8203C26.9542 57.8326 15.1806 57.83 3.40645 57.8306C2.8529 57.8306 2.31161 57.7681 1.80516 57.5293C0.770968 57.041 0.202581 56.2029 0 55.0958C0 39.4829 0 23.87 0 8.25709C0.170968 8.2487 0.341936 8.23322 0.513548 8.23322C7.06581 8.23193 13.6181 8.23193 20.1703 8.23193C20.6187 8.23193 20.6194 8.23064 20.62 7.78225C20.62 6.27838 20.6187 4.77451 20.6213 3.27064C20.6219 2.81644 20.6839 2.37064 20.8594 1.9487C21.3239 0.831282 22.1858 0.217088 23.3548 -0.000976562L23.3555 0.00031376ZM40.8026 41.3635C40.6684 41.2855 40.5484 41.3171 40.4342 41.3171C38.1013 41.3145 35.7677 41.3158 33.4348 41.3145C33.011 41.3145 33.0097 41.3119 33.0084 40.8829C33.0071 40.4526 33.0258 40.0216 33.0026 39.5932C32.9852 39.2752 33.1084 39.1919 33.411 39.1958C34.529 39.21 35.6471 39.1945 36.7652 39.2061C37.0445 39.2087 37.1439 39.1164 37.1413 38.8332C37.1297 37.7261 37.129 36.6184 37.1413 35.5113C37.1445 35.2177 37.0529 35.1158 36.7529 35.1171C34.9574 35.1281 33.1619 35.1268 31.3665 35.1177C31.0903 35.1164 30.9839 35.2022 30.9877 35.4874C31.0006 36.3687 30.9877 37.2506 30.9955 38.1326C30.9974 38.3674 30.9445 38.5661 30.811 38.7648C29.2142 41.1487 27.6252 43.5377 26.0329 45.9242C25.8174 46.2468 25.7955 46.2468 25.5806 45.9248C23.9819 43.5293 22.3858 41.1313 20.7839 38.7377C20.6639 38.559 20.6155 38.3777 20.6174 38.1648C20.6239 37.2726 20.6116 36.3797 20.6245 35.4874C20.6284 35.2022 20.5226 35.1158 20.2465 35.1171C18.451 35.1255 16.6555 35.1268 14.86 35.1164C14.5606 35.1145 14.4677 35.2164 14.4716 35.51C14.4845 36.6068 14.4865 37.7035 14.471 38.7997C14.4665 39.1126 14.5697 39.2106 14.88 39.2061C15.9981 39.1913 17.1161 39.2074 18.2342 39.1958C18.5077 39.1932 18.6232 39.2687 18.6103 39.5597C18.5903 40.0106 18.5897 40.4635 18.6103 40.9139C18.6252 41.2203 18.5245 41.3255 18.211 41.321C17.0819 41.3048 15.9529 41.3171 14.8239 41.3132C14.6116 41.3126 14.4723 41.3513 14.4735 41.61C14.48 42.7713 14.4787 43.9326 14.4735 45.0939C14.4729 45.3177 14.5684 45.3971 14.7852 45.3964C16.6239 45.3926 18.4626 45.3919 20.3006 45.3971C20.5387 45.3977 20.6258 45.3029 20.6213 45.07C20.6123 44.5971 20.6271 44.1235 20.6161 43.6506C20.611 43.4184 20.6903 43.3203 20.9316 43.3274C21.3613 43.3397 21.7916 43.33 22.2219 43.33C22.5622 43.33 22.7327 43.4997 22.7335 43.839C22.7335 46.2906 22.7348 48.7422 22.7323 51.1932C22.7323 51.4177 22.7406 51.5926 23.0465 51.5913C24.8852 51.5835 26.7239 51.5848 28.5619 51.5906C28.8026 51.5913 28.8839 51.4913 28.88 51.261C28.871 50.7448 28.8774 50.2287 28.8774 49.7126C28.8774 47.7126 28.8826 45.7126 28.8723 43.7132C28.871 43.421 28.9594 43.3126 29.2568 43.3255C29.74 43.3455 30.2245 43.3371 30.7077 43.3293C30.9155 43.3261 30.9955 43.4106 30.9923 43.6158C30.9852 44.0674 30.9903 44.519 30.9923 44.9706C30.9936 45.3829 31.0026 45.3939 31.4039 45.3945C33.5432 45.3952 35.6832 45.39 37.8226 45.401C38.1052 45.4023 38.2471 45.3003 38.3555 45.05C38.7587 44.1184 39.2845 43.2571 39.9097 42.4577C40.1974 42.0893 40.5 41.7326 40.8013 41.3642L40.8026 41.3635ZM2.09032 36.8545C2.09032 42.7145 2.10258 48.5739 2.07677 54.4332C2.0729 55.3003 2.56516 55.7306 3.35871 55.7293C14.7877 55.7113 26.2168 55.7171 37.6458 55.7171C37.7316 55.7171 37.8181 55.7132 37.9039 55.7171C38.1084 55.7274 38.1413 55.6403 38.0774 55.459C37.931 55.0442 37.7871 54.6274 37.6632 54.2055C37.5161 53.7048 37.5252 53.7022 36.9942 53.7022C26.2103 53.7022 15.4265 53.7022 4.64194 53.7022C4.28452 53.7022 4.10559 53.5304 4.10516 53.1868C4.10516 42.4997 4.10516 31.8126 4.10516 21.1248C4.10516 20.7889 4.27699 20.6207 4.62065 20.6203C9.74903 20.6203 14.8781 20.6203 20.0065 20.6203C20.1032 20.6203 20.2006 20.6139 20.2968 20.621C20.5297 20.6384 20.6297 20.5403 20.6232 20.3016C20.6129 19.9042 20.6206 19.5061 20.6206 19.1081C20.6206 18.7734 20.4557 18.6059 20.1258 18.6055C14.2877 18.6055 8.44968 18.6055 2.61097 18.6055C2.26387 18.6055 2.09011 18.7749 2.08968 19.1139C2.08968 25.0274 2.08968 30.941 2.08968 36.8545H2.09032ZM44.3535 16.4913C48.6852 16.4913 53.0168 16.4913 57.3477 16.4913C57.7729 16.4913 57.7813 16.4822 57.7819 16.0577C57.7819 14.2952 57.7826 12.5326 57.7819 10.77C57.7819 10.3584 57.7723 10.3487 57.3684 10.3487C48.7161 10.3487 40.0639 10.3487 31.4116 10.3487C31.0019 10.3487 30.9942 10.3571 30.9942 10.7661C30.9936 12.5074 30.9942 14.2487 30.9942 15.9893C30.9942 16.324 31.1591 16.4913 31.489 16.4913C35.7774 16.4913 40.0658 16.4913 44.3542 16.4913H44.3535ZM11.3484 16.4913C14.3039 16.4913 17.2587 16.4874 20.2142 16.4964C20.5194 16.4971 20.629 16.4113 20.6271 16.0945C20.6148 14.3106 20.6148 12.5268 20.6271 10.7429C20.629 10.4242 20.5155 10.3422 20.2129 10.3422C14.3129 10.3493 8.41355 10.3474 2.51355 10.3481C2.10194 10.3481 2.09097 10.3584 2.09097 10.7603C2.09032 12.5229 2.09032 14.2848 2.09097 16.0474C2.09097 16.4893 2.09226 16.4906 2.5471 16.4906C5.48065 16.4906 8.41484 16.4906 11.3484 16.4906V16.4913ZM44.42 18.6061C43.8394 18.6061 43.2587 18.6061 42.6781 18.6061C38.9471 18.6061 35.2161 18.6061 31.4852 18.6061C31.1574 18.6061 30.9933 18.7745 30.9929 19.1113C30.9929 19.4448 30.9929 19.7777 30.9929 20.1113C30.9929 20.4506 31.1662 20.6205 31.5129 20.621C39.3832 20.621 47.2536 20.621 55.1239 20.621C55.2529 20.621 55.3819 20.6261 55.511 20.6222C55.6845 20.6171 55.771 20.6906 55.7652 20.8693C55.7607 20.9984 55.7671 21.1274 55.7671 21.2564C55.7671 26.7184 55.7671 32.1803 55.7671 37.6423C55.7671 37.75 55.7729 37.8577 55.7671 37.9648C55.7587 38.1268 55.8348 38.2268 55.9787 38.2893C56.5316 38.53 57.0606 38.8158 57.5723 39.1339C57.7265 39.23 57.7871 39.1861 57.7813 39.0132C57.7794 38.9487 57.7813 38.8842 57.7813 38.8197C57.7813 32.25 57.7813 25.681 57.7813 19.1113C57.7813 18.7745 57.6067 18.6059 57.2574 18.6055C52.9781 18.6055 48.6987 18.6055 44.4194 18.6055L44.42 18.6061ZM22.7355 24.7758C22.7355 27.6455 22.7355 30.5145 22.7355 33.3842C22.7355 34.5126 22.7426 35.641 22.731 36.7693C22.7284 37.0526 22.8284 37.1532 23.1071 37.141C23.4826 37.1242 23.8594 37.1371 24.2355 37.1371C24.5783 37.1371 24.7497 36.9655 24.7497 36.6222C24.7497 28.7235 24.7497 20.8242 24.7497 12.9255C24.7497 12.85 24.7458 12.7752 24.7497 12.6997C24.76 12.4932 24.6619 12.4093 24.4587 12.4119C24.0394 12.4171 23.6206 12.4126 23.2013 12.4132C22.8912 12.4132 22.7359 12.5687 22.7355 12.8797C22.7355 16.8455 22.7355 20.8106 22.7355 24.7764V24.7758ZM26.8645 24.7752C26.8645 27.5803 26.8645 30.3848 26.8645 33.19C26.8645 34.3829 26.871 35.5758 26.86 36.7687C26.8574 37.0513 26.9561 37.1532 27.2355 37.141C27.611 37.1242 27.9877 37.1371 28.3639 37.1371C28.7071 37.1371 28.8787 36.9657 28.8787 36.6229C28.8787 28.7242 28.8787 20.8248 28.8787 12.9261C28.8787 12.8506 28.8748 12.7758 28.8787 12.7003C28.8897 12.4945 28.7923 12.4093 28.5884 12.4119C28.169 12.4171 27.7503 12.4126 27.331 12.4132C27.0204 12.4132 26.865 12.5685 26.8645 12.879C26.8645 16.8448 26.8645 20.81 26.8645 24.7758V24.7752ZM34.2742 47.5093C33.2961 47.5093 32.3181 47.5119 31.3394 47.5074C31.1258 47.5061 30.9897 47.5487 30.991 47.8055C30.9974 48.9661 30.9961 50.1274 30.991 51.2881C30.9903 51.5119 31.0871 51.59 31.3032 51.59C33.1736 51.5861 35.0439 51.5868 36.9142 51.5893C37.1181 51.5893 37.2194 51.5113 37.1942 51.3003C37.0555 50.1332 37.2252 48.9881 37.4516 47.8481C37.5006 47.6029 37.4594 47.499 37.1755 47.5035C36.2084 47.519 35.2406 47.5093 34.2729 47.5093H34.2742ZM17.5413 26.8139C18.4542 26.8139 19.3665 26.8087 20.2794 26.8171C20.5258 26.8197 20.6258 26.7358 20.6239 26.481C20.6155 25.3429 20.6155 24.2048 20.6239 23.0668C20.6258 22.8113 20.5232 22.7313 20.2781 22.7319C18.4632 22.7377 16.649 22.7384 14.8342 22.7319C14.5735 22.7306 14.4703 22.8145 14.4729 23.0842C14.4826 24.2113 14.4832 25.339 14.4729 26.4661C14.4703 26.7371 14.5755 26.821 14.8355 26.8177C15.7374 26.8074 16.6394 26.8139 17.5413 26.8139ZM34.0316 26.8139C34.9445 26.8139 35.8568 26.8061 36.7697 26.8184C37.0523 26.8222 37.1445 26.7216 37.1419 26.4429C37.131 25.3261 37.1323 24.2093 37.1413 23.0926C37.1432 22.8326 37.06 22.7293 36.789 22.7306C34.9742 22.7384 33.16 22.7384 31.3452 22.7306C31.0781 22.7293 30.9877 22.8255 30.9897 23.0893C30.9994 24.2061 31.0019 25.3229 30.9884 26.439C30.9845 26.7474 31.1065 26.8222 31.3903 26.8184C32.2703 26.8048 33.151 26.8132 34.0316 26.8132V26.8139ZM42.3058 26.8139C43.2187 26.8139 44.131 26.8074 45.0439 26.8177C45.311 26.821 45.4013 26.7222 45.3994 26.459C45.3897 25.3422 45.389 24.2255 45.3994 23.1087C45.4019 22.8339 45.3161 22.7287 45.0303 22.73C43.2265 22.739 41.4226 22.739 39.6187 22.73C39.3368 22.7287 39.2439 22.8268 39.2465 23.1055C39.2574 24.2113 39.2587 25.3177 39.2465 26.4235C39.2432 26.7145 39.3303 26.8242 39.6323 26.819C40.5232 26.8035 41.4148 26.8132 42.3058 26.8132V26.8139ZM9.29807 22.7352C8.38516 22.7352 7.4729 22.7403 6.56 22.7319C6.3129 22.7293 6.21419 22.8145 6.21613 23.0687C6.22452 24.2068 6.22452 25.3448 6.21613 26.4829C6.21419 26.739 6.31807 26.8177 6.56258 26.8171C8.37742 26.8113 10.1916 26.8106 12.0065 26.8177C12.2677 26.819 12.3697 26.7339 12.3671 26.4642C12.3574 25.3371 12.3568 24.2093 12.3671 23.0822C12.3697 22.8106 12.2632 22.7281 12.0039 22.7313C11.1019 22.7416 10.2 22.7352 9.29807 22.7352ZM9.29871 28.9287C8.38581 28.9287 7.47355 28.9339 6.56065 28.9255C6.31484 28.9229 6.21355 29.0061 6.21548 29.261C6.22387 30.399 6.22387 31.5371 6.21548 32.6752C6.21355 32.93 6.31484 33.0113 6.56065 33.0106C8.37548 33.0048 10.1897 33.0042 12.0045 33.0106C12.2652 33.0119 12.3684 32.9287 12.3665 32.6584C12.3568 31.5313 12.3568 30.4035 12.3665 29.2764C12.369 29.0061 12.2645 28.9216 12.0045 28.9242C11.1026 28.9345 10.2006 28.9281 9.29871 28.9281V28.9287ZM17.5581 28.9287C16.6561 28.9287 15.7542 28.9358 14.8523 28.9242C14.5781 28.9203 14.4697 29.0048 14.4723 29.2919C14.4839 30.4087 14.4839 31.5255 14.4723 32.6416C14.469 32.9261 14.5735 33.0126 14.8497 33.0113C16.6426 33.0029 18.4361 33.0022 20.229 33.0113C20.5187 33.0126 20.6297 32.9293 20.6258 32.6268C20.6116 31.521 20.6123 30.4145 20.6258 29.3087C20.6297 29.0087 20.5232 28.9171 20.2316 28.9216C19.3406 28.9358 18.449 28.9268 17.5581 28.9268V28.9287ZM34.0871 28.9287C33.1742 28.9287 32.2619 28.9352 31.349 28.9248C31.0865 28.9216 30.9871 29.0113 30.989 29.279C30.9987 30.4061 30.9994 31.5339 30.989 32.661C30.9865 32.9339 31.0948 33.0119 31.3529 33.0106C33.1568 33.0035 34.9607 33.0029 36.7645 33.0113C37.0419 33.0126 37.1439 32.9235 37.1406 32.6403C37.129 31.5235 37.129 30.4068 37.1406 29.2906C37.1439 29.0022 37.0323 28.9203 36.76 28.9242C35.869 28.9358 34.9774 28.9287 34.0865 28.9287H34.0871ZM42.3232 33.0074C43.2252 33.0074 44.1271 32.999 45.029 33.0119C45.3136 33.0158 45.4019 32.9113 45.3994 32.6345C45.3884 31.5177 45.3897 30.401 45.3994 29.2842C45.4013 29.0222 45.3142 28.9229 45.0458 28.9235C43.231 28.9313 41.4168 28.9313 39.6019 28.9235C39.3329 28.9222 39.2458 29.0222 39.2484 29.2842C39.2581 30.401 39.2587 31.5177 39.2484 32.6345C39.2458 32.9113 39.3348 33.0158 39.6187 33.0119C40.5206 32.999 41.4226 33.0074 42.3245 33.0074H42.3232ZM50.571 33.0074C51.4729 33.0074 52.3748 33.0003 53.2768 33.0119C53.5497 33.0152 53.6607 32.9332 53.6581 32.6455C53.6458 31.5287 53.6465 30.4119 53.6581 29.2958C53.6613 29.0126 53.5594 28.9235 53.2819 28.9248C51.4781 28.9339 49.6742 28.9339 47.8703 28.9248C47.58 28.9235 47.5039 29.0377 47.5058 29.3081C47.5161 30.4139 47.5181 31.5203 47.5045 32.6261C47.5006 32.9255 47.6045 33.019 47.8981 33.0139C48.789 32.999 49.6806 33.0087 50.5716 33.0087L50.571 33.0074ZM9.32387 35.1222C8.41097 35.1222 7.49871 35.13 6.58581 35.1177C6.30194 35.1139 6.21226 35.2171 6.21484 35.4945C6.22581 36.6113 6.22452 37.7281 6.21548 38.8448C6.21355 39.1061 6.29936 39.2068 6.56839 39.2055C8.38323 39.1977 10.1974 39.1977 12.0123 39.2055C12.2806 39.2068 12.3684 39.1081 12.3665 38.8455C12.3568 37.7287 12.3561 36.6119 12.3665 35.4952C12.369 35.219 12.2813 35.1132 11.9968 35.1171C11.1058 35.13 10.2142 35.1216 9.32323 35.1216L9.32387 35.1222ZM9.27355 45.3945C10.1865 45.3945 11.0987 45.3881 12.0116 45.3984C12.2787 45.4016 12.369 45.3029 12.3671 45.0397C12.3574 43.9229 12.3568 42.8061 12.3671 41.6893C12.3697 41.4145 12.2839 41.3093 11.9981 41.3106C10.1942 41.3197 8.39032 41.3197 6.58645 41.3106C6.30452 41.3093 6.21161 41.4074 6.21419 41.6861C6.22516 42.7919 6.22645 43.8984 6.21419 45.0042C6.21097 45.2952 6.29807 45.4048 6.6 45.3997C7.49097 45.3842 8.38258 45.3939 9.27355 45.3939V45.3945ZM9.28903 51.5881C10.191 51.5881 11.0929 51.5803 11.9948 51.5926C12.2774 51.5964 12.3697 51.4958 12.3671 51.2171C12.3561 50.1003 12.3574 48.9835 12.3665 47.8674C12.3684 47.6074 12.2852 47.5042 12.0142 47.5055C10.1994 47.5132 8.38516 47.5132 6.57032 47.5055C6.30323 47.5042 6.2129 47.6003 6.21484 47.8642C6.22452 48.981 6.2271 50.0977 6.21355 51.2139C6.20968 51.5222 6.33161 51.5971 6.61548 51.5932C7.50645 51.5797 8.39806 51.5881 9.28903 51.5881ZM17.5561 47.5093C16.6432 47.5093 15.731 47.5145 14.8181 47.5061C14.5716 47.5035 14.4716 47.5881 14.4735 47.8422C14.4819 48.9803 14.4819 50.1184 14.4735 51.2564C14.4716 51.5119 14.5742 51.5919 14.8194 51.5913C16.6342 51.5855 18.4484 51.5848 20.2632 51.5913C20.5245 51.5926 20.6271 51.5081 20.6245 51.2384C20.6148 50.1113 20.6142 48.9835 20.6245 47.8564C20.6271 47.5855 20.5219 47.5023 20.2619 47.5048C19.36 47.5152 18.4581 47.5087 17.5561 47.5087V47.5093ZM50.5671 26.8139C51.469 26.8139 52.371 26.8042 53.2729 26.8197C53.5748 26.8248 53.6619 26.7145 53.6581 26.4235C53.6452 25.3177 53.6465 24.2119 53.6581 23.1055C53.6607 22.8268 53.5677 22.7287 53.2858 22.73C51.4819 22.739 49.6781 22.739 47.8742 22.73C47.5884 22.7287 47.5032 22.8339 47.5058 23.1087C47.5168 24.2145 47.5181 25.321 47.5052 26.4268C47.5019 26.721 47.5961 26.8242 47.8942 26.819C48.7852 26.8042 49.6768 26.8139 50.5677 26.8139H50.5671ZM25.7981 6.1687C26.7006 6.1687 27.6039 6.16096 28.5065 6.17322C28.7839 6.17709 28.8877 6.08612 28.8839 5.80225C28.871 4.91064 28.8819 4.01838 28.8781 3.12612C28.8755 2.5087 28.4632 2.09322 27.8484 2.09128C26.4832 2.08806 25.1181 2.08741 23.7536 2.09128C23.1581 2.09322 22.7406 2.51128 22.7374 3.10741C22.7329 3.99967 22.7458 4.89193 22.7303 5.78354C22.7252 6.08096 22.8265 6.17902 23.1219 6.17386C24.0136 6.15902 24.9058 6.1687 25.7981 6.1687ZM42.3219 35.1222C41.42 35.1222 40.5181 35.1306 39.6161 35.1177C39.331 35.1139 39.2439 35.2203 39.2465 35.4958C39.2574 36.6016 39.2587 37.7074 39.2458 38.8132C39.2426 39.1068 39.3348 39.2106 39.6336 39.2068C40.6536 39.1926 41.6742 39.1835 42.6936 39.2087C43.2032 39.2216 43.6587 39.1481 44.0897 38.8513C44.3961 38.6403 44.7477 38.4906 45.0903 38.3384C45.3032 38.2435 45.4032 38.1222 45.3987 37.8777C45.3858 37.0835 45.3852 36.2887 45.3987 35.4945C45.4032 35.2164 45.3097 35.1145 45.0271 35.1184C44.1252 35.1313 43.2232 35.1229 42.3213 35.1229L42.3219 35.1222ZM50.5942 35.1222C49.7032 35.1222 48.8123 35.1216 47.9213 35.1222C47.52 35.1222 47.5103 35.1332 47.5097 35.5448C47.5084 36.0603 47.509 36.5752 47.5097 37.0906C47.5097 37.5126 47.5155 37.5152 47.9194 37.4306C48.7819 37.2506 49.6555 37.1461 50.5355 37.1435C51.4587 37.1403 52.3761 37.2403 53.2781 37.4442C53.5458 37.5048 53.6736 37.4726 53.6594 37.1506C53.6361 36.6042 53.64 36.0558 53.6581 35.5087C53.6677 35.2126 53.5632 35.1126 53.2671 35.1171C52.3761 35.1319 51.4852 35.1222 50.5942 35.1222ZM25.8394 8.28354C24.9271 8.28354 24.0148 8.29128 23.1026 8.27902C22.82 8.27515 22.7206 8.3758 22.731 8.65451C22.7471 9.09386 22.7426 9.53451 22.7329 9.97451C22.7277 10.2074 22.8161 10.301 23.0536 10.3003C24.889 10.2952 26.7245 10.2952 28.56 10.3003C28.7968 10.301 28.8865 10.2087 28.8813 9.97515C28.8716 9.53515 28.8665 9.09451 28.8832 8.65515C28.8936 8.37709 28.7955 8.27451 28.5123 8.27902C27.6213 8.29193 26.7303 8.28354 25.8394 8.28354ZM25.8077 39.2513C25.1845 39.2513 24.5613 39.2551 23.9381 39.2493C23.7187 39.2474 23.6613 39.2939 23.7994 39.499C24.4239 40.4248 25.0406 41.3558 25.6561 42.2874C25.7665 42.4539 25.8452 42.4564 25.9561 42.2887C26.5716 41.3564 27.189 40.4261 27.8136 39.5003C27.9484 39.3003 27.9006 39.2474 27.6768 39.2493C27.0536 39.2551 26.4303 39.2513 25.8071 39.2513H25.8077Z" fill="#F60656"/>
<path d="M51.6377 42.3989C51.6377 42.657 51.65 42.9157 51.6339 43.1731C51.6197 43.4054 51.7158 43.5125 51.9326 43.5938C53.3803 44.1351 54.3216 45.1512 54.6235 46.6731C54.8171 47.6473 54.8461 47.4951 53.97 47.5073C53.6261 47.5125 53.2816 47.5015 52.9377 47.5099C52.7358 47.5144 52.6397 47.4641 52.61 47.2305C52.4855 46.2576 51.6771 45.4867 50.7739 45.4454C49.6758 45.3944 48.8274 46.0112 48.5797 47.0396C48.2822 48.2757 49.241 49.5009 50.5229 49.5234C52.5235 49.5589 54.1745 50.8583 54.6061 52.7376C55.0758 54.7822 53.9764 56.8183 51.9893 57.5467C51.7184 57.646 51.6203 57.7738 51.6313 58.0557C51.6506 58.5602 51.6293 59.066 51.639 59.5712C51.6435 59.7996 51.5726 59.9047 51.3274 59.8983C50.8332 59.886 50.3377 59.8841 49.8435 59.8996C49.5777 59.908 49.5145 59.7893 49.519 59.5518C49.5293 59.0254 49.5132 58.4983 49.5255 57.9712C49.5306 57.7525 49.4448 57.6473 49.2429 57.5705C47.6068 56.9493 46.6732 55.7718 46.4519 54.0286C46.4158 53.746 46.4906 53.637 46.7848 53.648C47.2571 53.6654 47.7313 53.6589 48.2042 53.6499C48.4203 53.6454 48.5184 53.697 48.5506 53.9454C48.6919 55.0338 49.581 55.7447 50.7235 55.7163C51.639 55.6938 52.5197 54.8699 52.6145 53.9473C52.7281 52.8389 52.0481 51.8751 50.9706 51.6699C50.541 51.588 50.0945 51.6164 49.6622 51.517C47.8519 51.0996 46.5545 49.606 46.4442 47.6757C46.3455 45.9486 47.3461 44.3241 49.0674 43.6647C49.4429 43.5209 49.5526 43.3338 49.5287 42.9609C49.4997 42.5112 49.5306 42.0576 49.519 41.6067C49.5126 41.3654 49.5848 41.2538 49.8468 41.2622C50.341 41.2776 50.8358 41.2725 51.3306 41.2641C51.5468 41.2602 51.6474 41.3338 51.6377 41.5615C51.6261 41.8409 51.6351 42.1202 51.6351 42.4002H51.6364L51.6377 42.3989Z" fill="#F60656"/>
<path d="M13.4252 12.3644C13.6827 12.3644 13.9407 12.3683 14.1981 12.3625C14.3807 12.3586 14.4781 12.4205 14.4762 12.6199C14.4704 13.1567 14.4717 13.6934 14.4749 14.2302C14.4762 14.4109 14.3898 14.4767 14.2188 14.4754C13.682 14.4722 13.1452 14.4715 12.6085 14.4754C12.4278 14.4767 12.362 14.3902 12.3633 14.2192C12.3665 13.6825 12.3672 13.1457 12.3633 12.6089C12.362 12.4283 12.4485 12.3612 12.6194 12.3638C12.8878 12.3683 13.1562 12.3651 13.4246 12.3644H13.4252Z" fill="#F60656"/>
<path d="M10.3454 13.393C10.3454 13.6614 10.3415 13.9298 10.3473 14.1981C10.3512 14.3807 10.2892 14.4781 10.0899 14.4762C9.5531 14.4704 9.01633 14.4717 8.47956 14.4749C8.29891 14.4762 8.2331 14.3898 8.23439 14.2188C8.23762 13.682 8.23826 13.1452 8.23439 12.6085C8.2331 12.4278 8.31955 12.362 8.49052 12.3633C9.0273 12.3665 9.56407 12.3672 10.1008 12.3633C10.2815 12.362 10.3486 12.4485 10.346 12.6194C10.3415 12.8768 10.3447 13.1349 10.3454 13.3923V13.393Z" fill="#F60656"/>
<path d="M6.21581 13.4517C6.21581 13.7091 6.21258 13.9672 6.2171 14.2246C6.22032 14.4007 6.14226 14.4768 5.96678 14.4756C5.43 14.4717 4.89323 14.4717 4.35645 14.4756C4.18097 14.4768 4.10419 14.4007 4.10548 14.2246C4.10936 13.6878 4.10936 13.151 4.10548 12.6143C4.10419 12.4381 4.18032 12.362 4.35645 12.3633C4.89323 12.3672 5.43 12.3672 5.96678 12.3633C6.14226 12.362 6.22032 12.4381 6.21774 12.6143C6.21323 12.8936 6.21645 13.1723 6.21645 13.4517H6.21581Z" fill="#F60656"/>
</g>
<defs>
<clipPath id="clip0_2539_37221">
<rect width="64" height="64" rx="8" fill="white"/>
</clipPath>
</defs>
</svg>
