<svg width="20" height="20" viewBox="0 0 20 20" fill="none" xmlns="http://www.w3.org/2000/svg">
<path d="M17.1794 5H2.82053C2.36922 5 2 5.36922 2 5.8205V14.8461C2 15.2974 2.36922 15.6667 2.82053 15.6667H17.1795C17.6307 15.6667 18 15.2975 18 14.8461V5.8205C18 5.36922 17.6308 5 17.1794 5ZM16.8715 5.61534L10.472 10.4154C10.3569 10.503 10.1803 10.5577 9.99995 10.5569C9.81964 10.5577 9.64305 10.503 9.52795 10.4154L3.1284 5.61534H16.8715ZM13.4531 10.7321L16.9403 15.0398C16.9438 15.0441 16.9481 15.0474 16.9518 15.0513H3.04819C3.05187 15.0472 3.05619 15.0441 3.05969 15.0398L6.54687 10.7321C6.65371 10.6 6.63346 10.4064 6.50112 10.2993C6.36902 10.1924 6.17537 10.2127 6.06849 10.3448L2.61537 14.6105V5.99997L9.15892 10.9076C9.40489 11.0908 9.70414 11.1715 9.99992 11.1723C10.2953 11.1716 10.5948 11.091 10.8409 10.9076L17.3845 5.99997V14.6104L13.9314 10.3448C13.8246 10.2127 13.6307 10.1924 13.4988 10.2993C13.3665 10.4061 13.3462 10.6 13.4531 10.7321Z" fill="#F60656"/>
</svg>
