<svg width="36" height="68" viewBox="0 0 36 68" fill="none" xmlns="http://www.w3.org/2000/svg">
<g clip-path="url(#clip0_2539_37198)">
<path d="M21.9734 71.9996C21.5028 71.8201 21.3069 71.4892 21.3108 70.9765C21.3264 68.9505 21.3194 66.9246 21.314 64.8987C21.3116 64.1846 21.3108 63.4697 21.271 62.7564C21.2328 62.0564 21.4224 61.4493 21.7689 60.8382C23.3632 58.0248 24.9262 55.1935 26.4916 52.3638C26.9543 51.5272 27.3039 50.6523 27.254 49.6651C27.215 48.8988 26.998 48.18 26.6563 47.5049C25.1073 44.4465 23.5442 41.3951 21.9843 38.3422C21.5769 37.5446 20.9105 37.1458 20.0233 37.1887C18.4938 37.2629 16.9658 37.3729 15.4371 37.4697C14.6341 37.5204 13.8319 37.5922 13.0274 37.6234C12.144 37.6578 11.5182 38.1135 11 38.7753C9.85605 40.2386 8.71127 41.7018 7.56649 43.1651C7.33473 43.4616 7.11467 43.7699 6.86652 44.0524C6.66831 44.278 6.73698 44.3966 6.96562 44.53C7.42057 44.7954 7.90048 44.8305 8.39679 44.7158C9.59619 44.4387 10.5662 43.7395 11.5112 43.0004C12.1987 42.4635 12.8268 41.8603 13.4402 41.2414C13.9147 40.763 14.3072 40.7349 14.8636 41.1048C15.1445 41.2921 15.4278 41.4771 15.7165 41.6519C16.372 42.0491 17.0868 42.1943 17.8476 42.1295C17.9772 42.1186 18.1075 42.117 18.237 42.117C18.8847 42.1186 19.2609 42.4682 19.2593 43.1253C19.2577 43.6958 19.2008 44.2655 19.1719 44.8352C19.1454 45.3666 19.239 45.8513 19.5855 46.2945C20.0467 46.8837 19.8492 47.5416 19.136 47.7781C18.1036 48.1199 17.4145 48.7801 16.9791 49.7712C16.7825 50.2176 16.7949 50.6133 16.9604 51.0378C17.15 51.5248 17.4918 51.8924 17.8882 52.2202C18.3307 52.5862 18.3876 53.1075 18.0412 53.5219C17.6884 53.9433 17.1843 53.9683 16.7317 53.5874C16.1051 53.0599 15.6127 52.4332 15.3006 51.6708C15.2405 51.5233 15.2132 51.3328 14.9549 51.4304C13.6525 51.9259 12.3657 52.4543 11.2576 53.3237C9.9809 54.3249 9.405 55.7281 9.04838 57.2499C8.9922 57.4895 8.95084 57.7337 8.88061 57.9694C8.74092 58.4338 8.293 58.6936 7.8521 58.582C7.33317 58.4509 7.0499 58.0436 7.13574 57.5425C7.71008 54.1642 9.47914 51.7152 12.7028 50.3924C13.3996 50.106 14.0918 49.8071 14.8089 49.5746C15.0633 49.4919 15.2217 49.3592 15.3091 49.0915C15.6572 48.0216 16.3322 47.2045 17.3092 46.6465C17.5425 46.513 17.6003 46.3796 17.5214 46.1135C17.3427 45.5118 17.2756 44.8898 17.3857 44.2655C17.4325 43.9986 17.3256 43.908 17.0868 43.8893C16.1629 43.816 15.3021 43.5459 14.5382 43.016C14.3345 42.8748 14.2385 42.9825 14.1129 43.1027C13.2576 43.9221 12.3688 44.7017 11.3629 45.3354C10.2283 46.0503 9.03512 46.6223 7.65623 46.6075C6.41313 46.5942 5.44159 46.0167 4.70338 45.0388C4.40763 44.6471 4.43806 44.2467 4.76659 43.823C5.31518 43.1151 5.87001 42.412 6.44357 41.68C6.08382 41.5161 5.71238 41.566 5.37136 41.4701C4.65344 41.2687 4.01589 40.9456 3.54846 40.3447C2.84146 39.4379 2.94837 38.229 3.82938 37.4837C5.02957 36.4684 6.24302 35.4672 7.46036 34.4729C7.72334 34.2575 7.88722 34.0156 7.98242 33.6855C8.57471 31.6268 8.49277 29.5868 7.87317 27.5507C7.80372 27.3213 7.66794 27.2143 7.47051 27.123C6.19853 26.5315 5.02098 25.8057 4.11812 24.703C3.6343 24.1122 3.26597 23.4606 3.13331 22.6981C3.08415 22.4187 2.971 22.3516 2.7127 22.4929C2.15631 22.7988 1.94093 23.3037 1.95654 23.8898C1.98229 24.8747 2.06111 25.858 2.12275 26.8421C2.19143 27.9292 2.28039 29.0155 2.33423 30.1034C2.43802 32.216 2.55039 34.3285 2.60891 36.4419C2.67602 38.8565 2.68773 41.2718 2.59175 43.688C2.54492 44.8547 2.49264 46.0214 2.40758 47.1858C2.3233 48.3478 2.18908 49.5075 2.06033 50.6664C1.76691 53.3018 1.46414 55.9466 2.27258 58.5399C3.00455 60.8874 4.19381 62.9773 6.18605 64.5045C7.95901 65.864 9.95047 66.0724 12.0605 65.4652C12.2229 65.4184 12.3844 65.3677 12.549 65.3349C13.0188 65.2405 13.4129 65.4684 13.5588 65.9108C13.7118 66.3752 13.5346 66.8302 13.0805 67.0081C12.052 67.41 10.9743 67.5614 9.87399 67.5325C7.78733 67.4763 5.98082 66.7209 4.18366 65.1679C4.09314 65.2974 4.13216 65.441 4.13216 65.5714C4.12982 67.3382 4.12514 69.1051 4.13528 70.8719C4.1384 71.3885 3.97765 71.7858 3.47979 71.9996H3.01158C2.44738 71.8349 2.30458 71.4026 2.30458 70.8828C2.30224 69.1808 2.30145 67.4795 2.30067 65.7774C2.30067 64.9072 2.29599 64.0363 2.30145 63.1662C2.30302 62.925 2.25307 62.7112 2.12431 62.5028C1.03806 60.743 0.357597 58.8349 0.118029 56.7824C-0.0450649 55.3878 -0.0193133 53.9854 0.0758897 52.5838C0.216353 50.5282 0.521471 48.489 0.661934 46.4319C0.868728 43.4101 0.927254 40.3868 0.861705 37.3628C0.814103 35.1714 0.745432 32.9792 0.579997 30.791C0.470748 29.3433 0.422366 27.8902 0.324042 26.4417C0.265515 25.5747 0.167971 24.7108 0.173434 23.8399C0.185139 21.9583 1.49613 20.5653 3.3799 20.4459C3.5149 20.4373 3.63118 20.4131 3.73106 20.3109C4.52702 19.5 5.50168 19.3666 6.54111 19.6436C9.76475 20.5005 12.9821 21.38 16.2003 22.2541C19.1813 23.0641 22.1606 23.8789 25.1408 24.6905C25.6262 24.8232 25.659 24.7787 25.602 24.2621C25.4171 22.6014 25.2446 20.9391 25.0667 19.2784C24.9239 17.9517 24.7561 16.6273 24.6422 15.2983C24.4783 13.3762 24.8653 11.6078 26.3582 10.2616C27.2977 9.41404 28.437 9.03164 29.7106 9.28528C30.6439 9.47101 31.155 10.1445 31.3587 11.0201C31.7262 12.5973 32.0462 14.1855 32.3762 15.7712C33.2791 20.1095 34.1804 24.4486 35.0755 28.7884C35.3978 30.3485 35.7833 31.8991 35.9464 33.4865C36.1469 35.4453 35.8098 37.2691 34.4442 38.7886C34.2483 39.0063 34.2382 39.1952 34.3349 39.4558C34.6408 40.2815 35.0333 41.0775 35.2042 41.9508C35.5109 43.5178 34.8749 44.8992 33.4773 45.6577C33.1589 45.831 32.8187 45.966 32.4839 46.1064C32.3247 46.1736 32.2436 46.261 32.2209 46.4459C31.9736 48.489 31.0528 50.0787 29.1292 50.984C29.0082 51.041 28.9091 51.1089 28.8693 51.2517C28.4081 52.9132 27.453 54.3366 26.6375 55.8256C25.5341 57.8414 24.4049 59.844 23.2797 61.848C23.1478 62.0829 23.0885 62.3171 23.0893 62.5863C23.0955 65.3529 23.0846 68.1202 23.1002 70.8867C23.1033 71.4166 22.9426 71.7951 22.4408 71.9996H21.9726H21.9734ZM22.6569 29.8014C23.7814 29.7803 24.6453 30.0769 25.3741 30.7363C25.9867 31.2912 26.3574 32.0029 26.6742 32.7498C27.3742 34.3988 28.0757 36.047 28.7773 37.6944C29.453 39.2826 30.1335 40.8699 30.8054 42.4604C31.0879 43.1292 30.8069 43.7246 30.1873 43.8089C29.6551 43.8807 29.382 43.7028 29.1284 43.1081C27.9875 40.4337 26.8521 37.7569 25.705 35.0855C25.3523 34.263 25.0597 33.4123 24.6117 32.6335C24.156 31.8414 23.4638 31.5136 22.5508 31.6229C22.0748 31.6798 21.5933 31.6923 21.1142 31.729C20.0537 31.8117 18.9924 31.8952 17.9319 31.9819C16.7684 32.0771 15.6057 32.1902 14.4414 32.2706C13.4457 32.3393 12.5373 32.5843 11.7507 33.2508C10.2837 34.494 8.78774 35.7036 7.30585 36.9289C6.58481 37.5251 5.86376 38.1213 5.15208 38.7285C4.83604 38.9985 4.85243 39.1959 5.17627 39.4566C5.31986 39.5721 5.48373 39.6525 5.66165 39.6977C6.23911 39.8452 6.81579 39.7984 7.3995 39.7173C7.8958 39.6478 8.25788 39.434 8.54662 39.018C8.9087 38.4959 9.31136 38.0004 9.71949 37.5118C10.4788 36.6019 11.416 35.9955 12.6255 35.8683C13.4137 35.7856 14.205 35.759 14.9947 35.7075C16.6529 35.599 18.3073 35.4196 19.9702 35.4156C21.6612 35.4117 22.9012 36.1804 23.6722 37.6859C25.0152 40.3096 26.3488 42.9388 27.6949 45.5602C28.2123 46.5669 28.7062 47.5806 28.9162 48.7036C28.9677 48.9783 29.0582 48.9627 29.2275 48.7996C30.0562 48.0052 30.5931 47.0734 30.608 45.895C30.6165 45.1965 30.7898 44.9374 31.4312 44.697C31.9322 44.5097 32.4145 44.2858 32.8429 43.9603C33.4445 43.503 33.6357 42.9333 33.4297 42.2091C33.3696 41.9968 33.301 41.7869 33.2221 41.5809C31.6224 37.3854 30.0204 33.1907 28.4199 28.9952C28.2162 28.4622 27.8978 28.0135 27.4585 27.6467C26.7304 27.0372 25.8533 26.7508 24.9621 26.5065C19.367 24.9746 13.7711 23.445 8.17283 21.9255C7.42213 21.7218 6.68391 21.4549 5.90902 21.3613C5.13023 21.2676 4.67451 21.8654 4.90471 22.6248C5.00928 22.9682 5.20124 23.2585 5.43145 23.5254C6.25628 24.4845 7.31288 25.1135 8.45844 25.6028C11.899 27.0723 15.345 28.5293 18.7872 29.9942C18.9854 30.0784 19.1742 30.0894 19.3904 30.0691C20.5274 29.9629 21.6659 29.8794 22.6585 29.7998L22.6569 29.8014ZM34.2046 34.3574C34.2202 34.0687 34.15 33.6035 34.0836 33.1439C33.8472 31.5019 33.457 29.888 33.1223 28.2648C32.2334 23.9507 31.3415 19.6366 30.4488 15.3233C30.1991 14.1183 29.9532 12.9126 29.6848 11.7116C29.5584 11.1442 29.1729 10.9335 28.6103 11.0529C28.2037 11.1387 27.8596 11.3362 27.5583 11.6132C26.6438 12.4529 26.366 13.5572 26.3972 14.7247C26.4253 15.7837 26.5946 16.8388 26.7062 17.8947C26.8529 19.2854 27.0051 20.6761 27.1533 22.0668C27.2642 23.1102 27.3679 24.1544 27.4834 25.197C27.5045 25.3874 27.5466 25.5677 27.7526 25.6809C28.9692 26.3512 29.7386 27.372 30.2193 28.6729C31.2143 31.3614 32.2639 34.0304 33.2932 36.7064C33.3337 36.811 33.3361 36.9726 33.4633 36.9882C33.5983 37.0038 33.6248 36.8407 33.6802 36.7455C34.0774 36.0626 34.1921 35.3126 34.2062 34.3566L34.2046 34.3574ZM10.0808 32.3167C11.5564 31.0532 13.1952 30.4491 15.0485 30.3953C13.4254 29.6664 11.8124 28.9859 10.2017 28.2991C9.92472 28.1813 9.86853 28.3038 9.91848 28.5371C10.1799 29.7507 10.1877 30.9751 10.08 32.3167H10.0808Z" fill="#F60656"/>
<path d="M15.491 13.6423C14.9768 13.6478 14.7317 13.3434 14.5624 12.9283C13.9303 11.3799 13.2935 9.83394 12.6575 8.28796C12.4063 7.6769 12.1488 7.0674 11.9006 6.45478C11.6727 5.89211 11.8514 5.39187 12.3462 5.18116C12.8386 4.97123 13.3255 5.19442 13.5596 5.761C14.4609 7.94068 15.342 10.1297 16.2597 12.3024C16.578 13.057 16.0084 13.6876 15.491 13.6423Z" fill="#F60656"/>
<path d="M11.8528 16.1873C11.8426 16.821 11.184 17.2408 10.6097 16.9708C10.4832 16.9115 10.3623 16.8241 10.264 16.725C8.65176 15.1064 7.04345 13.4847 5.43592 11.8615C5.18855 11.6118 5.02 11.3254 5.11832 10.9539C5.31029 10.2273 6.11795 10.0236 6.67434 10.5754C7.93617 11.8287 9.1863 13.0922 10.4411 14.3526C10.7985 14.7115 11.1551 15.0697 11.5094 15.4319C11.7139 15.641 11.8699 15.8759 11.8535 16.1873H11.8528Z" fill="#F60656"/>
<path d="M20.1493 8.43667C20.1493 7.28245 20.1469 6.12745 20.1501 4.97323C20.1516 4.37075 20.4825 4.00552 21.0186 4.00006C21.5664 3.9946 21.9207 4.37543 21.9215 4.98571C21.9238 7.29494 21.9238 9.60416 21.9215 11.9134C21.9215 12.5049 21.5734 12.8897 21.0498 12.8975C20.5114 12.9061 20.154 12.5151 20.1524 11.9001C20.1493 10.7459 20.1516 9.5909 20.1516 8.43667H20.1501H20.1493Z" fill="#F60656"/>
</g>
<defs>
<clipPath id="clip0_2539_37198">
<rect width="36" height="68" rx="8" fill="white"/>
</clipPath>
</defs>
</svg>
