<svg width="339" height="468" viewBox="0 0 339 468" fill="none" xmlns="http://www.w3.org/2000/svg">
<path d="M244.523 8.03433H339V317.691C339 341.124 334.19 361.88 324.571 380.292C314.951 398.704 301.896 414.438 285.406 427.828C268.915 440.884 249.676 450.927 228.376 457.622C206.732 464.318 184.057 468 160.352 468C138.021 468 116.721 463.983 96.4512 455.614C76.1815 447.245 57.9732 435.863 41.8262 421.133C26.0228 406.403 13.3113 389.33 4.03534 369.914L90.2673 331.751C94.7334 340.79 100.574 348.824 107.445 355.185C114.66 361.545 122.561 366.566 131.837 369.914C140.77 373.262 150.389 375.27 160.009 375.27C171.002 375.27 181.309 374.266 191.616 371.923C201.579 369.579 210.855 366.232 218.756 361.545C226.658 356.858 233.185 350.833 237.652 343.468C242.118 336.103 244.523 327.399 244.523 317.691V287.562C235.247 297.94 223.91 306.309 210.854 313.004C197.799 319.365 183.027 322.712 166.193 322.712C143.174 322.712 121.874 318.36 101.948 309.991C82.022 301.622 64.5007 289.906 49.3844 275.176C34.268 260.446 22.2437 243.373 13.6548 223.957C5.40955 204.541 0.943359 183.451 0.943359 161.356C0.943359 138.927 5.40955 118.172 13.9984 98.7554C22.5872 79.3391 34.6116 62.2661 49.7279 47.5365C64.8443 32.8069 82.3655 21.0901 102.292 12.721C122.218 4.35193 143.518 0 166.536 0C183.37 0 198.143 3.34764 211.198 9.70815C224.253 16.0687 235.247 24.4378 244.866 35.1502V8.03433H244.523ZM167.91 234.335C180.965 234.335 192.646 230.987 203.64 224.627C214.29 217.931 222.879 209.227 229.063 198.18C235.247 187.133 238.339 174.747 238.339 161.356C238.339 147.966 235.247 135.579 229.063 124.532C222.879 113.485 214.29 104.781 203.64 98.0858C192.99 91.3906 180.965 88.3777 167.91 88.3777C155.199 88.3777 143.518 91.7253 132.868 98.0858C122.218 104.781 113.972 113.485 107.445 124.532C101.261 135.579 98.169 147.966 98.169 161.356C98.169 174.747 101.261 187.133 107.445 198.18C113.629 209.227 122.218 217.931 132.868 224.627C143.174 230.987 154.855 234.335 167.91 234.335Z" fill="url(#paint0_linear_2990_2381)" fill-opacity="0.05"/>
<defs>
<linearGradient id="paint0_linear_2990_2381" x1="74.3597" y1="445.14" x2="285.9" y2="23.6774" gradientUnits="userSpaceOnUse">
<stop stop-color="white"/>
<stop offset="1" stop-color="#F60656"/>
</linearGradient>
</defs>
</svg>
