<svg width="280" height="63" viewBox="0 0 280 63" fill="none" xmlns="http://www.w3.org/2000/svg">
<g clip-path="url(#clip0_2990_2348)">
<path d="M27.1352 10.9855H37.4329V45.6551C37.4329 48.2788 36.9087 50.6025 35.8602 52.664C34.8117 54.7254 33.3887 56.487 31.5913 57.9863C29.7939 59.448 27.6969 60.5724 25.3753 61.322C23.0162 62.0716 20.5447 62.4839 17.961 62.4839C15.5269 62.4839 13.2053 62.0342 10.9959 61.0972C8.78662 60.1601 6.802 58.8858 5.042 57.2366C3.31948 55.5874 1.93397 53.676 0.922923 51.5021L10.3219 47.2293C10.8087 48.2412 11.4453 49.1408 12.1942 49.853C12.9806 50.5651 13.8418 51.1273 14.8529 51.5021C15.8265 51.8769 16.875 52.1018 17.9235 52.1018C19.1217 52.1018 20.2451 51.9893 21.3686 51.727C22.4545 51.4646 23.4655 51.0898 24.3268 50.5651C25.1881 50.0403 25.8995 49.3657 26.3863 48.5411C26.8731 47.7165 27.1352 46.742 27.1352 45.6551V42.2818C26.1242 43.4438 24.8885 44.3808 23.4655 45.1304C22.0426 45.8425 20.4324 46.2173 18.5975 46.2173C16.0886 46.2173 13.767 45.73 11.5951 44.793C9.42318 43.856 7.51343 42.5442 5.86582 40.895C4.21819 39.2459 2.90757 37.3344 1.97141 35.1605C1.07271 32.9866 0.585907 30.6254 0.585907 28.1516C0.585907 25.6404 1.07271 23.3166 2.00886 21.1427C2.94502 18.9689 4.25563 17.0573 5.90326 15.4082C7.5509 13.759 9.46065 12.4472 11.6325 11.5102C13.8044 10.5731 16.1261 10.0859 18.635 10.0859C20.4698 10.0859 22.08 10.4608 23.503 11.1729C24.9259 11.885 26.1242 12.822 27.1727 14.0214V10.9855H27.1352ZM18.7847 36.3224C20.2077 36.3224 21.4809 35.9476 22.6792 35.2355C23.84 34.4858 24.7761 33.5114 25.4501 32.2745C26.1242 31.0376 26.4612 29.6508 26.4612 28.1516C26.4612 26.6524 26.1242 25.2656 25.4501 24.0287C24.7761 22.7919 23.84 21.8173 22.6792 21.0678C21.5183 20.3182 20.2077 19.9808 18.7847 19.9808C17.3993 19.9808 16.1261 20.3556 14.9652 21.0678C13.8044 21.8173 12.9057 22.7919 12.1942 24.0287C11.5202 25.2656 11.1832 26.6524 11.1832 28.1516C11.1832 29.6508 11.5202 31.0376 12.1942 32.2745C12.8683 33.5114 13.8044 34.4858 14.9652 35.2355C16.0886 35.9476 17.3618 36.3224 18.7847 36.3224Z" fill="white"/>
<path d="M40.4281 45.3182L40.3906 10.9858H50.6883L50.7258 13.1597C51.8866 12.1852 53.1597 11.3981 54.6201 10.8734C56.0805 10.3112 57.6159 10.0488 59.2635 10.0488C60.4992 10.0488 61.7724 10.2362 63.0456 10.611L59.0014 21.0681C58.215 20.6933 57.3912 20.5059 56.5299 20.5059C55.444 20.5059 54.4704 20.7683 53.6091 21.293C52.7104 21.8178 52.0364 22.4924 51.5121 23.392C50.9879 24.2915 50.7258 25.266 50.7258 26.3154V45.3931H40.4281V45.3182Z" fill="white"/>
<path d="M87.4218 10.9852H97.7195V45.3176H87.3846L86.8976 42.2441C86.036 43.4435 84.9877 44.3805 83.6769 45.1301C82.3662 45.8798 80.8688 46.217 79.1834 46.217C76.637 46.217 74.2408 45.7298 71.994 44.7928C69.7473 43.8183 67.8001 42.5065 66.1149 40.7824C64.4299 39.0957 63.1192 37.1093 62.1456 34.8604C61.2094 32.6116 60.7226 30.2128 60.7226 27.6642C60.7226 25.2279 61.172 22.9416 62.0707 20.8051C62.9695 18.6688 64.2052 16.7948 65.8153 15.183C67.4255 13.5714 69.2975 12.297 71.3948 11.3975C73.4921 10.4979 75.7761 10.0107 78.2102 10.0107C80.1945 10.0107 81.9543 10.423 83.5647 11.2476C85.175 12.0722 86.598 13.0841 87.8709 14.2835L87.4218 10.9852ZM78.9217 36.3222C80.3447 36.3222 81.6175 35.9474 82.816 35.2353C83.9766 34.4856 84.9126 33.5111 85.5869 32.2743C86.2612 31.0374 86.598 29.6506 86.598 28.1514C86.598 26.6522 86.2612 25.2653 85.5869 24.0285C84.9126 22.7916 83.9766 21.8171 82.816 21.0675C81.6554 20.3179 80.3447 19.9806 78.9217 19.9806C77.4987 19.9806 76.2252 20.3554 75.0646 21.0675C73.904 21.8171 73.0052 22.7916 72.3309 24.0285C71.6572 25.2653 71.3197 26.6522 71.3197 28.1514C71.3197 29.6506 71.6572 31.0374 72.3309 32.2743C73.0052 33.5111 73.9412 34.4856 75.1018 35.2353C76.2252 35.9474 77.4987 36.3222 78.9217 36.3222Z" fill="white"/>
<path d="M132.582 23.3545V45.2807H122.285V26.2405C122.285 25.1535 122.023 24.1791 121.499 23.317C120.975 22.4174 120.263 21.7428 119.401 21.2181C118.54 20.6933 117.567 20.431 116.481 20.431C115.395 20.431 114.422 20.6933 113.56 21.2181C112.661 21.7428 111.987 22.4174 111.463 23.317C110.938 24.2165 110.677 25.191 110.677 26.2405V45.3182H100.379L100.342 10.9858H110.639L110.677 13.1597C111.837 12.1852 113.111 11.3981 114.571 10.8734C116.031 10.3112 117.567 10.0488 119.214 10.0488C121.686 10.0488 123.933 10.6485 125.954 11.8479C127.977 13.0473 129.587 14.6589 130.785 16.6829C131.946 18.6694 132.582 20.8808 132.582 23.3545Z" fill="white"/>
<path d="M155.5 21.293H149.658V45.3182H139.361V21.293H134.904V10.9858H139.361V0.191406H149.658V10.9858H155.5V21.293Z" fill="white"/>
<path d="M168.344 45.3178H165.16L157.783 23.3167H160.779L166.77 41.045L172.725 23.3167H175.982L181.936 41.045L187.89 23.3167H190.923L183.547 45.3178H180.363L174.334 27.402L168.344 45.3178Z" fill="#FF2768"/>
<path d="M192.832 45.3177V23.3165H195.903V26.3524C196.689 25.228 197.7 24.366 198.936 23.6913C200.172 23.0167 201.52 22.7168 203.018 22.7168C203.879 22.7168 204.703 22.8292 205.489 23.0541L204.253 26.1275C203.654 25.9402 203.055 25.8277 202.456 25.8277C201.258 25.8277 200.172 26.1275 199.198 26.6898C198.224 27.2894 197.438 28.0765 196.839 29.0511C196.24 30.0255 195.978 31.1125 195.978 32.3119V45.3177H192.832Z" fill="#FF2768"/>
<path d="M208.897 19.4561C208.41 19.4561 207.961 19.3061 207.624 18.9688C207.287 18.6315 207.1 18.2192 207.1 17.7319C207.1 17.2447 207.287 16.8324 207.624 16.4951C207.961 16.1577 208.373 16.0078 208.897 16.0078C209.384 16.0078 209.796 16.1577 210.133 16.4951C210.47 16.8324 210.657 17.2447 210.657 17.7319C210.657 18.2192 210.47 18.6315 210.133 18.9688C209.796 19.2686 209.384 19.4561 208.897 19.4561ZM207.324 23.3166H210.395V45.3177H207.324V23.3166Z" fill="#FF2768"/>
<path d="M224.287 26.3898H219.044L219.007 45.3175H215.936L215.973 26.3898H212.004V23.3163H215.973L215.936 16.4199H219.007L219.044 23.3163H224.287V26.3898Z" fill="#FF2768"/>
<path d="M237.283 45.8797C235.26 45.8797 233.426 45.3549 231.741 44.3055C230.093 43.256 228.745 41.8692 227.771 40.1076C226.798 38.346 226.273 36.397 226.273 34.2981C226.273 32.6864 226.573 31.1872 227.134 29.763C227.696 28.3762 228.483 27.1393 229.494 26.0523C230.505 25.0029 231.666 24.1409 233.014 23.5411C234.362 22.9415 235.785 22.6416 237.283 22.6416C238.893 22.6416 240.39 22.979 241.776 23.6161C243.161 24.2533 244.323 25.1528 245.334 26.3147C246.307 27.4766 247.056 28.826 247.58 30.4002C248.105 31.9743 248.292 33.6234 248.217 35.4225H229.568C229.756 36.8094 230.206 38.0462 230.917 39.1706C231.628 40.2576 232.527 41.1571 233.65 41.7943C234.774 42.4314 235.972 42.7687 237.32 42.7687C238.781 42.7687 240.091 42.3939 241.289 41.6068C242.488 40.8572 243.424 39.8077 244.135 38.4585L247.243 39.1706C246.382 41.1196 245.034 42.7313 243.274 43.9681C241.477 45.2425 239.492 45.8797 237.283 45.8797ZM229.456 32.9863H245.109C244.996 31.637 244.584 30.3626 243.873 29.2382C243.162 28.1138 242.225 27.1768 241.065 26.5021C239.904 25.8275 238.668 25.4901 237.32 25.4901C235.972 25.4901 234.699 25.8275 233.576 26.5021C232.452 27.1768 231.516 28.0763 230.804 29.2007C230.093 30.3252 229.644 31.5995 229.456 32.9863Z" fill="#FF2768"/>
<path d="M251.1 45.3177V23.3165H254.17V26.3524C254.957 25.228 255.968 24.366 257.203 23.6913C258.439 23.0167 259.787 22.7168 261.285 22.7168C262.147 22.7168 262.97 22.8292 263.756 23.0541L262.521 26.1275C261.922 25.9402 261.322 25.8277 260.724 25.8277C259.525 25.8277 258.439 26.1275 257.466 26.6898C256.492 27.2894 255.705 28.0765 255.107 29.0511C254.508 30.0255 254.245 31.1125 254.245 32.3119V45.3177H251.1Z" fill="#FF2768"/>
<path d="M271.581 45.7302C270.383 45.6927 269.222 45.4679 268.061 45.0555C266.9 44.6433 265.927 44.0811 265.065 43.3689C264.204 42.6568 263.605 41.8697 263.23 40.9702L265.889 39.8082C266.114 40.3705 266.563 40.8952 267.2 41.3824C267.836 41.8697 268.548 42.2445 269.371 42.5443C270.195 42.8442 271.02 42.9566 271.806 42.9566C272.704 42.9566 273.528 42.8067 274.315 42.5069C275.101 42.2071 275.738 41.7947 276.225 41.2325C276.711 40.6703 276.973 40.0331 276.973 39.2835C276.973 38.459 276.711 37.8592 276.187 37.372C275.663 36.9222 274.988 36.5474 274.203 36.2851C273.379 36.0227 272.555 35.7603 271.731 35.498C270.158 35.0857 268.81 34.5984 267.612 34.0737C266.413 33.549 265.515 32.9118 264.841 32.0872C264.166 31.3001 263.83 30.2507 263.83 28.9764C263.83 27.627 264.204 26.5026 264.953 25.5281C265.702 24.5536 266.713 23.804 267.911 23.2793C269.147 22.7546 270.458 22.4922 271.843 22.4922C273.64 22.4922 275.251 22.867 276.749 23.6541C278.209 24.4412 279.295 25.4532 279.932 26.765L277.46 28.2267C277.198 27.627 276.786 27.1023 276.225 26.6526C275.663 26.2028 274.988 25.8655 274.277 25.6031C273.566 25.3407 272.817 25.2283 272.068 25.1908C271.132 25.1908 270.27 25.3032 269.447 25.6031C268.623 25.9029 267.986 26.3152 267.499 26.8774C267.012 27.4397 266.751 28.1143 266.751 28.9388C266.751 29.7634 266.975 30.3631 267.462 30.7754C267.948 31.1877 268.586 31.525 269.447 31.7874C270.27 32.0498 271.206 32.3496 272.255 32.6869C273.603 33.0992 274.839 33.5865 276 34.1487C277.161 34.6734 278.134 35.3855 278.846 36.1726C279.557 36.9972 279.932 38.0092 279.895 39.2461C279.895 40.5579 279.482 41.7198 278.696 42.6943C277.909 43.6688 276.861 44.4184 275.626 44.9431C274.352 45.5428 273.004 45.7677 271.581 45.7302Z" fill="#FF2768"/>
</g>
<defs>
<clipPath id="clip0_2990_2348">
<rect width="280" height="63" fill="white"/>
</clipPath>
</defs>
</svg>
