<svg width="19" height="19" viewBox="0 0 19 19" fill="none" xmlns="http://www.w3.org/2000/svg">
<path d="M14.1474 9.26614C14.1474 11.9582 11.965 14.1405 9.27297 14.1405C6.58092 14.1405 4.39858 11.9582 4.39858 9.26614C4.39858 6.57408 6.58092 4.39174 9.27297 4.39174C11.965 4.39174 14.1474 6.57408 14.1474 9.26614ZM9.27297 12.8154C11.2332 12.8154 12.8223 11.2263 12.8223 9.26614C12.8223 7.30591 11.2332 5.71683 9.27297 5.71683C7.31274 5.71683 5.72367 7.30591 5.72367 9.26614C5.72367 11.2263 7.31274 12.8154 9.27297 12.8154Z" fill="#CC0B4B" stroke="#CC0B4B" stroke-width="0.35965"/>
<path d="M13.6564 4.21151C13.6564 3.8456 13.953 3.54897 14.3189 3.54897C14.6849 3.54897 14.9815 3.8456 14.9815 4.21151C14.9815 4.57742 14.6849 4.87406 14.3189 4.87406C13.953 4.87406 13.6564 4.57742 13.6564 4.21151Z" fill="#CC0B4B" stroke="#CC0B4B" stroke-width="0.35965"/>
<path fill-rule="evenodd" clip-rule="evenodd" d="M0.550876 2.75966C0 3.84081 0 5.25613 0 8.08675L0 10.4454C0 13.276 0 14.6914 0.550876 15.7725C1.03544 16.7235 1.80864 17.4967 2.75966 17.9812C3.84081 18.5321 5.25613 18.5321 8.08675 18.5321H10.4454C13.276 18.5321 14.6914 18.5321 15.7725 17.9812C16.7235 17.4967 17.4967 16.7235 17.9812 15.7725C18.5321 14.6914 18.5321 13.276 18.5321 10.4454V8.08675C18.5321 5.25613 18.5321 3.84081 17.9812 2.75966C17.4967 1.80864 16.7235 1.03544 15.7725 0.550876C14.6914 0 13.276 0 10.4454 0L8.08675 0C5.25613 0 3.84081 0 2.75966 0.550876C1.80864 1.03544 1.03544 1.80864 0.550876 2.75966ZM10.4454 1.68474L8.08675 1.68474C6.64364 1.68474 5.66262 1.68605 4.90435 1.748C4.16572 1.80835 3.788 1.91773 3.52451 2.05199C2.8905 2.37504 2.37504 2.8905 2.05199 3.52451C1.91773 3.788 1.80835 4.16572 1.748 4.90435C1.68605 5.66262 1.68474 6.64364 1.68474 8.08675L1.68474 10.4454C1.68474 11.8885 1.68605 12.8695 1.748 13.6278C1.80835 14.3665 1.91773 14.7442 2.05199 15.0077C2.37504 15.6416 2.8905 16.1571 3.52451 16.4801C3.788 16.6144 4.16572 16.7238 4.90435 16.7841C5.66262 16.8461 6.64364 16.8474 8.08675 16.8474H10.4454C11.8885 16.8474 12.8695 16.8461 13.6278 16.7841C14.3665 16.7238 14.7442 16.6144 15.0077 16.4801C15.6416 16.1571 16.1571 15.6416 16.4801 15.0077C16.6144 14.7442 16.7238 14.3665 16.7841 13.6278C16.8461 12.8695 16.8474 11.8885 16.8474 10.4454V8.08675C16.8474 6.64364 16.8461 5.66262 16.7841 4.90435C16.7238 4.16572 16.6144 3.788 16.4801 3.52451C16.1571 2.8905 15.6416 2.37504 15.0077 2.05199C14.7442 1.91773 14.3665 1.80835 13.6278 1.748C12.8695 1.68605 11.8885 1.68474 10.4454 1.68474Z" fill="#CC0B4B"/>
</svg>
