<svg width="28" height="26" viewBox="0 0 28 26" fill="none" xmlns="http://www.w3.org/2000/svg">
<path d="M0.355067 8.45665H6.3558V26H0.355067V8.45665ZM3.3956 0C1.3418 0 0 1.3099 0 3.02918C0 4.7131 1.30253 6.06108 3.31707 6.06108H3.35533C5.4484 6.06108 6.75187 4.71304 6.75187 3.02918C6.7126 1.3099 5.44847 0 3.3956 0ZM21.0893 8.04455C17.904 8.04455 16.477 9.7466 15.6809 10.9402V8.45665H9.6784C9.75787 10.1024 9.6784 26 9.6784 26H15.6809V16.2026C15.6809 15.6778 15.7202 15.155 15.8781 14.7791C16.3127 13.7316 17.3003 12.6468 18.9569 12.6468C21.1304 12.6468 21.9984 14.2563 21.9984 16.6136V25.9999H28V15.9403C28 10.5518 25.0399 8.04455 21.0893 8.04455Z" fill="url(#paint0_linear_2990_2378)"/>
<defs>
<linearGradient id="paint0_linear_2990_2378" x1="1" y1="1" x2="27" y2="27" gradientUnits="userSpaceOnUse">
<stop stop-color="#F60656"/>
<stop offset="1" stop-color="#CC0B4B"/>
</linearGradient>
</defs>
</svg>
