<svg width="380" height="101" viewBox="0 0 380 101" fill="none" xmlns="http://www.w3.org/2000/svg">
<path d="M31.8835 40.1883H43.0709V80.2691C43.0709 83.1644 42.4237 85.8787 41.2217 88.231C40.0198 90.5837 38.3555 92.5742 36.229 94.2932C34.1025 96.0122 31.6986 97.2789 29.0173 98.1837C26.3361 99.0884 23.4699 99.5408 20.4188 99.5408C17.5526 99.5408 14.8714 98.998 12.1901 97.9122C9.60128 96.8265 7.2898 95.2884 5.25574 93.3884C3.22168 91.4884 1.6499 89.2264 0.540412 86.7835L10.7108 82.2597C11.2655 83.6168 12.0052 84.7024 13.0222 85.6977C14.0392 86.6024 15.1487 87.4167 16.4431 87.8691C17.7375 88.412 19.0319 88.6834 20.4188 88.6834C21.8981 88.6834 23.285 88.5025 24.6718 88.1406C26.0587 87.7786 27.2606 87.3263 28.3701 86.6024C29.4796 85.8786 30.3117 85.0644 30.9589 84.0692C31.6061 83.074 31.8835 81.8073 31.8835 80.4502V75.8359C30.6816 77.374 29.1098 78.5502 27.3531 79.4549C25.5964 80.3597 23.5623 80.9025 21.2509 80.9025C18.3847 80.9025 15.611 80.3596 13.0222 79.2739C10.4334 78.1882 8.21438 76.7405 6.27277 74.7501C4.33117 72.8501 2.85185 70.5883 1.74236 68.1454C0.63287 65.5216 0.078125 62.8072 0.078125 59.912C0.078125 57.0167 0.63287 54.3024 1.74236 51.8596C2.85185 49.3263 4.33117 47.1548 6.27277 45.2548C8.21438 43.3548 10.4334 41.8167 13.0222 40.731C15.611 39.6453 18.2923 39.1025 21.2509 39.1025C23.5623 39.1025 25.5964 39.5548 27.3531 40.5501C29.1098 41.4548 30.5891 42.7215 31.8835 44.1691V40.1883ZM21.3434 70.2263C23.1925 70.2263 24.8568 69.7739 26.3361 68.7786C27.8154 67.8739 29.0173 66.6073 29.8495 65.0692C30.6816 63.5311 31.1439 61.812 31.1439 59.912C31.1439 58.012 30.6816 56.293 29.8495 54.7548C29.0173 53.2167 27.8154 51.9502 26.3361 51.0454C24.8568 50.1406 23.1925 49.6883 21.3434 49.6883C19.4942 49.6883 17.9224 50.1406 16.3507 51.0454C14.8713 51.9502 13.6694 53.2167 12.7448 54.7548C11.8203 56.293 11.4504 58.012 11.4504 59.912C11.4504 61.812 11.9127 63.5311 12.7448 65.0692C13.6694 66.6073 14.8713 67.8739 16.3507 68.7786C17.9224 69.7739 19.5867 70.2263 21.3434 70.2263Z" fill="white"/>
<path d="M47.9531 79.727V40.1889H59.048V43.0841C60.4349 41.8175 62.0066 40.8222 63.7633 40.0984C65.6125 39.3746 67.4616 39.0127 69.4957 39.0127C70.975 39.0127 72.4543 39.1936 73.9337 39.646L69.6806 50.6841C68.756 50.3222 67.739 50.0508 66.722 50.0508C65.3351 50.0508 64.0407 50.4127 62.8388 51.046C61.6368 51.6794 60.8047 52.5841 60.065 53.7603C59.4178 54.846 59.048 56.1127 59.048 57.5603V79.727H47.9531Z" fill="white"/>
<path d="M117.593 40.1883V79.7263H106.405L105.85 75.6548C104.833 77.1929 103.447 78.4596 101.782 79.3643C100.118 80.2691 98.1765 80.8121 95.9575 80.8121C92.9064 80.8121 90.1325 80.2692 87.5437 79.1834C84.9549 78.0977 82.6434 76.5597 80.6094 74.5692C78.5753 72.5787 77.096 70.3168 75.9865 67.7835C74.877 65.2502 74.3223 62.4453 74.3223 59.4596C74.3223 56.6548 74.877 54.0311 75.894 51.5882C76.9111 49.1453 78.3904 46.9739 80.332 45.0739C82.2736 43.1739 84.4926 41.7263 86.8965 40.6406C89.3928 39.5549 92.0741 39.1025 94.9405 39.1025C97.4368 39.1025 99.6558 39.6454 101.597 40.6406C103.539 41.6359 105.296 42.993 106.775 44.5311L117.593 40.1883ZM95.7726 70.2263C97.6217 70.2263 99.286 69.7739 100.765 68.8691C102.245 67.9644 103.447 66.6978 104.279 65.1596C105.111 63.6215 105.573 61.8121 105.573 60.0025C105.573 58.1025 105.111 56.293 104.279 54.7548C103.447 53.2167 102.245 51.9502 100.765 51.0454C99.286 50.1406 97.6217 49.6883 95.7726 49.6883C93.9234 49.6883 92.259 50.1406 90.6872 51.0454C89.2079 51.9502 88.006 53.2167 87.0814 54.7548C86.1568 56.293 85.787 58.012 85.787 59.912C85.787 61.812 86.2493 63.5311 87.1738 65.0692C88.0984 66.6073 89.3004 67.8739 90.7797 68.7786C92.259 69.7739 93.9234 70.2263 95.7726 70.2263Z" fill="white"/>
<path d="M159.476 54.5746V79.727H148.289V57.5603C148.289 56.2032 147.919 54.9365 147.271 53.7603C146.624 52.6746 145.7 51.7698 144.498 51.046C143.388 50.4127 142.094 50.0508 140.707 50.0508C139.32 50.0508 138.026 50.4127 136.824 51.046C135.622 51.6794 134.79 52.5841 134.05 53.7603C133.403 54.846 133.033 56.1127 133.033 57.5603V79.727H121.846V40.1889H133.033V43.0841C134.42 41.8175 135.992 40.8222 137.748 40.0984C139.598 39.3746 141.447 39.0127 143.481 39.0127C146.439 39.0127 149.121 39.7365 151.432 41.0936C153.836 42.4508 155.685 44.3508 157.164 46.7032C158.736 49.0556 159.476 51.6794 159.476 54.5746Z" fill="white"/>
<path d="M186.473 51.046H179.168V79.7269H167.981V51.046H162.434V40.1888H167.981V27.7031H179.168V40.0984H186.473V51.046Z" fill="white"/>
<path d="M204.872 80.4508C202.838 80.2698 200.804 79.9079 198.862 79.1841C196.921 78.4603 195.256 77.5556 193.777 76.3794C192.298 75.2032 191.096 73.7556 190.264 72.0365L199.602 68.0556C199.879 68.5079 200.342 68.9603 200.896 69.4127C201.451 69.8651 202.191 70.3175 203.023 70.6794C203.855 71.0413 204.872 71.2222 205.981 71.2222C206.814 71.2222 207.646 71.1317 208.385 70.9508C209.125 70.7698 209.772 70.4079 210.327 69.9556C210.789 69.5032 211.067 68.8698 211.067 68.146C211.067 67.3317 210.789 66.6984 210.142 66.246C209.495 65.7937 208.755 65.4317 207.923 65.2508C207.091 65.0698 206.166 64.7984 205.427 64.7079C202.93 64.2556 200.619 63.5317 198.4 62.446C196.181 61.3603 194.424 59.9127 193.037 58.1937C191.651 56.4746 191.003 54.3936 191.003 51.9508C191.003 49.327 191.743 46.9746 193.13 45.0746C194.517 43.1746 196.458 41.6365 198.677 40.5508C200.989 39.4651 203.485 39.0127 206.074 39.0127C209.217 39.0127 212.176 39.646 214.857 40.9127C217.539 42.1794 219.758 43.9889 221.329 46.3413L212.546 51.4079C212.176 50.8651 211.714 50.4127 211.159 49.9603C210.604 49.5079 209.957 49.146 209.217 48.7841C208.478 48.4222 207.738 48.2413 206.906 48.2413C205.889 48.1508 204.872 48.2413 204.04 48.4222C203.208 48.6032 202.468 48.9651 202.006 49.5079C201.543 50.0508 201.266 50.7746 201.266 51.6794C201.266 52.5841 201.636 53.2175 202.468 53.5794C203.208 54.0317 204.132 54.3032 205.149 54.4841C206.166 54.6651 207.091 54.9365 207.831 55.2079C210.142 55.9317 212.361 56.927 214.395 58.0127C216.429 59.1889 218.093 60.546 219.388 62.2651C220.682 63.8937 221.237 65.8841 221.144 68.146C221.144 70.7698 220.312 73.0317 218.741 75.0222C217.169 77.0127 215.135 78.4603 212.546 79.4556C210.327 80.2698 207.646 80.6317 204.872 80.4508Z" fill="white"/>
<path d="M232.885 36.4792C231.036 36.4792 229.465 35.8458 228.17 34.6696C226.876 33.403 226.229 31.9554 226.229 30.1458C226.229 28.3363 226.876 26.7982 228.17 25.622C229.465 24.3554 231.036 23.8125 232.885 23.8125C234.735 23.8125 236.306 24.4458 237.601 25.622C238.895 26.8887 239.542 28.3363 239.542 30.1458C239.542 31.9554 238.895 33.4935 237.693 34.6696C236.306 35.9363 234.735 36.4792 232.885 36.4792ZM227.246 40.1887H238.433V79.7268H227.246V40.1887Z" fill="white"/>
<path d="M247.771 79.727V40.1889H258.959V43.0841C260.346 41.8175 261.917 40.8222 263.674 40.0984C265.523 39.3746 267.372 39.0127 269.407 39.0127C270.886 39.0127 272.365 39.1936 273.844 39.646L269.499 50.6841C268.574 50.3222 267.557 50.0508 266.54 50.0508C265.153 50.0508 263.859 50.4127 262.657 51.046C261.455 51.6794 260.623 52.5841 259.883 53.7603C259.236 54.846 258.866 56.1127 258.866 57.5603V79.727H247.771Z" fill="white"/>
<path d="M294.186 80.7222C290.487 80.7222 287.066 79.8175 284.015 77.9175C280.964 76.0175 278.56 73.4841 276.711 70.3175C274.862 67.1508 273.938 63.6222 273.938 59.8222C273.938 56.927 274.492 54.2127 275.509 51.7698C276.526 49.2365 278.006 47.0651 279.855 45.1651C281.704 43.2651 283.83 41.727 286.327 40.6413C288.823 39.5556 291.412 39.0127 294.186 39.0127C297.422 39.0127 300.288 39.646 302.969 41.0032C305.65 42.3603 307.869 44.1698 309.719 46.5222C311.568 48.8746 312.862 51.4984 313.694 54.3936C314.526 57.2889 314.619 60.3651 314.064 63.5317H286.049C286.419 64.7079 286.974 65.7032 287.714 66.6984C288.453 67.6032 289.378 68.4175 290.487 68.9603C291.597 69.5032 292.799 69.7746 294.278 69.8651C295.665 69.8651 296.959 69.5937 298.161 68.9603C299.363 68.327 300.38 67.4222 301.212 66.3365L312.585 68.8698C310.92 72.3984 308.517 75.2032 305.188 77.4651C301.86 79.6365 298.254 80.7222 294.186 80.7222ZM285.587 55.4794H302.784C302.414 54.1222 301.86 52.946 301.028 51.9508C300.195 50.8651 299.178 50.0508 297.976 49.4175C296.774 48.7841 295.573 48.5127 294.186 48.5127C292.799 48.5127 291.597 48.7841 290.395 49.4175C289.193 50.0508 288.268 50.8651 287.436 51.8603C286.604 52.946 285.957 54.1222 285.587 55.4794Z" fill="white"/>
<path d="M358.165 54.5746V79.727H346.978V57.5603C346.978 56.2032 346.608 54.9365 345.961 53.7603C345.314 52.6746 344.389 51.7698 343.187 51.046C342.078 50.4127 340.783 50.0508 339.396 50.0508C338.01 50.0508 336.715 50.4127 335.513 51.046C334.311 51.6794 333.479 52.5841 332.74 53.7603C332.092 54.846 331.723 56.1127 331.723 57.5603V79.727H320.535V40.1889H331.723V43.0841C333.109 41.8175 334.681 40.8222 336.438 40.0984C338.287 39.3746 340.136 39.0127 342.17 39.0127C345.129 39.0127 347.81 39.7365 350.122 41.0936C352.525 42.4508 354.375 44.3508 355.854 46.7032C357.426 49.0556 358.165 51.6794 358.165 54.5746Z" fill="white"/>
<path d="M235.014 17.388C236.401 16.8452 237.972 16.7547 239.544 17.0261C241.023 17.2976 242.503 18.0214 243.705 19.1071C244.814 20.1928 245.646 21.6404 246.016 23.0881C246.386 24.5357 246.293 26.0738 245.831 27.5214C245.554 26.0738 245.184 24.8071 244.629 23.5404C244.074 22.3642 243.335 21.2785 242.41 20.4642C241.486 19.5595 240.376 18.9261 239.174 18.3833C237.88 17.9309 236.493 17.6595 235.014 17.388Z" fill="white"/>
<path d="M235.568 12.3219C237.602 11.8695 239.729 11.8695 241.855 12.4124C243.89 12.9552 245.924 14.041 247.403 15.4886C248.975 16.9362 250.084 18.8362 250.731 20.9172C251.286 22.9076 251.379 25.0791 250.916 27.0695C250.639 25.0791 250.084 23.1791 249.345 21.46C248.605 19.741 247.495 18.2029 246.108 16.8457C244.722 15.5791 243.15 14.4933 241.393 13.7695C239.544 13.0457 237.602 12.5933 235.568 12.3219Z" fill="white"/>
<path d="M236.215 7.07413C238.896 6.62175 241.67 6.80271 244.259 7.61699C246.94 8.3408 249.344 9.78844 251.378 11.6884C253.412 13.5884 254.891 16.0313 255.723 18.5646C256.555 21.098 256.74 23.9027 256.371 26.4361C256.001 23.8122 255.446 21.3694 254.336 19.017C253.319 16.7551 251.84 14.6742 250.083 12.9551C248.327 11.2361 246.108 9.87891 243.796 8.88366C241.392 7.88842 238.804 7.34556 236.215 7.07413Z" fill="white"/>
<path d="M236.307 1.10268C239.728 0.650299 243.333 0.921725 246.662 1.91696C248.326 2.45982 249.99 3.18363 251.562 3.99792C253.134 4.90268 254.521 5.98839 255.815 7.16458C257.11 8.43125 258.219 9.78842 259.144 11.236C260.068 12.7741 260.9 14.3122 261.363 15.9408C262.472 19.1979 262.842 22.7265 262.38 26.0741C262.01 22.7265 261.27 19.4694 259.976 16.3932C259.329 14.8551 258.589 13.4075 257.572 12.1408C256.647 10.7837 255.63 9.51699 254.428 8.43125C253.226 7.25506 251.932 6.25982 250.545 5.35506C249.158 4.4503 247.679 3.72649 246.107 3.09315C243.056 2.09792 239.728 1.46458 236.307 1.10268Z" fill="white"/>
<path d="M367 40V41.2H365.143V46H363.857V41.2H362V40H367Z" fill="white"/>
<path d="M367 46L368.123 40H369.113L370.5 43.6667L371.887 40H372.877L374 46H372.811L372.151 42.5333L370.896 45.9333H370.104L368.849 42.5333L368.189 46H367Z" fill="white"/>
</svg>
