<svg width="172" height="38" viewBox="0 0 172 38" fill="none" xmlns="http://www.w3.org/2000/svg">
<g clip-path="url(#clip0_2539_34299)">
<path d="M16.6553 6.62657H22.976V27.5384C22.976 29.1209 22.6543 30.5226 22.0107 31.766C21.3671 33.0094 20.4937 34.0719 19.3905 34.9762C18.2872 35.8579 17.0001 36.5362 15.5751 36.9883C14.127 37.4404 12.6101 37.6891 11.0242 37.6891C9.53015 37.6891 8.10513 37.4178 6.74903 36.8527C5.39296 36.2874 4.17481 35.5188 3.09452 34.5241C2.03724 33.5293 1.18681 32.3764 0.566235 31.0651L6.33531 28.4879C6.63412 29.0983 7.02484 29.6409 7.48455 30.0704C7.96722 30.5 8.49585 30.8391 9.11643 31.0651C9.71405 31.2912 10.3576 31.4269 11.0012 31.4269C11.7366 31.4269 12.4262 31.3591 13.1157 31.2008C13.7823 31.0425 14.4029 30.8165 14.9315 30.5C15.4601 30.1835 15.8968 29.7765 16.1956 29.2792C16.4944 28.7818 16.6553 28.194 16.6553 27.5384V25.5037C16.0347 26.2046 15.2762 26.7698 14.4029 27.2219C13.5295 27.6514 12.5411 27.8775 11.4149 27.8775C9.87491 27.8775 8.44989 27.5836 7.11679 27.0184C5.78368 26.4533 4.61148 25.662 3.60018 24.6673C2.58886 23.6726 1.78441 22.5196 1.2098 21.2083C0.658174 19.8971 0.359375 18.4728 0.359375 16.9808C0.359375 15.4661 0.658174 14.0644 1.23278 12.7531C1.80739 11.4419 2.61185 10.289 3.62316 9.29421C4.63448 8.29951 5.80668 7.50825 7.13979 6.94307C8.47289 6.37785 9.89791 6.08398 11.4379 6.08398C12.5641 6.08398 13.5524 6.31006 14.4259 6.73959C15.2992 7.16911 16.0347 7.73433 16.6783 8.45776V6.62657H16.6553ZM11.5298 21.9091C12.4032 21.9091 13.1847 21.6831 13.9202 21.2535C14.6327 20.8014 15.2073 20.2136 15.621 19.4675C16.0347 18.7215 16.2416 17.885 16.2416 16.9808C16.2416 16.0764 16.0347 15.24 15.621 14.4939C15.2073 13.7479 14.6327 13.1601 13.9202 12.708C13.2077 12.2558 12.4032 12.0523 11.5298 12.0523C10.6794 12.0523 9.89791 12.2784 9.18538 12.708C8.47289 13.1601 7.92123 13.7479 7.48455 14.4939C7.07083 15.24 6.86398 16.0764 6.86398 16.9808C6.86398 17.885 7.07083 18.7215 7.48455 19.4675C7.89827 20.2136 8.47289 20.8014 9.18538 21.2535C9.87491 21.6831 10.6564 21.9091 11.5298 21.9091Z" fill="white"/>
<path d="M24.814 27.3341L24.791 6.62573H31.1117L31.1347 7.93697C31.8473 7.34916 32.6287 6.8744 33.5251 6.5579C34.4215 6.2188 35.3639 6.06055 36.3752 6.06055C37.1336 6.06055 37.9151 6.17357 38.6966 6.39965L36.2143 12.7071C35.7316 12.481 35.226 12.368 34.6973 12.368C34.0308 12.368 33.4332 12.5263 32.9045 12.8428C32.3529 13.1593 31.9392 13.5662 31.6174 14.1088C31.2956 14.6514 31.1347 15.2391 31.1347 15.8721V27.3793H24.814V27.3341Z" fill="white"/>
<path d="M53.6594 6.62684H59.9802V27.3352H53.6366L53.3377 25.4814C52.8088 26.2048 52.1653 26.77 51.3608 27.2222C50.5563 27.6743 49.6372 27.8778 48.6027 27.8778C47.0397 27.8778 45.5689 27.5839 44.1899 27.0187C42.8108 26.4309 41.6157 25.6397 40.5813 24.5997C39.547 23.5824 38.7425 22.3842 38.1449 21.0278C37.5703 19.6713 37.2715 18.2244 37.2715 16.6872C37.2715 15.2177 37.5473 13.8386 38.0989 12.55C38.6506 11.2614 39.4091 10.131 40.3974 9.15886C41.3857 8.18676 42.5347 7.41809 43.8221 6.87551C45.1094 6.33293 46.5113 6.03906 48.0053 6.03906C49.2233 6.03906 50.3035 6.28774 51.2919 6.78509C52.2803 7.28248 53.1538 7.89285 53.935 8.61628L53.6594 6.62684ZM48.442 21.9095C49.3155 21.9095 50.0967 21.6834 50.8324 21.2539C51.5447 20.8017 52.1193 20.2139 52.5331 19.4679C52.947 18.7218 53.1538 17.8853 53.1538 16.981C53.1538 16.0767 52.947 15.2403 52.5331 14.4942C52.1193 13.7482 51.5447 13.1604 50.8324 12.7082C50.12 12.2561 49.3155 12.0526 48.442 12.0526C47.5686 12.0526 46.7869 12.2787 46.0746 12.7082C45.3622 13.1604 44.8105 13.7482 44.3966 14.4942C43.9831 15.2403 43.776 16.0767 43.776 16.981C43.776 17.8853 43.9831 18.7218 44.3966 19.4679C44.8105 20.2139 45.385 20.8017 46.0974 21.2539C46.7869 21.6834 47.5686 21.9095 48.442 21.9095Z" fill="white"/>
<path d="M81.3791 14.0862V27.3115H75.0587V15.827C75.0587 15.1713 74.8977 14.5835 74.5759 14.0635C74.2542 13.521 73.8175 13.114 73.2886 12.7975C72.7601 12.481 72.1624 12.3228 71.4961 12.3228C70.8294 12.3228 70.232 12.481 69.7031 12.7975C69.1514 13.114 68.738 13.521 68.4162 14.0635C68.0941 14.6061 67.9334 15.1939 67.9334 15.827V27.3341H61.6127L61.5898 6.62573H67.9102L67.9334 7.93697C68.6458 7.34916 69.4275 6.8744 70.3238 6.5579C71.22 6.2188 72.1624 6.06055 73.1736 6.06055C74.6909 6.06055 76.07 6.42228 77.3108 7.14571C78.552 7.86914 79.5405 8.84125 80.2761 10.0621C80.9884 11.2603 81.3791 12.5941 81.3791 14.0862Z" fill="white"/>
<path d="M95.4462 12.8432H91.8607V27.3346H85.54V12.8432H82.8047V6.62615H85.54V0.115234H91.8607V6.62615H95.4462V12.8432Z" fill="white"/>
<path d="M103.329 27.335H101.375L96.8477 14.0645H98.6867L102.364 24.7577L106.019 14.0645H108.018L111.673 24.7577L115.327 14.0645H117.189L112.661 27.335H110.707L107.007 16.5287L103.329 27.335Z" fill="white"/>
<path d="M118.361 27.3354V14.0649H120.246V15.8961C120.729 15.2178 121.349 14.6979 122.108 14.2909C122.866 13.884 123.694 13.7031 124.613 13.7031C125.142 13.7031 125.648 13.771 126.13 13.9066L125.372 15.7604C125.004 15.6474 124.636 15.5795 124.269 15.5795C123.533 15.5795 122.866 15.7604 122.269 16.0995C121.671 16.4612 121.189 16.936 120.821 17.5238C120.453 18.1116 120.292 18.7672 120.292 19.4906V27.3354H118.361Z" fill="white"/>
<path d="M128.221 11.7362C127.922 11.7362 127.646 11.6457 127.439 11.4423C127.232 11.2388 127.117 10.9901 127.117 10.6962C127.117 10.4023 127.232 10.1536 127.439 9.95016C127.646 9.74667 127.899 9.65625 128.221 9.65625C128.519 9.65625 128.772 9.74667 128.979 9.95016C129.186 10.1536 129.301 10.4023 129.301 10.6962C129.301 10.9901 129.186 11.2388 128.979 11.4423C128.772 11.6231 128.519 11.7362 128.221 11.7362ZM127.255 14.0647H129.14V27.3352H127.255V14.0647Z" fill="white"/>
<path d="M137.668 15.9179H134.45L134.427 27.3346H132.542L132.565 15.9179H130.129V14.064H132.565L132.542 9.9043H134.427L134.45 14.064H137.668V15.9179Z" fill="white"/>
<path d="M145.644 27.6729C144.403 27.6729 143.277 27.3564 142.243 26.7233C141.231 26.0903 140.404 25.2538 139.806 24.1913C139.208 23.1287 138.887 21.9532 138.887 20.6871C138.887 19.715 139.071 18.8108 139.415 17.9517C139.76 17.1152 140.243 16.3692 140.864 15.7135C141.484 15.0805 142.197 14.5606 143.024 14.1988C143.851 13.8371 144.725 13.6562 145.644 13.6562C146.633 13.6562 147.552 13.8597 148.402 14.2441C149.253 14.6284 149.965 15.1709 150.586 15.8718C151.183 16.5726 151.643 17.3865 151.965 18.336C152.287 19.2855 152.402 20.2802 152.356 21.3654H140.909C141.024 22.2019 141.3 22.9479 141.737 23.6261C142.173 24.2817 142.725 24.8243 143.415 25.2087C144.104 25.5929 144.84 25.7964 145.667 25.7964C146.564 25.7964 147.368 25.5704 148.103 25.0956C148.839 24.6434 149.414 24.0104 149.85 23.1966L151.758 23.6261C151.229 24.8017 150.402 25.7738 149.322 26.5199C148.218 27.2885 147 27.6729 145.644 27.6729ZM140.84 19.8959H150.448C150.379 19.082 150.126 18.3134 149.689 17.6352C149.253 16.9569 148.678 16.3918 147.966 15.9848C147.253 15.5779 146.494 15.3744 145.667 15.3744C144.84 15.3744 144.058 15.5779 143.369 15.9848C142.679 16.3918 142.104 16.9343 141.668 17.6125C141.231 18.2908 140.955 19.0594 140.84 19.8959Z" fill="white"/>
<path d="M154.125 27.3354V14.0649H156.01V15.8961C156.492 15.2178 157.113 14.6979 157.872 14.2909C158.63 13.884 159.457 13.7031 160.377 13.7031C160.906 13.7031 161.411 13.771 161.894 13.9066L161.135 15.7604C160.767 15.6474 160.4 15.5795 160.032 15.5795C159.297 15.5795 158.63 15.7604 158.033 16.0995C157.435 16.4612 156.952 16.936 156.585 17.5238C156.217 18.1116 156.056 18.7672 156.056 19.4906V27.3354H154.125Z" fill="white"/>
<path d="M166.698 27.583C165.962 27.5604 165.25 27.4248 164.538 27.176C163.825 26.9274 163.227 26.5883 162.699 26.1587C162.17 25.7292 161.802 25.2544 161.572 24.7118L163.204 24.011C163.342 24.3502 163.618 24.6667 164.009 24.9605C164.399 25.2544 164.836 25.4805 165.342 25.6614C165.847 25.8422 166.353 25.91 166.836 25.91C167.387 25.91 167.893 25.8196 168.376 25.6388C168.859 25.4579 169.249 25.2092 169.548 24.8701C169.847 24.531 170.008 24.1467 170.008 23.6945C170.008 23.1972 169.847 22.8354 169.525 22.5416C169.203 22.2702 168.789 22.0442 168.307 21.8859C167.801 21.7277 167.296 21.5694 166.79 21.4112C165.824 21.1625 164.997 20.8686 164.261 20.5521C163.526 20.2356 162.975 19.8513 162.561 19.3539C162.147 18.8791 161.94 18.2461 161.94 17.4775C161.94 16.6636 162.17 15.9854 162.63 15.3976C163.089 14.8098 163.71 14.3577 164.445 14.0412C165.204 13.7247 166.008 13.5664 166.859 13.5664C167.962 13.5664 168.95 13.7925 169.87 14.2672C170.766 14.742 171.433 15.3524 171.823 16.1437L170.307 17.0253C170.146 16.6636 169.893 16.3471 169.548 16.0758C169.203 15.8045 168.789 15.6011 168.353 15.4428C167.916 15.2846 167.456 15.2168 166.997 15.1942C166.422 15.1942 165.893 15.2619 165.388 15.4428C164.882 15.6237 164.491 15.8724 164.193 16.2115C163.894 16.5506 163.733 16.9575 163.733 17.4549C163.733 17.9522 163.871 18.314 164.17 18.5626C164.468 18.8113 164.859 19.0148 165.388 19.173C165.893 19.3313 166.468 19.5121 167.112 19.7156C167.939 19.9643 168.698 20.2582 169.41 20.5973C170.123 20.9138 170.72 21.3433 171.157 21.8181C171.593 22.3155 171.823 22.9258 171.801 23.6719C171.801 24.4632 171.547 25.164 171.065 25.7518C170.582 26.3396 169.939 26.7917 169.18 27.1082C168.399 27.47 167.571 27.6056 166.698 27.583Z" fill="white"/>
</g>
<defs>
<clipPath id="clip0_2539_34299">
<rect width="171.864" height="38" fill="white"/>
</clipPath>
</defs>
</svg>
