<svg width="21" height="20" viewBox="0 0 21 20" fill="none" xmlns="http://www.w3.org/2000/svg">
<path d="M20.1045 19.187L14.6664 13.9024L14.79 13.7805C16.1907 12.2764 16.9735 10.2846 16.9735 8.25203C16.9735 3.69919 13.1421 0 8.48674 0C3.7902 0 0 3.69919 0 8.25203C0 12.8049 3.7902 16.5041 8.48674 16.5041C10.423 16.5041 12.3181 15.8537 13.8425 14.6748L13.9661 14.5935L19.4042 19.878C19.4866 19.9594 19.6101 20 19.7337 20C19.8573 20 19.9809 19.9594 20.0633 19.878C20.1457 19.7967 20.1869 19.6748 20.1869 19.5528C20.1869 19.4309 20.1869 19.2683 20.1045 19.187ZM8.48674 0.934959C12.6477 0.934959 15.9847 4.22764 15.9847 8.25203C15.9847 12.2764 12.6065 15.5691 8.48674 15.5691C4.36697 15.5691 0.947549 12.2764 0.947549 8.25203C0.947549 4.18699 4.32577 0.934959 8.48674 0.934959Z" fill="white"/>
<path d="M8.14578 5.0857C7.83209 5.08209 7.53955 5.1344 7.26815 5.24263C6.99676 5.35085 6.77647 5.50056 6.60729 5.69176C6.43811 5.88296 6.35352 6.10482 6.35352 6.35735C6.35352 6.66038 6.43106 6.89306 6.58614 7.0554C6.74475 7.21413 6.95975 7.33318 7.23114 7.41254C7.50254 7.49191 7.80742 7.56225 8.14578 7.62358C8.62512 7.70655 9.06923 7.83823 9.47808 8.0186C9.88693 8.19537 10.2147 8.43166 10.4614 8.72748C10.7117 9.02329 10.8368 9.38765 10.8368 9.82055C10.8368 10.2246 10.7293 10.5817 10.5143 10.892C10.2993 11.2022 10.0138 11.4529 9.65784 11.6441C9.30185 11.8317 8.90886 11.9454 8.47885 11.9851V13.0781H7.82856V11.9851C7.46553 11.9562 7.12188 11.875 6.79762 11.7415C6.47335 11.6081 6.19138 11.4295 5.95171 11.2058C5.71204 10.9786 5.53933 10.7152 5.43359 10.4158L6.26364 10.0965C6.33413 10.2985 6.46454 10.4753 6.65487 10.6268C6.84872 10.7747 7.07606 10.8902 7.33688 10.9731C7.5977 11.0561 7.86733 11.0976 8.14578 11.0976C8.46299 11.0976 8.7573 11.0453 9.02869 10.9407C9.30361 10.8325 9.52566 10.6827 9.69484 10.4915C9.86402 10.3003 9.94861 10.0767 9.94861 9.82055C9.94861 9.5572 9.8605 9.34256 9.68427 9.17661C9.50804 9.00706 9.28246 8.87358 9.00754 8.77618C8.73263 8.67517 8.44537 8.59761 8.14578 8.54349C7.63471 8.45691 7.17651 8.33426 6.77118 8.17553C6.36938 8.01319 6.0504 7.78772 5.81425 7.49912C5.58163 7.21052 5.46532 6.82993 5.46532 6.35735C5.46532 5.95331 5.57282 5.59616 5.78782 5.28592C6.00282 4.97206 6.28831 4.72134 6.6443 4.53375C7.00381 4.34616 7.39856 4.23253 7.82856 4.19284V3.07812H8.47885V4.19284C8.82779 4.22531 9.16263 4.30828 9.48337 4.44176C9.80411 4.57163 10.0861 4.7484 10.3293 4.97206C10.576 5.19573 10.7557 5.46269 10.8685 5.77293L10.0279 6.08678C9.95743 5.88116 9.82525 5.70439 9.6314 5.55648C9.44107 5.40497 9.2155 5.28953 8.95468 5.21016C8.69738 5.12719 8.42775 5.0857 8.14578 5.0857Z" fill="white"/>
</svg>
