<svg width="160" height="160" viewBox="0 0 160 160" fill="none" xmlns="http://www.w3.org/2000/svg">
<path d="M79.9604 3.9V5.252H77.0614V13H75.7094V5.252H72.8169V3.9H79.9604Z" fill="white"/>
<path d="M92.4953 4.85254L94.0379 5.19208L95.3128 14.7906L93.9163 14.4832L93.6722 12.659L89.692 11.7829L88.7109 13.3374L87.308 13.0286L92.4953 4.85254ZM90.4714 10.5701L93.474 11.2311L92.8778 6.77367L90.4714 10.5701Z" fill="white"/>
<path d="M101.69 16.2803L105.511 8.02135L106.738 8.58904L103.485 15.6209L107.042 17.2667L106.474 18.4937L101.69 16.2803Z" fill="white"/>
<path d="M119.872 26.2934L118.475 25.2313L118.586 20.6052L117.741 20.8039L115.877 23.2566L114.801 22.4384L120.308 15.194L121.384 16.0122L119.012 19.1325L123.992 17.9947L125.399 19.0647L119.933 20.3059L119.872 26.2934Z" fill="white"/>
<path d="M146.858 44.1855L145.663 44.8188L144.305 42.2575L137.46 45.8867L136.827 44.6922L143.672 41.063L142.317 38.5074L143.512 37.8741L146.858 44.1855Z" fill="white"/>
<path d="M143.271 59.3203C143.106 58.7274 143.069 58.1375 143.158 57.5506C143.251 56.9626 143.451 56.4123 143.758 55.8997C144.066 55.3872 144.462 54.9422 144.946 54.5649C145.434 54.1864 145.992 53.9102 146.618 53.7363C147.245 53.5624 147.862 53.5122 148.472 53.5858C149.086 53.6583 149.657 53.8349 150.184 54.1156C150.712 54.3963 151.165 54.7652 151.544 55.2222C151.927 55.678 152.2 56.2024 152.365 56.7953C152.531 57.3924 152.567 57.9849 152.474 58.5729C152.385 59.1598 152.187 59.7095 151.88 60.2221C151.572 60.7347 151.174 61.1781 150.684 61.5525C150.2 61.9298 149.644 62.2054 149.018 62.3793C148.392 62.5532 147.772 62.6039 147.158 62.5315C146.549 62.4621 145.981 62.287 145.454 62.0062C144.926 61.7255 144.471 61.3572 144.088 60.9014C143.709 60.4444 143.437 59.9173 143.271 59.3203ZM144.574 58.9586C144.69 59.3761 144.884 59.7427 145.156 60.0585C145.428 60.3742 145.75 60.6287 146.123 60.8219C146.502 61.0182 146.906 61.1397 147.338 61.1864C147.774 61.2361 148.214 61.1995 148.656 61.0766C149.099 60.9537 149.494 60.7584 149.843 60.4908C150.192 60.2273 150.477 59.9146 150.695 59.5525C150.919 59.1935 151.065 58.8091 151.131 58.3995C151.201 57.9887 151.178 57.5746 151.062 57.157C150.946 56.7395 150.752 56.3729 150.48 56.0571C150.208 55.7414 149.883 55.4854 149.505 55.2891C149.132 55.0958 148.727 54.9744 148.291 54.9247C147.859 54.878 147.423 54.9161 146.98 55.039C146.533 55.163 146.135 55.3568 145.785 55.6202C145.441 55.8867 145.157 56.1995 144.933 56.5585C144.714 56.9206 144.569 57.307 144.499 57.7178C144.433 58.1274 144.458 58.541 144.574 58.9586Z" fill="white"/>
<path d="M155.284 88.1315L155.028 89.6902L145.513 91.4829L145.744 90.0717L147.553 89.7292L148.212 85.7074L146.607 84.8119L146.839 83.3944L155.284 88.1315ZM149.465 86.4201L148.968 89.4541L153.386 88.6174L149.465 86.4201Z" fill="white"/>
<path d="M136.424 114.753C136.779 114.229 137.21 113.809 137.717 113.494C138.226 113.184 138.774 112.982 139.361 112.888C139.949 112.8 140.545 112.822 141.147 112.953C141.747 113.087 142.314 113.336 142.848 113.698C143.412 114.08 143.862 114.531 144.199 115.053C144.536 115.575 144.761 116.128 144.873 116.712C144.989 117.298 144.992 117.879 144.885 118.455C144.774 119.035 144.553 119.57 144.219 120.062C143.842 120.618 143.351 121.065 142.745 121.402C142.139 121.74 141.449 121.924 140.675 121.954L140.81 120.585C141.308 120.546 141.756 120.41 142.154 120.177C142.55 119.948 142.87 119.655 143.113 119.296C143.349 118.948 143.501 118.569 143.569 118.16C143.641 117.753 143.631 117.343 143.539 116.93C143.451 116.52 143.284 116.129 143.038 115.758C142.793 115.393 142.472 115.076 142.074 114.806C141.69 114.546 141.284 114.368 140.857 114.272C140.428 114.18 140.005 114.165 139.59 114.229C139.176 114.3 138.792 114.442 138.437 114.657C138.079 114.875 137.779 115.164 137.536 115.522C137.356 115.788 137.226 116.072 137.147 116.374C137.068 116.676 137.036 116.985 137.053 117.3C137.071 117.621 137.138 117.936 137.253 118.244C137.368 118.553 137.531 118.846 137.74 119.124L138.823 117.526L139.813 118.197L137.84 121.108C137.297 120.75 136.855 120.314 136.513 119.8C136.168 119.289 135.93 118.74 135.799 118.153C135.669 117.573 135.654 116.989 135.753 116.403C135.853 115.816 136.076 115.266 136.424 114.753Z" fill="white"/>
<path d="M130.732 123.298L136.99 129.904L134.56 132.206C134.201 132.546 133.795 132.763 133.342 132.858C132.889 132.953 132.437 132.93 131.987 132.79C131.537 132.655 131.14 132.405 130.794 132.04C130.502 131.732 130.293 131.395 130.168 131.03C130.04 130.668 129.995 130.299 130.033 129.923C130.068 129.55 130.18 129.199 130.369 128.87L126.164 127.625L127.301 126.547L131.375 127.747L132.276 126.894L129.75 124.227L130.732 123.298ZM133.206 127.875L131.861 129.149C131.672 129.328 131.545 129.538 131.481 129.778C131.413 130.021 131.408 130.265 131.465 130.509C131.523 130.752 131.646 130.973 131.834 131.172C132.021 131.37 132.235 131.504 132.476 131.575C132.719 131.649 132.962 131.657 133.206 131.6C133.45 131.548 133.666 131.433 133.854 131.254L135.199 129.98L133.206 127.875Z" fill="white"/>
<path d="M122.238 142.567L120.885 143.381L113.358 137.289L114.584 136.552L116.015 137.708L119.507 135.607L119.151 133.804L120.382 133.064L122.238 142.567ZM119.776 137.024L117.141 138.609L120.639 141.435L119.776 137.024Z" fill="white"/>
<path d="M107.704 140.594L110.609 149.217L109.223 149.684L103.137 144.711L105.263 151.019L103.981 151.45L101.076 142.827L102.462 142.36L108.548 147.333L106.422 141.025L107.704 140.594Z" fill="white"/>
<path d="M88.0906 154.929L87.9444 153.585L90.8264 153.271L89.9887 145.569L91.3328 145.423L92.1705 153.125L95.0461 152.813L95.1922 154.157L88.0906 154.929Z" fill="white"/>
<path d="M65.15 144.971L62.2444 153.594L56.8916 151.791L57.3233 150.509L61.3949 151.881L62.0964 149.799L58.8194 148.695L59.2511 147.414L62.5281 148.518L63.4371 145.82L59.3655 144.448L59.7972 143.167L65.15 144.971Z" fill="white"/>
<path d="M51.785 140.466L46.5687 142.668L47.0601 148.244L45.6287 147.382L45.266 143.22L41.4125 144.846L39.9811 143.984L45.1317 141.804L44.6393 136.167L46.0762 137.032L46.4522 141.248L50.3425 139.598L51.785 140.466Z" fill="white"/>
<path d="M39.0828 132.725L32.8247 139.331L30.5502 137.177C30.1947 136.84 29.9572 136.448 29.8378 136.001C29.7153 135.55 29.7106 135.095 29.8239 134.636C29.9339 134.173 30.1603 133.76 30.503 133.399C30.8517 133.031 31.2557 132.781 31.7149 132.649C32.1681 132.517 32.6228 132.5 33.0791 132.598C33.5354 132.696 33.9366 132.909 34.2827 133.237L35.5757 134.461L38.1013 131.795L39.0828 132.725ZM34.6459 135.443L33.452 134.312C33.2633 134.133 33.0471 134.018 32.8035 133.966C32.5568 133.912 32.3134 133.92 32.0731 133.991C31.8298 134.059 31.6142 134.192 31.4265 134.39C31.2387 134.588 31.1175 134.81 31.0629 135.057C31.0022 135.304 31.0072 135.548 31.0781 135.788C31.1429 136.028 31.2696 136.238 31.4584 136.417L32.6523 137.548L34.6459 135.443Z" fill="white"/>
<path d="M28.625 122.703L21.093 127.809L17.9231 123.134L19.0422 122.375L21.4533 125.932L23.2717 124.699L21.3312 121.836L22.4502 121.078L24.3908 123.94L26.7472 122.342L24.3361 118.786L25.4551 118.027L28.625 122.703Z" fill="white"/>
<path d="M20.5663 110.667L12.1126 114.035L10.8736 110.925C10.6907 110.466 10.639 110.009 10.7185 109.553C10.798 109.096 10.9864 108.686 11.2839 108.32C11.5757 107.952 11.955 107.675 12.422 107.489C12.8165 107.331 13.2065 107.262 13.5919 107.281C13.9757 107.296 14.3353 107.391 14.6706 107.565C15.0043 107.735 15.2888 107.97 15.5242 108.268L18.2374 104.822L18.8172 106.277L16.1947 109.617L16.6542 110.77L20.0659 109.411L20.5663 110.667ZM15.3982 111.271L14.7126 109.55C14.6163 109.308 14.4685 109.113 14.2692 108.964C14.0682 108.81 13.8438 108.716 13.596 108.679C13.3482 108.642 13.0975 108.675 12.8439 108.776C12.5903 108.877 12.3861 109.026 12.2314 109.223C12.0726 109.421 11.9749 109.644 11.9384 109.892C11.8962 110.138 11.9232 110.381 12.0195 110.623L12.7051 112.344L15.3982 111.271Z" fill="white"/>
<path d="M5.18888 91.8583L6.52307 91.6395L6.99208 94.5003L14.638 93.2469L14.8567 94.581L7.21081 95.8345L7.67876 98.6889L6.34457 98.9077L5.18888 91.8583Z" fill="white"/>
<path d="M6.9643 59.3447L8.26702 59.7064L7.49145 62.4998L14.957 64.5726L14.5953 65.8753L7.12976 63.8025L6.35593 66.5896L5.05321 66.2279L6.9643 59.3447Z" fill="white"/>
<path d="M19.9764 50.8246C19.6882 51.3683 19.31 51.8226 18.8419 52.1875C18.37 52.5503 17.8461 52.8121 17.2705 52.9729C16.6948 53.1336 16.1014 53.1844 15.4902 53.1252C14.8752 53.064 14.2806 52.8812 13.7063 52.5767C13.132 52.2723 12.6489 51.8837 12.257 51.4111C11.8612 50.9364 11.5683 50.4157 11.3783 49.849C11.1883 49.2824 11.1129 48.7029 11.1523 48.1107C11.1877 47.5164 11.3496 46.9474 11.6378 46.4038C11.9281 45.8563 12.3092 45.4011 12.7811 45.0382C13.2493 44.6733 13.7712 44.4105 14.3469 44.2498C14.9225 44.0891 15.5169 44.0412 16.1298 44.1062C16.7409 44.1654 17.3337 44.3472 17.9079 44.6516C18.4822 44.9561 18.9672 45.3457 19.363 45.8204C19.757 46.2892 20.049 46.8069 20.239 47.3736C20.429 47.9403 20.5063 48.5208 20.4708 49.115C20.4315 49.7073 20.2667 50.2771 19.9764 50.8246ZM18.7819 50.1913C18.9849 49.8085 19.0962 49.4089 19.1158 48.9926C19.1354 48.5763 19.0763 48.1697 18.9384 47.7729C18.7988 47.3703 18.5885 47.0037 18.3075 46.6733C18.0248 46.337 17.6805 46.0613 17.2747 45.8462C16.8688 45.631 16.4474 45.5008 16.0104 45.4555C15.5754 45.4063 15.154 45.4379 14.7462 45.5503C14.3366 45.6569 13.9669 45.8361 13.6372 46.088C13.3036 46.3379 13.0353 46.6542 12.8323 47.0371C12.6294 47.4199 12.5181 47.8195 12.4985 48.2358C12.4788 48.6521 12.5389 49.0616 12.6785 49.4642C12.8164 49.861 13.0267 50.2276 13.3094 50.5639C13.5904 50.8943 13.9338 51.1671 14.3396 51.3822C14.7493 51.5994 15.1716 51.7326 15.6066 51.7817C16.0398 51.825 16.4612 51.7934 16.8708 51.6868C17.2786 51.5744 17.6493 51.3933 17.9829 51.1435C18.3126 50.8916 18.5789 50.5742 18.7819 50.1913Z" fill="white"/>
<path d="M24.708 41.72L17.7723 35.8288L19.7206 33.535C20.1274 33.0561 20.5997 32.6841 21.1377 32.419C21.6723 32.151 22.2345 31.9946 22.8241 31.9496C23.4105 31.9019 23.9891 31.967 24.5601 32.1449C25.1305 32.3167 25.6552 32.606 26.1341 33.0128C26.613 33.4196 26.985 33.8919 27.2501 34.4299C27.5148 34.9617 27.6726 35.5222 27.7237 36.1113C27.7714 36.6977 27.708 37.2778 27.5334 37.8515C27.3554 38.4224 27.0631 38.9474 26.6563 39.4262L24.708 41.72ZM24.5528 39.8143L25.6259 38.551C25.912 38.2141 26.1158 37.847 26.2371 37.4498C26.3613 37.0493 26.4065 36.6413 26.3727 36.226C26.3416 35.8073 26.2325 35.4104 26.0451 35.0352C25.8578 34.6601 25.5957 34.3294 25.2588 34.0432C24.9219 33.7571 24.5532 33.5519 24.1527 33.4278C23.7521 33.3036 23.3428 33.2601 22.9246 33.2972C22.5093 33.331 22.114 33.4416 21.7388 33.6289C21.3665 33.813 21.0372 34.0734 20.7511 34.4103L19.678 35.6736L24.5528 39.8143Z" fill="white"/>
<path d="M31.0692 21.6453L32.3266 20.6894L40.4675 25.9316L39.3291 26.797L37.7808 25.8021L34.5364 28.2685L35.086 30.0226L33.9424 30.8919L31.0692 21.6453ZM34.1166 26.8893L36.5642 25.0287L32.781 22.5975L34.1166 26.8893Z" fill="white"/>
<path d="M46.9715 11.4357L48.4168 10.7671L47.693 16.6023L49.4179 20.3306L48.1909 20.8983L46.466 17.17L41.556 13.9412L43.0013 13.2725L46.46 15.547L46.9715 11.4357Z" fill="white"/>
</svg>
