<svg width="11" height="10" viewBox="0 0 11 10" fill="none" xmlns="http://www.w3.org/2000/svg">
<path d="M10.1885 9.5935L7.46944 6.95122L7.53123 6.89024C8.2316 6.13821 8.62298 5.14228 8.62298 4.12602C8.62298 1.84959 6.70728 0 4.3796 0C2.03133 0 0.13623 1.84959 0.13623 4.12602C0.13623 6.40244 2.03133 8.25203 4.3796 8.25203C5.34775 8.25203 6.2953 7.92683 7.05746 7.3374L7.11926 7.29675L9.83831 9.93902C9.87951 9.97968 9.94131 10 10.0031 10C10.0649 10 10.1267 9.97968 10.1679 9.93902C10.2091 9.89837 10.2297 9.8374 10.2297 9.77642C10.2297 9.71545 10.2297 9.63415 10.1885 9.5935ZM4.3796 0.46748C6.46009 0.46748 8.1286 2.11382 8.1286 4.12602C8.1286 6.13821 6.43949 7.78455 4.3796 7.78455C2.31971 7.78455 0.610005 6.13821 0.610005 4.12602C0.610005 2.0935 2.29911 0.46748 4.3796 0.46748Z" fill="white"/>
<path d="M4.20961 2.54285C4.05276 2.54105 3.90649 2.5672 3.77079 2.62131C3.6351 2.67543 3.52495 2.75028 3.44036 2.84588C3.35577 2.94148 3.31348 3.05241 3.31348 3.17867C3.31348 3.33019 3.35225 3.44653 3.42979 3.5277C3.50909 3.60706 3.61659 3.66659 3.75229 3.70627C3.88799 3.74595 4.04043 3.78113 4.20961 3.81179C4.44928 3.85328 4.67133 3.91911 4.87576 4.0093C5.08019 4.09769 5.24408 4.21583 5.36744 4.36374C5.49256 4.51165 5.55513 4.69383 5.55513 4.91028C5.55513 5.1123 5.50138 5.29087 5.39388 5.44599C5.28638 5.60111 5.14363 5.72647 4.96564 5.82207C4.78764 5.91587 4.59115 5.97269 4.37615 5.99253V6.53906H4.051V5.99253C3.86948 5.9781 3.69766 5.93751 3.53553 5.87077C3.3734 5.80404 3.23241 5.71475 3.11257 5.60292C2.99274 5.48928 2.90638 5.35761 2.85352 5.20789L3.26854 5.04826C3.30378 5.14927 3.36899 5.23766 3.46415 5.31341C3.56108 5.38737 3.67475 5.44509 3.80516 5.48657C3.93557 5.52806 4.07039 5.5488 4.20961 5.5488C4.36822 5.5488 4.51537 5.52265 4.65107 5.47034C4.78852 5.41623 4.89955 5.34137 4.98414 5.24577C5.06873 5.15017 5.11103 5.03834 5.11103 4.91028C5.11103 4.7786 5.06697 4.67128 4.97885 4.58831C4.89074 4.50353 4.77795 4.43679 4.64049 4.38809C4.50303 4.33758 4.3594 4.2988 4.20961 4.27175C3.95407 4.22846 3.72497 4.16713 3.52231 4.08776C3.32141 4.0066 3.16192 3.89386 3.04384 3.74956C2.92753 3.60526 2.86938 3.41496 2.86938 3.17867C2.86938 2.97665 2.92313 2.79808 3.03063 2.64296C3.13813 2.48603 3.28087 2.36067 3.45887 2.26688C3.63862 2.17308 3.836 2.11626 4.051 2.09642V1.53906H4.37615V2.09642C4.55061 2.11266 4.71803 2.15414 4.8784 2.22088C5.03877 2.28582 5.17976 2.3742 5.30135 2.48603C5.42472 2.59787 5.51459 2.73134 5.57099 2.88647L5.15068 3.04339C5.11543 2.94058 5.04935 2.85219 4.95242 2.77824C4.85725 2.70248 4.74447 2.64476 4.61406 2.60508C4.48541 2.56359 4.35059 2.54285 4.20961 2.54285Z" fill="white"/>
</svg>
