<svg width="21" height="20" viewBox="0 0 21 20" fill="none" xmlns="http://www.w3.org/2000/svg">
<path d="M20.1045 19.187L14.6664 13.9024L14.79 13.7805C16.1907 12.2764 16.9735 10.2846 16.9735 8.25203C16.9735 3.69919 13.1421 0 8.48674 0C3.7902 0 0 3.69919 0 8.25203C0 12.8049 3.7902 16.5041 8.48674 16.5041C10.423 16.5041 12.3181 15.8537 13.8425 14.6748L13.9661 14.5935L19.4042 19.878C19.4866 19.9594 19.6101 20 19.7337 20C19.8573 20 19.9809 19.9594 20.0633 19.878C20.1457 19.7967 20.1869 19.6748 20.1869 19.5528C20.1869 19.4309 20.1869 19.2683 20.1045 19.187ZM8.48674 0.934959C12.6477 0.934959 15.9847 4.22764 15.9847 8.25203C15.9847 12.2764 12.6065 15.5691 8.48674 15.5691C4.36697 15.5691 0.947549 12.2764 0.947549 8.25203C0.947549 4.18699 4.32577 0.934959 8.48674 0.934959Z" fill="white"/>
<path d="M8.14578 5.08472C7.83209 5.08112 7.53955 5.13343 7.26815 5.24165C6.99676 5.34988 6.77647 5.49959 6.60729 5.69079C6.43811 5.88198 6.35352 6.10384 6.35352 6.35637C6.35352 6.6594 6.43106 6.89208 6.58614 7.05442C6.74475 7.21315 6.95975 7.3322 7.23114 7.41156C7.50254 7.49093 7.80742 7.56128 8.14578 7.6226C8.62512 7.70558 9.06923 7.83725 9.47808 8.01763C9.88693 8.19439 10.2147 8.43069 10.4614 8.7265C10.7117 9.02232 10.8368 9.38667 10.8368 9.81957C10.8368 10.2236 10.7293 10.5808 10.5143 10.891C10.2993 11.2012 10.0138 11.452 9.65784 11.6432C9.30185 11.8308 8.90886 11.9444 8.47885 11.9841V13.0772H7.82856V11.9841C7.46553 11.9552 7.12188 11.874 6.79762 11.7406C6.47335 11.6071 6.19138 11.4285 5.95171 11.2049C5.71204 10.9776 5.53933 10.7142 5.43359 10.4148L6.26364 10.0955C6.33413 10.2976 6.46454 10.4743 6.65487 10.6259C6.84872 10.7738 7.07606 10.8892 7.33688 10.9722C7.5977 11.0551 7.86733 11.0966 8.14578 11.0966C8.46299 11.0966 8.7573 11.0443 9.02869 10.9397C9.30361 10.8315 9.52566 10.6818 9.69484 10.4906C9.86402 10.2994 9.94861 10.0757 9.94861 9.81957C9.94861 9.55623 9.8605 9.34158 9.68427 9.17563C9.50804 9.00608 9.28246 8.8726 9.00754 8.7752C8.73263 8.67419 8.44537 8.59663 8.14578 8.54252C7.63471 8.45594 7.17651 8.33328 6.77118 8.17455C6.36938 8.01221 6.0504 7.78675 5.81425 7.49815C5.58163 7.20954 5.46532 6.82895 5.46532 6.35637C5.46532 5.95233 5.57282 5.59519 5.78782 5.28494C6.00282 4.97109 6.28831 4.72037 6.6443 4.53278C7.00381 4.34519 7.39856 4.23155 7.82856 4.19187V3.07715H8.47885V4.19187C8.82779 4.22433 9.16263 4.30731 9.48337 4.44078C9.80411 4.57066 10.0861 4.74742 10.3293 4.97109C10.576 5.19475 10.7557 5.46171 10.8685 5.77195L10.0279 6.08581C9.95743 5.88018 9.82525 5.70341 9.6314 5.5555C9.44107 5.40399 9.2155 5.28855 8.95468 5.20918C8.69738 5.12621 8.42775 5.08472 8.14578 5.08472Z" fill="white"/>
</svg>
