<svg width="26" height="30" viewBox="0 0 26 30" fill="none" xmlns="http://www.w3.org/2000/svg">
<g clip-path="url(#clip0_2990_2297)">
<path d="M11.2488 29.9586C13.228 29.9586 14.9056 28.6809 15.5211 26.9043H6.97656C7.59205 28.6809 9.26956 29.9586 11.2488 29.9586Z" fill="#F60656"/>
<path d="M20.6372 20.9783C18.9959 20.9783 18.2839 19.6398 18.2839 17.985V14.2614C18.2839 10.8909 15.9184 8.09217 12.7806 7.43507V6.18173C12.7806 5.65851 12.3582 5.22046 11.8272 5.22046H10.91C10.391 5.22046 9.95657 5.64636 9.95657 6.18173V7.42292C6.80665 8.07997 4.4533 10.8909 4.4533 14.2493V17.9727C4.4533 19.6276 3.74125 20.9661 2.09993 20.9661C0.941348 20.9661 0 21.9153 0 23.0834V23.1077C0 24.2881 0.953415 25.2494 2.12407 25.2494H20.6372C21.7958 25.2494 22.7372 24.3003 22.7372 23.1321V23.0712C22.7372 21.9153 21.7958 20.9783 20.6372 20.9783ZM15.5322 18.8245C15.5322 19.4208 15.4115 19.9562 15.1702 20.4429C14.9288 20.9296 14.603 21.3312 14.1926 21.6841C13.7823 22.0248 13.2996 22.2925 12.7685 22.475C12.2375 22.6575 11.6703 22.7549 11.0669 22.7549C10.4997 22.7549 9.95657 22.6454 9.43759 22.4142C8.91866 22.1951 8.46004 21.8787 8.06178 21.4894C7.66353 21.1 7.34974 20.6498 7.12043 20.1387L9.13589 19.2139C9.24453 19.4816 9.4014 19.7128 9.59451 19.9075C9.78762 20.1022 10.0169 20.2482 10.2704 20.3577C10.5238 20.4672 10.7893 20.5159 11.0548 20.5159C11.3445 20.5159 11.6341 20.4794 11.8996 20.4064C12.1651 20.3334 12.4065 20.2361 12.6237 20.09C12.8409 19.9562 13.0099 19.7737 13.1306 19.5668C13.2513 19.3599 13.3116 19.1166 13.3116 18.8367V17.8876C13.0703 18.1918 12.7685 18.4473 12.4186 18.6299C12.0685 18.8245 11.6703 18.9219 11.2117 18.9219C10.6324 18.9219 10.1014 18.8123 9.59451 18.5933C9.08761 18.3743 8.64107 18.0701 8.26698 17.6807C7.88075 17.2913 7.57905 16.8411 7.36182 16.3301C7.1446 15.819 7.03596 15.2714 7.03596 14.6873C7.03596 14.1033 7.1446 13.5557 7.36182 13.0446C7.57905 12.5335 7.88075 12.0833 8.26698 11.694C8.65316 11.3046 9.09969 11.0003 9.59451 10.7813C10.1014 10.5623 10.6445 10.4528 11.2117 10.4528C11.6703 10.4528 12.0685 10.5501 12.4186 10.7448C12.7685 10.9395 13.0703 11.1829 13.3116 11.4871L15.5202 10.6597V18.8245H15.5322Z" fill="#F60656"/>
<path d="M12.2377 12.8499C11.9481 12.6674 11.6222 12.5701 11.2481 12.5701C10.886 12.5701 10.5602 12.6674 10.2705 12.8499C9.96882 13.0325 9.73951 13.288 9.55847 13.6165C9.37744 13.9329 9.29297 14.2858 9.29297 14.6752C9.29297 15.0645 9.37744 15.4174 9.55847 15.7338C9.73951 16.0502 9.96882 16.3057 10.2705 16.5004C10.5722 16.6829 10.8981 16.7803 11.2481 16.7803C11.6101 16.7803 11.936 16.6829 12.2377 16.4882C12.5274 16.2935 12.7566 16.038 12.9256 15.7216C13.0946 15.4053 13.1791 15.0524 13.1791 14.663C13.1791 14.2736 13.0946 13.9207 12.9256 13.6044C12.7687 13.288 12.5274 13.0446 12.2377 12.8499Z" fill="#F60656"/>
<path d="M14.9648 6.51017C15.4959 6.30332 16.0993 6.25461 16.6786 6.37628C17.2579 6.49801 17.8251 6.79003 18.2596 7.21593C18.7061 7.64183 19.0078 8.20156 19.1526 8.78564C19.2854 9.36968 19.2613 9.97812 19.0682 10.5257C18.9596 9.96591 18.8268 9.44269 18.6216 8.96813C18.4165 8.49357 18.1268 8.07988 17.7648 7.73915C17.4148 7.39842 16.9924 7.11856 16.5097 6.92386C16.051 6.71701 15.5321 6.59534 14.9648 6.51017Z" fill="#F60656"/>
<path d="M15.1816 4.50266C15.954 4.30797 16.7747 4.32014 17.5712 4.53917C18.3678 4.74603 19.116 5.17192 19.7074 5.75601C20.3108 6.34009 20.7452 7.08231 20.9745 7.88545C21.2039 8.67638 21.228 9.51597 21.047 10.2948C20.9263 9.50382 20.7452 8.76155 20.4435 8.08014C20.1418 7.39868 19.7315 6.79029 19.2126 6.27923C18.6936 5.76816 18.0781 5.36662 17.3902 5.07457C16.7144 4.78253 15.9661 4.61218 15.1816 4.50266Z" fill="#F60656"/>
<path d="M15.4121 2.42216C16.4259 2.23964 17.4879 2.31265 18.5017 2.61685C19.5154 2.92106 20.4689 3.4808 21.2292 4.23523C21.9895 4.98966 22.5688 5.9388 22.8826 6.94873C23.2084 7.95871 23.2808 9.04166 23.1239 10.0638C22.9912 9.04166 22.7498 8.05604 22.3636 7.15558C21.9653 6.25517 21.4222 5.43988 20.7344 4.75846C20.0464 4.07704 19.2258 3.54164 18.3206 3.15225C17.4155 2.76287 16.4379 2.54384 15.4121 2.42216Z" fill="#F60656"/>
<path d="M15.459 0.0855579C16.7744 -0.0969656 18.1382 0.0125485 19.4295 0.4141C20.0812 0.608791 20.6968 0.900829 21.2881 1.25371C21.8795 1.60659 22.4226 2.03247 22.9053 2.5192C23.388 3.00593 23.8225 3.54133 24.1845 4.12541C24.5345 4.70949 24.8363 5.33008 25.0535 5.98714C25.4879 7.28914 25.6086 8.66415 25.4397 9.99051C25.3069 8.66415 25.0293 7.37431 24.5225 6.18183C24.269 5.58559 23.9794 5.01369 23.6173 4.49046C23.2673 3.95505 22.857 3.46833 22.4105 3.0181C21.9639 2.56788 21.4691 2.16633 20.9381 1.82561C20.4071 1.47274 19.8399 1.19287 19.2485 0.937332C18.0658 0.462773 16.7865 0.20724 15.459 0.0855579Z" fill="#F60656"/>
</g>
<defs>
<clipPath id="clip0_2990_2297">
<rect width="26" height="30" fill="white"/>
</clipPath>
</defs>
</svg>
