<svg width="40" height="40" viewBox="0 0 40 40" fill="none" xmlns="http://www.w3.org/2000/svg">
<circle cx="20" cy="20" r="19.5" stroke="#232323"/>
<path d="M18.0186 22.3171C18.0499 22.2861 18.0747 22.2493 18.0916 22.2087C18.1085 22.168 18.1172 22.1245 18.1172 22.0805C18.1172 22.0365 18.1085 21.9929 18.0916 21.9523C18.0747 21.9117 18.0499 21.8748 18.0186 21.8438L16.4853 20.3105L24.3353 20.3105C24.4237 20.3105 24.5085 20.2753 24.571 20.2128C24.6335 20.1503 24.6686 20.0655 24.6686 19.9771C24.6686 19.8887 24.6335 19.8039 24.571 19.7414C24.5085 19.6789 24.4237 19.6438 24.3353 19.6438L16.4953 19.6438L18.0186 18.1205C18.0732 18.0567 18.1018 17.9747 18.0985 17.8908C18.0953 17.8069 18.0605 17.7273 18.0011 17.6679C17.9418 17.6086 17.8622 17.5738 17.7783 17.5706C17.6944 17.5673 17.6124 17.5959 17.5486 17.6505L15.4253 19.7705C15.3693 19.8267 15.3379 19.9028 15.3379 19.9821C15.3379 20.0615 15.3693 20.1376 15.4253 20.1938L17.5486 22.3171C17.6111 22.3792 17.6956 22.4141 17.7836 22.4141C17.8717 22.4141 17.9562 22.3792 18.0186 22.3171Z" fill="#232323"/>
</svg>
