<svg width="29" height="30" viewBox="0 0 29 30" fill="none" xmlns="http://www.w3.org/2000/svg">
<path d="M28.4435 14.4225C28.3702 14.4224 28.2977 14.4373 28.23 14.4663C28.1623 14.4953 28.1008 14.5378 28.049 14.5914C27.9973 14.645 27.9562 14.7086 27.9282 14.7786C27.9001 14.8486 27.8857 14.9236 27.8857 14.9994C27.8859 18.1398 26.8541 21.1871 24.9598 23.641C23.0654 26.095 20.4209 27.81 17.4604 28.5045C14.4998 29.1991 11.3989 28.8319 8.66656 27.4634C5.93423 26.0948 3.73274 23.8061 2.42334 20.9728C1.11394 18.1395 0.774409 14.9299 1.46046 11.8707C2.14651 8.81149 3.8174 6.08439 6.19894 4.13688C8.58047 2.18938 11.5312 1.13715 14.5669 1.15286C17.6026 1.16857 20.543 2.25129 22.9056 4.22335H20.5538C20.4058 4.22335 20.264 4.28414 20.1594 4.39233C20.0548 4.50053 19.996 4.64728 19.996 4.8003C19.996 4.95331 20.0548 5.10006 20.1594 5.20826C20.264 5.31646 20.4058 5.37724 20.5538 5.37724H24.3597C24.5075 5.37665 24.649 5.31568 24.7535 5.20761C24.8579 5.09954 24.9169 4.95313 24.9174 4.8003V0.863092C24.9174 0.710076 24.8587 0.563327 24.7541 0.455129C24.6495 0.346931 24.5076 0.286145 24.3597 0.286145C24.2118 0.286145 24.07 0.346931 23.9654 0.455129C23.8608 0.563327 23.802 0.710076 23.802 0.863092V3.49371C20.9377 1.01552 17.2595 -0.223994 13.5338 0.0333476C9.80799 0.290689 6.32181 2.02505 3.80137 4.87517C1.28093 7.72529 -0.0794486 11.4714 0.0035896 15.3333C0.0866278 19.1952 1.60668 22.8751 4.24713 25.6064C6.27508 27.7043 8.85883 29.133 11.6717 29.7118C14.4845 30.2906 17.4001 29.9935 20.0497 28.8581C22.6994 27.7228 24.964 25.8001 26.5574 23.3333C28.1507 20.8665 29.0012 17.9662 29.0012 14.9994C29.0012 14.9236 28.9868 14.8486 28.9588 14.7786C28.9307 14.7086 28.8897 14.645 28.8379 14.5914C28.7861 14.5378 28.7246 14.4953 28.6569 14.4663C28.5892 14.4373 28.5167 14.4224 28.4435 14.4225Z" fill="white"/>
<path d="M17.5805 10.8581L14.7387 18.935C14.7134 19.0062 14.702 19.0819 14.7051 19.1577C14.7081 19.2335 14.7256 19.3079 14.7566 19.3767C14.7875 19.4455 14.8312 19.5073 14.8852 19.5586C14.9393 19.6099 15.0026 19.6496 15.0715 19.6756C15.1404 19.7015 15.2136 19.7131 15.2869 19.7098C15.3601 19.7064 15.432 19.6881 15.4984 19.6559C15.5649 19.6238 15.6245 19.5784 15.6739 19.5224C15.7234 19.4663 15.7616 19.4007 15.7865 19.3294L18.6284 11.2525C18.6789 11.1087 18.6722 10.9501 18.6097 10.8115C18.5472 10.6728 18.434 10.5656 18.2951 10.5133C18.1561 10.461 18.0028 10.4679 17.8688 10.5326C17.7348 10.5972 17.6311 10.7143 17.5805 10.8581Z" fill="white"/>
<path d="M9.79308 13.9555C9.79381 13.6756 9.74087 13.3983 9.63734 13.1398C9.53381 12.8812 9.38173 12.6464 9.18991 12.449C8.41165 11.6433 7.05554 11.6433 6.27728 12.449C6.08537 12.6463 5.93322 12.8811 5.82964 13.1397C5.72606 13.3983 5.6731 13.6756 5.67384 13.9555C5.67384 14.1085 5.73259 14.2553 5.83718 14.3635C5.94177 14.4717 6.08362 14.5324 6.23153 14.5324C6.37944 14.5324 6.52129 14.4717 6.62588 14.3635C6.73046 14.2553 6.78922 14.1085 6.78922 13.9555C6.78893 13.8272 6.81323 13.7001 6.86072 13.5815C6.90821 13.4629 6.97794 13.3553 7.06589 13.2648C7.24565 13.0869 7.48483 12.9876 7.7336 12.9876C7.98237 12.9876 8.22154 13.0869 8.4013 13.2648C8.57828 13.4479 8.6777 13.6963 8.6777 13.9552C8.6777 14.2142 8.57828 14.4625 8.4013 14.6457L5.83723 17.2982C5.75922 17.3788 5.7061 17.4816 5.68457 17.5935C5.66305 17.7055 5.67409 17.8215 5.71629 17.9269C5.7585 18.0323 5.82998 18.1224 5.92169 18.1858C6.0134 18.2492 6.12123 18.283 6.23153 18.283H9.2354C9.38331 18.283 9.52516 18.2222 9.62975 18.114C9.73433 18.0058 9.79309 17.8591 9.79309 17.7061C9.79309 17.5531 9.73433 17.4063 9.62975 17.2981C9.52516 17.1899 9.38331 17.1292 9.2354 17.1292H7.57783L9.18991 15.4615C9.38172 15.2642 9.5338 15.0295 9.63733 14.771C9.74087 14.5125 9.79381 14.2353 9.79308 13.9555Z" fill="white"/>
<path d="M12.9726 18.2834C13.0458 18.2835 13.1183 18.2686 13.186 18.2396C13.2537 18.2106 13.3152 18.1681 13.367 18.1145C13.4188 18.0609 13.4598 17.9973 13.4879 17.9273C13.5159 17.8573 13.5303 17.7823 13.5303 17.7065V16.8462H13.8181C13.966 16.8462 14.1079 16.7854 14.2125 16.6772C14.317 16.569 14.3758 16.4223 14.3758 16.2693C14.3758 16.1163 14.317 15.9695 14.2125 15.8613C14.1079 15.7531 13.966 15.6923 13.8181 15.6923H13.5303V12.4021C13.5302 12.2779 13.4915 12.157 13.4197 12.0575C13.348 11.9579 13.2471 11.8849 13.1321 11.8494C13.0171 11.8138 12.8941 11.8176 12.7813 11.8601C12.6685 11.9026 12.572 11.9817 12.5061 12.0854L10.0548 15.9526C9.99959 16.0397 9.96818 16.1405 9.96389 16.2445C9.95959 16.3485 9.98257 16.4518 10.0304 16.5433C10.0782 16.6349 10.1491 16.7114 10.2355 16.7647C10.3219 16.818 10.4206 16.8462 10.5212 16.8462H12.4149V17.7065C12.4149 17.7823 12.4293 17.8573 12.4573 17.9273C12.4853 17.9973 12.5264 18.0609 12.5782 18.1145C12.63 18.1681 12.6915 18.2106 12.7591 18.2396C12.8268 18.2686 12.8993 18.2835 12.9726 18.2834ZM11.5538 15.6923L12.4149 14.334V15.6923H11.5538Z" fill="white"/>
<path d="M20.5633 17.7056C20.5633 17.8586 20.6221 18.0054 20.7267 18.1136C20.8313 18.2218 20.9731 18.2825 21.121 18.2825C21.2689 18.2825 21.4108 18.2218 21.5154 18.1136C21.62 18.0054 21.6787 17.8586 21.6787 17.7056V16.5179C21.677 15.8289 21.8073 15.1463 22.0623 14.5096C22.3172 13.873 22.6916 13.295 23.1639 12.809C23.2419 12.7284 23.295 12.6256 23.3165 12.5137C23.3381 12.4018 23.327 12.2858 23.2848 12.1803C23.2426 12.0749 23.1711 11.9848 23.0794 11.9214C22.9877 11.858 22.8799 11.8242 22.7696 11.8242H19.4727C19.3248 11.8242 19.183 11.885 19.0784 11.9932C18.9738 12.1014 18.915 12.2481 18.915 12.4011C18.915 12.5542 18.9738 12.7009 19.0784 12.8091C19.183 12.9173 19.3248 12.9781 19.4727 12.9781H21.5938C20.9187 14.0263 20.5601 15.2584 20.5633 16.5179V17.7056Z" fill="white"/>
</svg>
