<svg width="30" height="30" viewBox="0 0 30 30" fill="none" xmlns="http://www.w3.org/2000/svg">
<g clip-path="url(#clip0_2539_34964)">
<path d="M27.2692 -0.0429688H2.73039C1.20034 -0.0429688 -0.0444336 1.17875 -0.0444336 2.68047V28.9414C-0.0444336 29.1437 0.0692339 29.3297 0.251993 29.4237C0.433638 29.5178 0.654287 29.508 0.824788 29.3942L3.57732 27.5688L6.3254 29.3942C6.51373 29.5189 6.76113 29.5189 6.95057 29.3942L9.70199 27.5688L12.4579 29.3953C12.6462 29.52 12.8925 29.52 13.0819 29.3953L15.8333 27.5698L18.5915 29.3964C18.7798 29.5211 19.0261 29.5211 19.2144 29.3964L21.9781 27.5698L24.7418 29.3964C24.9134 29.5102 25.1329 29.5211 25.3146 29.4259C25.4962 29.3308 25.6099 29.1459 25.6099 28.9436V11.7072L26.4133 11.1767L29.177 13.0033C29.3475 13.117 29.5682 13.1269 29.7498 13.0328C29.9315 12.9377 30.0451 12.7528 30.0451 12.5505V2.68047C30.044 1.17875 28.7992 -0.0429688 27.2692 -0.0429688ZM24.4944 2.68047V27.9133L22.2879 26.4553C22.0995 26.3306 21.8533 26.3306 21.6649 26.4553L18.9013 28.2819L16.142 26.4553C15.9537 26.3306 15.7063 26.3306 15.518 26.4553L12.7677 28.2808L10.0118 26.4542C9.82346 26.3295 9.57718 26.3295 9.38774 26.4542L6.63632 28.2797L3.88935 26.4553C3.70102 26.3306 3.45363 26.3306 3.2653 26.4553L1.06995 27.9122V2.68047C1.06995 1.78141 1.81436 1.05078 2.73039 1.05078H25.0471C24.7005 1.50578 24.4944 2.07016 24.4944 2.68047ZM28.9296 11.5223L26.7231 10.0644C26.5359 9.93969 26.2885 9.93969 26.1002 10.0644L25.6088 10.3892V2.68047C25.6088 1.78141 26.3532 1.05078 27.2692 1.05078C28.1852 1.05078 28.9296 1.78141 28.9296 2.68047V11.5223Z" fill="white"/>
<path d="M4.47223 6.95801H21.0922C21.3998 6.95801 21.6494 6.71301 21.6494 6.41113C21.6494 6.10926 21.3998 5.86426 21.0922 5.86426H4.47223C4.16466 5.86426 3.91504 6.10926 3.91504 6.41113C3.91504 6.71301 4.16466 6.95801 4.47223 6.95801Z" fill="white"/>
<path d="M4.47223 11.7305H21.0922C21.3998 11.7305 21.6494 11.4855 21.6494 11.1836C21.6494 10.8817 21.3998 10.6367 21.0922 10.6367H4.47223C4.16466 10.6367 3.91504 10.8817 3.91504 11.1836C3.91504 11.4855 4.16466 11.7305 4.47223 11.7305Z" fill="white"/>
<path d="M4.47223 16.5029H21.0922C21.3998 16.5029 21.6494 16.2579 21.6494 15.9561C21.6494 15.6542 21.3998 15.4092 21.0922 15.4092H4.47223C4.16466 15.4092 3.91504 15.6542 3.91504 15.9561C3.91504 16.2579 4.16466 16.5029 4.47223 16.5029Z" fill="white"/>
<path d="M4.47223 21.2754H21.0922C21.3998 21.2754 21.6494 21.0304 21.6494 20.7285C21.6494 20.4266 21.3998 20.1816 21.0922 20.1816H4.47223C4.16466 20.1816 3.91504 20.4266 3.91504 20.7285C3.91504 21.0304 4.16466 21.2754 4.47223 21.2754Z" fill="white"/>
</g>
<defs>
<clipPath id="clip0_2539_34964">
<rect width="30" height="30" fill="white"/>
</clipPath>
</defs>
</svg>
