<svg width="30" height="30" viewBox="0 0 30 30" fill="none" xmlns="http://www.w3.org/2000/svg">
<path d="M19.5091 11.0133L9.63981 18.8564C9.44373 19.0198 9.37837 19.3466 9.57445 19.5427C9.67249 19.6734 9.8032 19.7387 9.9666 19.7387C10.0646 19.7387 10.1954 19.7061 10.2607 19.6407L20.13 11.7976C20.3261 11.6342 20.3914 11.3074 20.1954 11.1113C20.032 10.8825 19.7378 10.8499 19.5091 11.0133Z" fill="white"/>
<path d="M12.2869 14.5088C12.4176 14.5088 12.5483 14.5088 12.679 14.4761C14.0189 14.28 14.9666 13.0055 14.7379 11.633C14.6398 10.9794 14.2803 10.3911 13.7575 9.99898C13.2346 9.60682 12.581 9.44343 11.9274 9.54146C11.2738 9.6395 10.6856 9.99898 10.2934 10.5219C9.90126 11.0447 9.73786 11.6983 9.8359 12.3519C10.032 13.6264 11.1104 14.5088 12.2869 14.5088ZM12.0581 10.5545C12.1235 10.5545 12.2215 10.5219 12.2869 10.5219C13.0058 10.5219 13.6594 11.0447 13.7575 11.7964C13.8882 12.6134 13.3326 13.365 12.5156 13.4957C11.6986 13.6264 10.947 13.0709 10.8163 12.2539C10.6856 11.4369 11.2738 10.6853 12.0581 10.5545Z" fill="white"/>
<path d="M17.5174 16.1436C16.1448 16.1436 15.0337 17.2547 15.0337 18.6272C15.0337 19.9998 16.1448 21.1109 17.5174 21.1109C18.8899 21.1109 20.001 19.9998 20.001 18.6272C19.9683 17.2547 18.8572 16.1436 17.5174 16.1436ZM17.5174 20.0978C16.7004 20.0978 16.0141 19.4115 16.0141 18.5945C16.0141 17.7775 16.7004 17.0913 17.5174 17.0913C18.3343 17.0913 19.0206 17.7775 19.0206 18.5945C18.9879 19.4442 18.3343 20.0978 17.5174 20.0978Z" fill="white"/>
<path d="M29.7386 15C29.7386 14.9673 29.7712 14.902 29.7712 14.8693C29.7712 13.4641 28.3007 12.7451 27.0261 12.1242C26.1111 11.6667 25.1307 11.1765 24.8693 10.5882C24.6078 9.96732 24.9673 8.95425 25.3268 8.00654C25.817 6.66667 26.3072 5.29412 25.3922 4.37909C24.4771 3.46405 23.1699 3.79085 21.8627 4.08497C20.9477 4.28105 20 4.5098 19.3791 4.24837C18.7582 3.98693 18.2353 3.16993 17.7451 2.38562C17.0261 1.27451 16.2418 0 14.8693 0C13.4967 0 12.7124 1.27451 12.0261 2.4183C11.5359 3.23529 11.0458 4.05229 10.4248 4.31373C9.80392 4.57516 8.82353 4.34641 7.9085 4.11765C6.60131 3.79085 5.26144 3.46405 4.37909 4.34641C3.46405 5.26144 3.92157 6.63399 4.34641 7.97386C4.6732 8.95425 4.96732 9.93464 4.70588 10.5882C4.44444 11.2092 3.52941 11.6667 2.64706 12.1242C1.40523 12.7778 0 13.4967 0 14.8693C0 14.902 -3.16528e-08 14.9673 0.0326797 15C0.0326797 15.0327 0 15.098 0 15.1307C0 16.5033 1.40523 17.2549 2.64706 17.8758C3.52941 18.3333 4.44444 18.7908 4.70588 19.4118C4.96732 20.0327 4.64052 21.0458 4.34641 22.0261C3.92157 23.366 3.46405 24.7386 4.37909 25.6536C5.29412 26.5686 6.63399 26.2092 7.9085 25.8824C8.82353 25.6536 9.80392 25.4248 10.4248 25.6863C11.0458 25.9477 11.5359 26.7647 12.0261 27.5817C12.7124 28.7255 13.4967 30 14.8693 30C16.2418 30 17.0588 28.7255 17.7451 27.6144C18.2353 26.8301 18.7582 26.0131 19.3791 25.7516C20.0327 25.4902 20.9477 25.6863 21.8627 25.915C23.1373 26.2092 24.4771 26.5359 25.3922 25.6209C26.3072 24.7059 25.817 23.3333 25.3268 21.9935C24.9673 21.0131 24.6078 20.0327 24.8693 19.4118C25.1307 18.7908 26.0784 18.3333 27.0261 17.8758C28.3007 17.2222 29.7712 16.5033 29.7712 15.1307C29.7712 15.0654 29.7386 15.0327 29.7386 15ZM26.5686 16.9935C25.4902 17.549 24.3464 18.1046 23.9542 19.0523C23.5294 20.0327 23.9869 21.2092 24.3791 22.3529C24.7712 23.4314 25.1634 24.4771 24.6732 24.9346C24.1503 25.4575 23.1373 25.2288 22.0588 24.9673C20.9804 24.7059 19.902 24.4771 18.9542 24.8693C18.0392 25.2614 17.451 26.1765 16.8954 27.0915C16.2745 28.0719 15.6863 29.0196 14.8366 29.0196C14.0196 29.0196 13.4314 28.0719 12.8105 27.0588C12.2549 26.1111 11.6667 25.1634 10.7516 24.7712C9.80392 24.3791 8.69281 24.6405 7.61438 24.9346C6.53595 25.1961 5.52288 25.4575 5 24.9673C4.5098 24.4771 4.8366 23.4314 5.19608 22.3529C5.55556 21.2092 5.94771 20.0327 5.52288 19.085C5.13072 18.1373 4.05229 17.5817 3.00654 17.0588C1.9281 16.5033 0.915033 15.9804 0.915033 15.1634C0.915033 15.1307 0.915033 15.0654 0.882353 15.0327C0.882353 15 0.915033 14.9346 0.915033 14.902C0.915033 14.1176 1.9281 13.5948 3.00654 13.0065C4.05229 12.4837 5.13072 11.9281 5.52288 10.9804C5.91503 10 5.55556 8.82353 5.19608 7.71242C4.8366 6.60131 4.5098 5.55556 5 5.09804C5.52288 4.57516 6.53595 4.8366 7.61438 5.13072C8.69281 5.39216 9.80392 5.68628 10.7516 5.29412C11.6667 4.90196 12.2549 3.95425 12.8105 3.00654C13.4314 1.99346 13.9869 1.04575 14.8366 1.04575C15.6863 1.04575 16.2745 1.99346 16.8954 2.97386C17.4837 3.88889 18.0719 4.80392 18.9542 5.19608C19.902 5.58824 20.9804 5.3268 22.0588 5.09804C23.1373 4.8366 24.1503 4.60784 24.6732 5.13072C25.1634 5.58824 24.7712 6.63399 24.3791 7.71242C23.9542 8.85621 23.5294 10.0327 23.9542 11.0131C24.3464 11.9608 25.4902 12.5163 26.5686 13.0719C27.7124 13.6275 28.7582 14.183 28.7582 14.9673C28.7582 15 28.7582 15.0654 28.7908 15.098C28.7908 15.1307 28.7582 15.1961 28.7582 15.2288C28.7908 15.8824 27.7124 16.4379 26.5686 16.9935Z" fill="white"/>
</svg>
