<svg width="30" height="30" viewBox="0 0 30 30" fill="none" xmlns="http://www.w3.org/2000/svg">
<path d="M17.3999 13.2054L14.441 16.101L12.5998 14.2991C12.4933 14.205 12.354 14.1546 12.2106 14.1583C12.0672 14.162 11.9307 14.2196 11.8295 14.319C11.7282 14.4184 11.6699 14.5522 11.6666 14.6925C11.6634 14.8328 11.7154 14.969 11.8119 15.0729L14.0471 17.2603C14.1518 17.3621 14.2934 17.4193 14.441 17.4193C14.5887 17.4193 14.7303 17.3621 14.835 17.2603L18.1878 13.9792C18.2843 13.8754 18.3363 13.7392 18.333 13.5988C18.3298 13.4585 18.2715 13.3247 18.1702 13.2253C18.0689 13.1259 17.9325 13.0683 17.7891 13.0646C17.6457 13.0609 17.5064 13.1113 17.3999 13.2054Z" fill="white"/>
<path d="M26.343 17.678C25.816 17.6783 25.2956 17.7824 24.8186 17.9828C24.3417 18.1832 23.9198 18.475 23.583 18.8376L21.9874 18.0074C22.4895 17.0689 22.7502 16.0417 22.7502 15.0013C22.7502 13.9609 22.4895 12.9337 21.9874 11.9953L23.592 11.1705C24.1707 11.7964 24.9913 12.2049 25.8909 12.3148C26.7906 12.4248 27.7036 12.2282 28.4488 11.764C29.194 11.2999 29.7169 10.6021 29.9139 9.80913C30.1108 9.01615 29.9673 8.18592 29.5119 7.48316C29.0565 6.78039 28.3225 6.25644 27.4554 6.01526C26.5883 5.77408 25.6516 5.83329 24.831 6.18115C24.0104 6.529 23.366 7.14008 23.0256 7.89314C22.6852 8.64621 22.6736 9.48624 22.9933 10.2466L21.3917 11.0687C20.7342 10.2091 19.8695 9.4925 18.8613 8.97155C17.8531 8.45061 16.7272 8.13865 15.5663 8.05865V6.38223C16.4544 6.24793 17.2538 5.82006 17.8059 5.18342C18.358 4.54677 18.6226 3.7478 18.5473 2.94485C18.4719 2.1419 18.0622 1.39356 17.3992 0.848131C16.7362 0.302706 15.8683 0 14.9676 0C14.0669 0 13.1991 0.302706 12.5361 0.848131C11.8731 1.39356 11.4633 2.1419 11.388 2.94485C11.3126 3.7478 11.5773 4.54677 12.1294 5.18342C12.6815 5.82006 13.4808 6.24793 14.3689 6.38223V8.05865C13.2094 8.13912 12.0847 8.45104 11.0777 8.97148C10.0706 9.49191 9.20671 10.2076 8.5495 11.066L6.95096 10.2359C7.10506 9.87594 7.1842 9.49383 7.18446 9.10842C7.1852 8.35229 6.88788 7.62013 6.34479 7.04073C5.8017 6.46134 5.04762 6.07182 4.2152 5.94069C3.38278 5.80956 2.52533 5.94521 1.79367 6.3238C1.06201 6.70238 0.503011 7.29964 0.214992 8.01052C-0.0730272 8.72141 -0.0716163 9.50038 0.218977 10.2104C0.509569 10.9205 1.07073 11.5161 1.80376 11.8926C2.53678 12.269 3.39472 12.4022 4.22666 12.2687C5.05861 12.1351 5.81127 11.7434 6.35226 11.1624L7.9478 11.9926C7.44524 12.9314 7.18436 13.9591 7.18436 15C7.18436 16.0409 7.44524 17.0686 7.9478 18.0074L6.34926 18.8349C5.80754 18.2547 5.05451 17.8639 4.22256 17.7312C3.39062 17.5986 2.53303 17.7325 1.80059 18.1096C1.06814 18.4866 0.507735 19.0826 0.217897 19.7928C-0.0719407 20.5029 -0.0726507 21.2817 0.215892 21.9922C0.504434 22.7028 1.06376 23.2996 1.79551 23.6777C2.52727 24.0558 3.38461 24.191 4.21679 24.0596C5.04898 23.9282 5.80272 23.5385 6.3455 22.959C6.88828 22.3796 7.18534 21.6476 7.18446 20.8916C7.18274 20.5045 7.10367 20.1209 6.95096 19.7588L8.5495 18.934C9.20671 19.7924 10.0706 20.5081 11.0777 21.0285C12.0847 21.549 13.2094 21.8609 14.3689 21.9413V23.6178C13.4808 23.7521 12.6815 24.1799 12.1294 24.8166C11.5773 25.4532 11.3126 26.2522 11.388 27.0552C11.4633 27.8581 11.8731 28.6064 12.5361 29.1519C13.1991 29.6973 14.0669 30 14.9676 30C15.8683 30 16.7362 29.6973 17.3992 29.1519C18.0622 28.6064 18.4719 27.8581 18.5473 27.0552C18.6226 26.2522 18.358 25.4532 17.8059 24.8166C17.2538 24.1799 16.4544 23.7521 15.5663 23.6178V21.9413C16.7259 21.8609 17.8505 21.549 18.8576 21.0285C19.8646 20.5081 20.7285 19.7924 21.3857 18.934L22.9813 19.7668C22.7134 20.4082 22.6815 21.1094 22.8903 21.7682C23.0991 22.427 23.5376 23.0088 24.142 23.429C24.7464 23.8492 25.4849 24.0857 26.2501 24.104C27.0152 24.1224 27.7669 23.9216 28.3955 23.531C29.0242 23.1404 29.4969 22.5803 29.7449 21.9325C29.9928 21.2847 30.0029 20.583 29.7738 19.9296C29.5447 19.2763 29.0883 18.7055 28.4712 18.3005C27.854 17.8955 27.1084 17.6774 26.343 17.678ZM26.343 6.96603C26.8167 6.96603 27.2797 7.09168 27.6735 7.32709C28.0673 7.5625 28.3743 7.89709 28.5555 8.28856C28.7368 8.68004 28.7842 9.1108 28.6918 9.52638C28.5994 9.94197 28.3713 10.3237 28.0364 10.6233C27.7015 10.9229 27.2748 11.127 26.8102 11.2096C26.3457 11.2923 25.8641 11.2499 25.4265 11.0877C24.989 10.9256 24.6149 10.651 24.3518 10.2987C24.0886 9.94636 23.9482 9.53215 23.9482 9.10842C23.9482 8.54023 24.2005 7.9953 24.6496 7.59352C25.0987 7.19175 25.7079 6.96603 26.343 6.96603ZM3.59223 11.2508C3.11858 11.2508 2.65556 11.1252 2.26174 10.8898C1.86791 10.6543 1.56096 10.3197 1.3797 9.92828C1.19844 9.53681 1.15102 9.10605 1.24342 8.69046C1.33583 8.27488 1.56391 7.89314 1.89883 7.59352C2.23376 7.2939 2.66047 7.08986 3.12502 7.0072C3.58957 6.92453 4.07109 6.96696 4.50868 7.12911C4.94628 7.29126 5.3203 7.56586 5.58345 7.91817C5.84659 8.27049 5.98705 8.6847 5.98705 9.10842C5.98705 9.67662 5.73474 10.2215 5.28562 10.6233C4.8365 11.0251 4.22737 11.2508 3.59223 11.2508ZM3.59223 23.034C3.11858 23.034 2.65556 22.9083 2.26174 22.6729C1.86791 22.4375 1.56096 22.1029 1.3797 21.7114C1.19844 21.32 1.15102 20.8892 1.24342 20.4736C1.33583 20.058 1.56391 19.6763 1.89883 19.3767C2.23376 19.0771 2.66047 18.873 3.12502 18.7904C3.58957 18.7077 4.07109 18.7501 4.50868 18.9123C4.94628 19.0744 5.3203 19.349 5.58345 19.7013C5.84659 20.0536 5.98705 20.4679 5.98705 20.8916C5.98705 21.4598 5.73474 22.0047 5.28562 22.4065C4.8365 22.8083 4.22737 23.034 3.59223 23.034ZM12.5728 3.21684C12.5728 2.79312 12.7133 2.37891 12.9764 2.02659C13.2395 1.67428 13.6136 1.39968 14.0512 1.23753C14.4888 1.07538 14.9703 1.03295 15.4348 1.11562C15.8994 1.19828 16.3261 1.40233 16.661 1.70194C16.9959 2.00156 17.224 2.3833 17.3164 2.79888C17.4088 3.21447 17.3614 3.64523 17.1801 4.0367C16.9989 4.42817 16.6919 4.76277 16.2981 4.99818C15.9043 5.23359 15.4413 5.35924 14.9676 5.35924C14.3325 5.35924 13.7233 5.13352 13.2742 4.73174C12.8251 4.32997 12.5728 3.78504 12.5728 3.21684ZM17.3624 26.7832C17.3624 27.2069 17.222 27.6211 16.9588 27.9734C16.6957 28.3257 16.3217 28.6003 15.8841 28.7625C15.4465 28.9246 14.965 28.967 14.5004 28.8844C14.0359 28.8017 13.6091 28.5977 13.2742 28.2981C12.9393 27.9984 12.7112 27.6167 12.6188 27.2011C12.5264 26.7855 12.5738 26.3548 12.7551 25.9633C12.9364 25.5718 13.2433 25.2372 13.6371 25.0018C14.031 24.7664 14.494 24.6408 14.9676 24.6408C15.6028 24.6408 16.2119 24.8665 16.661 25.2683C17.1101 25.67 17.3624 26.215 17.3624 26.7832ZM14.9676 20.8916C13.6651 20.8916 12.3918 20.546 11.3088 19.8987C10.2257 19.2513 9.38164 18.3312 8.88318 17.2546C8.38472 16.1781 8.2543 14.9935 8.50841 13.8506C8.76252 12.7078 9.38975 11.658 10.3108 10.834C11.2318 10.0101 12.4053 9.44895 13.6828 9.22163C14.9603 8.9943 16.2845 9.11097 17.4879 9.55689C18.6913 10.0028 19.7198 10.7579 20.4435 11.7268C21.1671 12.6957 21.5534 13.8348 21.5534 15C21.5534 16.5625 20.8595 18.0611 19.6244 19.166C18.3894 20.2709 16.7143 20.8916 14.9676 20.8916ZM26.343 23.034C25.8694 23.034 25.4063 22.9083 25.0125 22.6729C24.6187 22.4375 24.3117 22.1029 24.1305 21.7114C23.9492 21.32 23.9018 20.8892 23.9942 20.4736C24.0866 20.058 24.3147 19.6763 24.6496 19.3767C24.9845 19.0771 25.4113 18.873 25.8758 18.7904C26.3404 18.7077 26.8219 18.7501 27.2595 18.9123C27.6971 19.0744 28.0711 19.349 28.3342 19.7013C28.5974 20.0536 28.7378 20.4679 28.7378 20.8916C28.7378 21.4598 28.4855 22.0047 28.0364 22.4065C27.5873 22.8083 26.9782 23.034 26.343 23.034Z" fill="white"/>
</svg>
