<svg width="30" height="30" viewBox="0 0 30 30" fill="none" xmlns="http://www.w3.org/2000/svg">
<path d="M24.5778 10.0014H22.3964V4.19355C22.3962 3.56345 22.1459 2.95917 21.7006 2.51345C21.2552 2.06773 20.6511 1.81703 20.021 1.81641H7.90495C7.27484 1.81703 6.67074 2.06773 6.22536 2.51345C5.77997 2.95917 5.52971 3.56345 5.52956 4.19355V8.08594L2.46686 9.7084C2.41865 9.73382 2.37849 9.77218 2.35089 9.81918C2.32329 9.86617 2.30935 9.91993 2.31063 9.97442C2.31191 10.0289 2.32836 10.0819 2.35813 10.1276C2.3879 10.1732 2.42982 10.2097 2.47917 10.2328L5.52956 11.6678V14.0379C5.53018 14.6677 5.78064 15.2715 6.22598 15.7169C6.67131 16.1622 7.27514 16.4127 7.90495 16.4133H8.10885V21.726C8.10978 22.5509 8.43788 23.3417 9.02117 23.925C9.60445 24.5083 10.3953 24.8364 11.2202 24.8373H20.0239L21.6798 28.0242C21.6811 28.0267 21.6827 28.029 21.6844 28.0312C21.6911 28.0437 21.6989 28.0555 21.7079 28.0664L21.7173 28.0781C21.7267 28.0892 21.7368 28.0996 21.7477 28.1092L21.7542 28.1145C21.7675 28.1253 21.7818 28.1349 21.7969 28.1432L21.8016 28.1461L21.8151 28.1525L21.8286 28.1584C21.8364 28.1617 21.8444 28.1644 21.8526 28.1666L21.8637 28.1701C21.8731 28.1729 21.8827 28.1748 21.8924 28.176H21.9012C21.9137 28.1769 21.9263 28.1769 21.9387 28.176C21.951 28.1769 21.9634 28.1769 21.9756 28.176H21.9844C21.9937 28.1748 22.0029 28.173 22.012 28.1707L22.0243 28.1666L22.0471 28.159L22.0612 28.1525C22.0653 28.1511 22.0692 28.1494 22.0729 28.1473L22.0776 28.1443C22.0932 28.1362 22.1079 28.1266 22.1215 28.1156L22.1256 28.1121C22.1374 28.1021 22.1484 28.0911 22.1585 28.0793L22.1673 28.0688C22.1766 28.0574 22.1851 28.0452 22.1924 28.0324L22.196 28.026L23.8805 24.8373H24.5772C25.4021 24.8364 26.1929 24.5083 26.7762 23.925C27.3595 23.3417 27.6876 22.5509 27.6885 21.726V13.1127C27.6876 12.2879 27.3596 11.4972 26.7764 10.9139C26.1933 10.3306 25.4026 10.0025 24.5778 10.0014ZM7.90495 15.8273C7.4305 15.8269 6.97561 15.6382 6.64013 15.3027C6.30464 14.9672 6.11596 14.5123 6.11549 14.0379V11.4844C6.11549 11.4779 6.11549 11.4715 6.11549 11.465C6.11607 11.4541 6.11607 11.4432 6.11549 11.4322C6.11549 11.4229 6.11081 11.4141 6.10846 11.4047C6.10612 11.3953 6.10319 11.3871 6.10026 11.3783C6.09733 11.3695 6.09206 11.3602 6.08737 11.3514C6.08268 11.3426 6.07917 11.3355 6.07448 11.3279C6.06979 11.3203 6.06334 11.3121 6.05749 11.3045C6.05163 11.2969 6.04635 11.2898 6.03991 11.2834L6.01823 11.2635L5.99713 11.2459C5.98798 11.2396 5.97838 11.2339 5.96842 11.2289C5.96315 11.2289 5.95846 11.2219 5.9526 11.2189L3.25963 9.95215L5.95963 8.52246L5.97135 8.51426C5.98014 8.50898 5.98893 8.50371 5.99772 8.49727L6.01881 8.47969C6.02585 8.47324 6.03229 8.4668 6.03874 8.45977L6.0569 8.4375C6.06766 8.42223 6.07726 8.40617 6.08561 8.38945C6.08978 8.38086 6.09349 8.37206 6.09674 8.36309C6.09674 8.3543 6.1026 8.34551 6.10495 8.33613C6.10729 8.32676 6.10905 8.31855 6.11081 8.30918C6.11138 8.29884 6.11138 8.28847 6.11081 8.27812C6.11113 8.27325 6.11113 8.26835 6.11081 8.26348V4.19355C6.11081 3.95808 6.15723 3.72492 6.24743 3.50741C6.33763 3.2899 6.46984 3.09231 6.63647 2.92594C6.80311 2.75957 7.00092 2.62769 7.21858 2.53785C7.43624 2.44801 7.66948 2.40196 7.90495 2.40234H20.021C20.4954 2.40281 20.9503 2.59149 21.2858 2.92698C21.6213 3.26246 21.8099 3.71735 21.8104 4.1918V9.99961H11.2202C10.3953 10.0005 9.60445 10.3286 9.02117 10.9119C8.43788 11.4952 8.10978 12.286 8.10885 13.1109V15.8256L7.90495 15.8273ZM27.1032 21.726C27.1026 22.3956 26.8363 23.0375 26.3628 23.511C25.8894 23.9845 25.2474 24.2507 24.5778 24.2514H23.7048C23.7001 24.251 23.6954 24.251 23.6907 24.2514C23.6799 24.2517 23.6691 24.2527 23.6585 24.2543L23.6321 24.2596L23.604 24.2684L23.5788 24.2789L23.553 24.293L23.5313 24.3076C23.5231 24.3136 23.5153 24.32 23.5079 24.327L23.4891 24.3457C23.4827 24.3527 23.4762 24.3604 23.4704 24.368C23.4645 24.3756 23.4592 24.3844 23.454 24.3932C23.4487 24.402 23.4481 24.4014 23.4458 24.4061L21.9399 27.2555L20.4622 24.4078C20.4622 24.4031 20.4563 24.3996 20.454 24.3949C20.4439 24.3781 20.4323 24.3622 20.4194 24.3475L20.3989 24.327C20.3921 24.3206 20.3848 24.3147 20.3772 24.3094L20.3538 24.293L20.3298 24.2801C20.3208 24.2757 20.3116 24.2718 20.3022 24.2684L20.277 24.2607C20.2676 24.258 20.258 24.2558 20.2483 24.2543L20.2184 24.2514C20.2132 24.2514 20.2079 24.2514 20.202 24.2514H11.2202C10.5506 24.2507 9.90861 23.9845 9.43515 23.511C8.96168 23.0375 8.69541 22.3956 8.69479 21.726V16.1859C8.6997 16.1644 8.70225 16.1424 8.70241 16.1203C8.70229 16.0982 8.69974 16.0762 8.69479 16.0547V13.1127C8.69541 12.4431 8.96168 11.8011 9.43515 11.3277C9.90861 10.8542 10.5506 10.5879 11.2202 10.5873H24.5796C25.2491 10.5879 25.8911 10.8542 26.3646 11.3277C26.8381 11.8011 27.1043 12.4431 27.1049 13.1127L27.1032 21.726Z" fill="white"/>
<path d="M8.0625 5.84277H19.7367C19.8144 5.84277 19.8889 5.81191 19.9439 5.75696C19.9988 5.70202 20.0297 5.6275 20.0297 5.5498C20.0297 5.4721 19.9988 5.39759 19.9439 5.34264C19.8889 5.2877 19.8144 5.25684 19.7367 5.25684H8.0625C7.9848 5.25684 7.91028 5.2877 7.85534 5.34264C7.8004 5.39759 7.76953 5.4721 7.76953 5.5498C7.76953 5.6275 7.8004 5.70202 7.85534 5.75696C7.91028 5.81191 7.9848 5.84277 8.0625 5.84277Z" fill="white"/>
<path d="M20.0297 8.26172C20.0297 8.18402 19.9988 8.1095 19.9439 8.05456C19.8889 7.99962 19.8144 7.96875 19.7367 7.96875H8.0625C7.9848 7.96875 7.91028 7.99962 7.85534 8.05456C7.8004 8.1095 7.76953 8.18402 7.76953 8.26172C7.76953 8.33942 7.8004 8.41394 7.85534 8.46888C7.91028 8.52382 7.9848 8.55469 8.0625 8.55469H19.7367C19.8144 8.55469 19.8889 8.52382 19.9439 8.46888C19.9988 8.41394 20.0297 8.33942 20.0297 8.26172Z" fill="white"/>
<path d="M24.1619 13.8506H11.6357C11.558 13.8506 11.4835 13.8815 11.4286 13.9364C11.3736 13.9913 11.3428 14.0659 11.3428 14.1436C11.3428 14.2213 11.3736 14.2958 11.4286 14.3507C11.4835 14.4057 11.558 14.4365 11.6357 14.4365H24.1619C24.2396 14.4365 24.3141 14.4057 24.3691 14.3507C24.424 14.2958 24.4549 14.2213 24.4549 14.1436C24.4549 14.0659 24.424 13.9913 24.3691 13.9364C24.3141 13.8815 24.2396 13.8506 24.1619 13.8506Z" fill="white"/>
<path d="M11.6357 17.3389H15.0219C15.0996 17.3389 15.1741 17.308 15.229 17.2531C15.284 17.1981 15.3148 17.1236 15.3148 17.0459C15.3148 16.9682 15.284 16.8937 15.229 16.8387C15.1741 16.7838 15.0996 16.7529 15.0219 16.7529H11.6357C11.558 16.7529 11.4835 16.7838 11.4286 16.8387C11.3736 16.8937 11.3428 16.9682 11.3428 17.0459C11.3428 17.1236 11.3736 17.1981 11.4286 17.2531C11.4835 17.308 11.558 17.3389 11.6357 17.3389Z" fill="white"/>
<path d="M20.2021 19.6562H11.6357C11.558 19.6562 11.4835 19.6871 11.4286 19.7421C11.3736 19.797 11.3428 19.8715 11.3428 19.9492C11.3428 20.0269 11.3736 20.1014 11.4286 20.1564C11.4835 20.2113 11.558 20.2422 11.6357 20.2422H20.2021C20.2798 20.2422 20.3544 20.2113 20.4093 20.1564C20.4642 20.1014 20.4951 20.0269 20.4951 19.9492C20.4951 19.8715 20.4642 19.797 20.4093 19.7421C20.3544 19.6871 20.2798 19.6562 20.2021 19.6562Z" fill="white"/>
<path d="M24.1618 16.7529H17.6655C17.5878 16.7529 17.5133 16.7838 17.4584 16.8387C17.4034 16.8937 17.3726 16.9682 17.3726 17.0459C17.3726 17.1236 17.4034 17.1981 17.4584 17.2531C17.5133 17.308 17.5878 17.3389 17.6655 17.3389H24.1618C24.2395 17.3389 24.314 17.308 24.369 17.2531C24.4239 17.1981 24.4548 17.1236 24.4548 17.0459C24.4548 16.9682 24.4239 16.8937 24.369 16.8387C24.314 16.7838 24.2395 16.7529 24.1618 16.7529Z" fill="white"/>
</svg>
