<svg width="26" height="30" viewBox="0 0 26 30" fill="none" xmlns="http://www.w3.org/2000/svg">
<path d="M24.6123 21.8142L22.0454 19.0265C21.7937 18.7168 21.6427 18.3628 21.6427 17.9646V12.2124C21.6427 8.62832 18.9248 5.44248 14.9989 4.46903V2.21239C14.9989 0.973451 13.8413 0 12.4823 0C11.1233 0 9.96571 1.0177 9.96571 2.21239V4.42478C5.98949 5.44248 3.27157 8.62832 3.3219 12.2124V17.9646C3.3219 18.3628 3.17091 18.7168 2.91925 19.0265L0.352323 21.8142C0.150995 22.0354 0 22.3451 0 22.6549V26.1504H25.0653V22.6549C24.9646 22.3451 24.8136 22.0354 24.6123 21.8142ZM11.4253 2.21239C11.4253 1.72566 11.8783 1.32743 12.432 1.32743C12.9856 1.32743 13.4386 1.72566 13.4386 2.21239V4.20354C12.734 4.11504 12.0796 4.11504 11.375 4.20354V2.21239H11.4253ZM23.4546 24.7788H1.40929V22.6549L3.97622 19.8673C4.47954 19.3363 4.73119 18.6726 4.73119 17.9646V12.2124C4.73119 8.49557 8.15376 5.44248 12.432 5.44248C16.7102 5.44248 20.1327 8.45133 20.1327 12.2124V17.9646C20.1327 18.6726 20.3844 19.3363 20.8877 19.8673L23.4546 22.6549V24.7788Z" fill="white"/>
<path d="M11.4233 6.94727V8.2747C14.4936 8.2747 17.0102 10.4871 17.0102 13.1862H18.5201C18.5201 9.73488 15.3492 6.94727 11.4233 6.94727Z" fill="white"/>
<path d="M12.4319 28.673C10.9723 28.673 9.81464 27.6553 9.81464 26.3721H8.30469C8.30469 28.3632 10.167 30.0004 12.4319 30.0004C14.6968 30.0004 16.5591 28.3632 16.5591 26.3721H15.0492C15.0492 27.6553 13.8915 28.673 12.4319 28.673Z" fill="white"/>
</svg>
