<svg width="57" height="58" viewBox="0 0 57 58" fill="none" xmlns="http://www.w3.org/2000/svg">
<g clip-path="url(#clip0_2539_37210)">
<path d="M42.6571 58C41.8095 57.9124 40.959 57.8377 40.1305 57.6237C35.4536 56.4142 32.2292 53.5705 30.4511 49.1166C30.3204 48.7893 30.1822 48.7356 29.8606 48.8001C23.8838 50.0084 18.2108 49.1452 12.8737 46.2356C9.03963 44.1452 5.9876 41.214 3.68335 37.5173C1.75813 34.4292 0.5759 31.0796 0.166773 27.478C-0.427761 22.2519 0.56769 17.3219 3.14697 12.7247C5.28838 8.90782 8.25627 5.86927 12.0116 3.58867C15.0096 1.76785 18.2614 0.659461 21.7383 0.198993C22.4813 0.100515 23.2325 0.0645199 23.9796 0C24.5495 0 25.1201 0 25.69 0C26.4487 0.0651991 27.2116 0.103232 27.9662 0.20171C31.4479 0.655386 34.6956 1.77667 37.6936 3.60021C41.5002 5.91546 44.4832 9.01445 46.6389 12.8931C48.4116 16.0824 49.4098 19.5047 49.639 23.1355C49.8127 25.899 49.5206 28.6237 48.755 31.2928C48.5826 31.8946 48.5471 31.8104 49.0985 32.0691C54.9604 34.8156 58.1602 41.2099 56.6133 47.4425C55.2785 52.8214 51.7845 56.2057 46.3851 57.6346C45.5675 57.8513 44.7267 57.9104 43.89 58H42.6585H42.6571ZM23.6793 3.47185H23.6779C23.6779 3.23415 23.6663 2.99576 23.6813 2.75874C23.6964 2.51356 23.6279 2.42323 23.3543 2.43953C22.1577 2.51356 20.9761 2.68539 19.8083 2.94958C18.1355 3.32855 16.5291 3.89497 14.9843 4.63796C14.7188 4.76564 14.6867 4.88586 14.8392 5.12288C15.0595 5.46586 15.26 5.82241 15.4584 6.17897C15.8019 6.79564 15.6117 7.49518 15.0199 7.82253C14.4431 8.14173 13.7644 7.94274 13.4025 7.34237C13.2212 7.0415 13.0467 6.73588 12.8716 6.43162C12.6082 5.97454 12.6075 5.97115 12.1573 6.27881C11.5279 6.70939 10.9197 7.16714 10.3375 7.65817C8.74681 9.00087 7.37233 10.5337 6.19626 12.2459C6.04301 12.4693 6.09911 12.5739 6.31668 12.6894C6.6786 12.8809 7.03094 13.0908 7.38191 13.3013C8.00586 13.6762 8.20495 14.3547 7.86835 14.9306C7.53174 15.5058 6.84348 15.6763 6.20105 15.3326C5.83982 15.1391 5.47927 14.9421 5.13582 14.7207C4.90731 14.5733 4.80126 14.5992 4.68017 14.8518C4.1 16.0593 3.61151 17.2995 3.24275 18.5872C2.83294 20.0168 2.5928 21.4756 2.4587 22.9535C2.4115 23.4757 2.42518 23.4798 2.95951 23.4805C3.3358 23.4805 3.71277 23.4662 4.08769 23.4873C4.75337 23.5246 5.26376 24.0612 5.24939 24.6806C5.23434 25.3353 4.71232 25.8243 4.01722 25.8304C3.6293 25.8338 3.24001 25.8528 2.85483 25.8249C2.50591 25.7998 2.42108 25.9431 2.45049 26.2569C2.55175 27.3496 2.68927 28.4356 2.93146 29.508C3.3139 31.2039 3.88175 32.8359 4.6487 34.3979C4.83479 34.7769 4.83616 34.7749 5.21586 34.5575C5.55179 34.3653 5.88429 34.1677 6.22568 33.9864C6.85442 33.6522 7.529 33.8213 7.85945 34.3864C8.20016 34.9691 8.0086 35.6503 7.39149 36.0232C7.0412 36.2351 6.68817 36.4442 6.32557 36.6344C6.08885 36.758 6.05191 36.8735 6.21063 37.1023C6.76754 37.9051 7.3607 38.6787 8.0127 39.4067C9.29892 40.8431 10.7391 42.105 12.3448 43.1815C12.548 43.318 12.6568 43.2888 12.7697 43.0796C12.9687 42.7108 13.1822 42.3495 13.4005 41.9916C13.7802 41.3681 14.4431 41.1827 15.0438 41.5237C15.6212 41.8503 15.7936 42.5492 15.444 43.176C15.2566 43.5122 15.0739 43.8545 14.8563 44.171C14.6586 44.4583 14.74 44.5853 15.0342 44.7211C16.1624 45.2427 17.3138 45.6957 18.5077 46.0468C20.0655 46.5039 21.6582 46.7552 23.2715 46.9053C23.5862 46.9345 23.7011 46.836 23.6827 46.5155C23.658 46.0985 23.6799 45.6781 23.6772 45.2597C23.6758 45.0736 23.7169 44.9018 23.8058 44.7388C24.0439 44.3021 24.568 44.0474 25.0442 44.1404C25.6072 44.2498 25.991 44.679 26.0287 45.2882C26.0547 45.7052 26.0492 46.1256 26.0348 46.544C26.0252 46.819 26.1135 46.9331 26.4056 46.9114C27.3942 46.836 28.3733 46.7002 29.3475 46.5168C29.6663 46.4571 29.7416 46.3171 29.6937 46.0339C29.4871 44.8053 29.5247 43.5734 29.7211 42.3515C30.2622 38.9904 31.8166 36.1617 34.4575 33.9898C37.8242 31.2222 41.6884 30.2374 45.9979 31.0667C46.2339 31.1122 46.3591 31.0918 46.4344 30.8181C46.8408 29.3416 47.1302 27.8475 47.2232 26.3173C47.2519 25.8501 47.3724 25.8283 46.747 25.8324C46.3933 25.8344 46.0403 25.8344 45.6866 25.8324C44.9901 25.8277 44.4592 25.3441 44.4407 24.6996C44.4223 24.0496 44.919 23.526 45.6182 23.4893C46.0506 23.4669 46.4843 23.4744 46.9174 23.4846C47.1575 23.49 47.2362 23.3976 47.2266 23.162C47.1986 22.4944 47.1117 21.8329 47.0077 21.1748C46.6581 18.958 45.9856 16.8417 44.9881 14.8267C44.8772 14.6032 44.778 14.5863 44.5769 14.7099C44.1992 14.9415 43.814 15.1635 43.42 15.3666C42.8131 15.6797 42.1372 15.4875 41.8177 14.9306C41.4893 14.3587 41.6801 13.6809 42.2808 13.3189C42.6414 13.1016 43.0047 12.8877 43.3782 12.6948C43.5985 12.5807 43.6492 12.4849 43.4959 12.2601C41.8327 9.82197 39.7693 7.7845 37.3173 6.13007C37.1195 5.99696 37.0306 6.04178 36.9266 6.23398C36.7159 6.62246 36.4942 7.0055 36.2575 7.37836C35.8826 7.96855 35.1978 8.14105 34.6258 7.80419C34.0764 7.48091 33.8985 6.80244 34.2194 6.20206C34.4062 5.8523 34.5984 5.50321 34.8194 5.17518C35.0062 4.89808 34.959 4.76564 34.6538 4.61963C32.0479 3.3693 29.3071 2.63852 26.4179 2.447C26.108 2.42663 26.0252 2.50541 26.03 2.80763C26.0382 3.30342 26.0909 3.80464 25.9869 4.29703C25.8604 4.894 25.3274 5.2526 24.6843 5.18876C24.1322 5.13375 23.6943 4.65494 23.6786 4.08445C23.6731 3.8807 23.6779 3.67696 23.6779 3.47321L23.6793 3.47185ZM43.2838 55.6277C49.5596 55.625 54.5984 50.6074 54.6121 44.3788C54.6258 38.1611 49.4563 33.1286 43.2736 33.1293C37.1914 33.1293 31.9213 38.0627 31.937 44.4576C31.9521 50.5999 37.0504 55.6304 43.2845 55.6277H43.2838Z" fill="#F60656"/>
<path d="M26.0391 18.3485C26.0391 20.352 26.0302 22.3548 26.0453 24.3583C26.0494 24.9051 25.8688 25.3309 25.4768 25.7167C22.7244 28.4265 19.9843 31.1479 17.2402 33.8652C16.7722 34.3284 16.3077 34.7956 15.837 35.2561C15.3102 35.7709 14.6192 35.794 14.132 35.3193C13.6326 34.8323 13.6415 34.1321 14.1724 33.5969C14.94 32.8227 15.7186 32.0586 16.4924 31.2905C18.7816 29.018 21.068 26.7415 23.3654 24.4772C23.596 24.2497 23.6843 24.0215 23.6836 23.7023C23.674 19.8087 23.6795 15.9157 23.6754 12.0221C23.6754 11.4999 23.9011 11.1236 24.3698 10.9144C24.8282 10.71 25.2647 10.7976 25.6423 11.1236C25.9824 11.4177 26.0391 11.8191 26.0391 12.2374C26.0391 14.2749 26.0391 16.3117 26.0391 18.3492V18.3485Z" fill="#F60656"/>
<path d="M44.4759 40.3516C43.4613 40.3516 42.446 40.3333 41.4321 40.3577C40.7431 40.3747 40.2047 40.9112 40.1356 41.5768C40.0589 42.3103 40.4517 42.9338 41.118 43.1362C41.3281 43.2 41.5463 43.1959 41.7625 43.1966C42.7545 43.198 43.7466 43.1973 44.7386 43.1973C46.2369 43.1973 47.4492 43.7481 48.2579 45.0351C49.7487 47.4067 48.1211 50.5614 45.3126 50.7617C44.7562 50.8016 44.4715 51.1049 44.4588 51.6718C44.4437 52.3442 43.9546 52.8488 43.3067 52.8617C42.6594 52.8746 42.1415 52.3951 42.0923 51.7282C42.0779 51.5366 42.0738 51.3424 42.0895 51.1516C42.1121 50.8799 41.9931 50.7964 41.7317 50.7998C40.8539 50.8093 39.9755 50.8127 39.0977 50.7998C38.3068 50.7875 37.8293 50.395 37.7492 49.7281C37.6788 49.1392 38.1084 48.564 38.7002 48.4723C38.913 48.4397 39.1312 48.4309 39.3474 48.4302C41.1947 48.4268 43.0419 48.4315 44.8891 48.4261C45.6595 48.4241 46.1938 48.056 46.3833 47.4223C46.6556 46.5129 46.0282 45.6083 45.0711 45.5845C43.9997 45.5574 42.9276 45.5777 41.8562 45.5736C41.5032 45.5723 41.1495 45.5526 40.8033 45.4786C38.9923 45.0935 37.6897 43.5043 37.7335 41.7378C37.7793 39.8877 39.0683 38.378 40.9032 38.0432C41.2042 37.9881 41.5148 37.9841 41.822 37.9705C42.0061 37.9623 42.093 37.889 42.0882 37.7015C42.0827 37.4869 42.0793 37.271 42.093 37.0563C42.1367 36.3779 42.6745 35.8814 43.3292 35.9072C43.9764 35.9323 44.4492 36.439 44.4608 37.1202C44.4704 37.6861 44.7632 37.9691 45.3393 37.9691C46.0009 37.9691 46.6618 37.963 47.3233 37.9725C47.5498 37.9759 47.7831 37.9888 48 38.0472C48.4837 38.177 48.8367 38.6816 48.8244 39.1767C48.8114 39.6955 48.4324 40.1777 47.9288 40.2884C47.7414 40.3299 47.5443 40.3414 47.3521 40.3421C46.3943 40.3475 45.4364 40.3441 44.4786 40.3441C44.4786 40.3469 44.4786 40.3503 44.4786 40.353L44.4759 40.3516Z" fill="#F60656"/>
</g>
<defs>
<clipPath id="clip0_2539_37210">
<rect width="57" height="58" rx="8" fill="white"/>
</clipPath>
</defs>
</svg>
