<svg width="58" height="63" viewBox="0 0 58 63" fill="none" xmlns="http://www.w3.org/2000/svg">
<path d="M57.9908 24.1427V62.4616H40.9448V28.6913C40.9448 26.6238 40.3813 24.694 39.3952 22.9021C38.409 21.2481 37.0003 19.8697 35.1689 18.767C33.4784 17.8021 31.5061 17.2508 29.393 17.2508C27.2798 17.2508 25.3076 17.8021 23.4762 18.767C21.6448 19.7319 20.3769 21.1102 19.2499 22.9021C18.2638 24.5562 17.7003 26.4859 17.7003 28.6913V62.4616H0.654297V2.22646H17.7003V6.63727C19.8134 4.70754 22.2083 3.19133 24.8849 2.08863C27.7025 0.985923 30.52 0.43457 33.6192 0.43457C38.1273 0.43457 42.2127 1.53727 45.7346 3.60484C49.3974 5.67241 52.2149 8.567 54.4689 12.1508C56.8638 15.7346 57.9908 19.7319 57.9908 24.1427Z" fill="white"/>
</svg>
