<svg width="63" height="64" viewBox="0 0 63 64" fill="none" xmlns="http://www.w3.org/2000/svg">
<path d="M31.2459 63.9778C25.6108 63.9778 20.3984 62.5994 15.7495 59.7048C11.1006 56.8102 7.43784 52.9508 4.62032 48.1265C1.8028 43.3021 0.394043 37.9265 0.394043 32.1373C0.394043 27.7265 1.23927 23.5913 2.78891 19.8697C4.33854 16.0102 6.59258 12.7021 9.4101 9.80754C12.2276 6.91295 15.4678 4.5697 19.2714 2.91565C23.0751 1.2616 27.0196 0.43457 31.2459 0.43457C36.1765 0.43457 40.5437 1.39944 44.6291 3.467C48.7145 5.53457 52.0955 8.29133 54.913 11.8751C57.7305 15.4589 59.7028 19.4562 60.9707 23.867C62.2386 28.2778 62.3795 32.9643 61.5342 37.7886H18.8488C19.4123 39.5805 20.2575 41.0967 21.3846 42.6129C22.5116 43.9913 23.9203 45.2319 25.6108 46.0589C27.3013 46.8859 29.1327 47.2994 31.3868 47.4373C33.4999 47.4373 35.4721 47.0238 37.3035 46.0589C39.1349 45.094 40.6846 43.7156 41.9524 42.0616L59.2802 45.921C56.7444 51.2967 53.0816 55.5697 48.0101 59.0156C42.9386 62.3237 37.4444 63.9778 31.2459 63.9778ZM18.1444 25.5211H44.3473C43.7838 23.4535 42.9386 21.6616 41.6707 20.1454C40.4028 18.4913 38.8532 17.2508 37.0218 16.2859C35.1904 15.3211 33.359 14.9075 31.2459 14.9075C29.1327 14.9075 27.3013 15.3211 25.4699 16.2859C23.6386 17.2508 22.2298 18.4913 20.9619 20.0075C19.6941 21.6616 18.7079 23.4535 18.1444 25.5211Z" fill="white"/>
</svg>
