<svg width="49" height="64" viewBox="0 0 49 64" fill="none" xmlns="http://www.w3.org/2000/svg">
<path d="M23.1603 63.5643C20.061 63.2886 16.9617 62.7373 14.0033 61.6346C11.0449 60.5319 8.50916 59.1535 6.25515 57.3616C4.00113 55.5697 2.16974 53.3643 0.901855 50.7454L15.1303 44.6805C15.5529 45.3697 16.2573 46.0589 17.1026 46.7481C17.9478 47.4373 19.0749 48.1265 20.3427 48.6778C21.6106 49.2292 23.1603 49.5048 24.8508 49.5048C26.1186 49.5048 27.3865 49.367 28.5135 49.0913C29.6405 48.8157 30.6267 48.2643 31.4719 47.5751C32.1763 46.8859 32.5989 45.9211 32.5989 44.8184C32.5989 43.5778 32.1763 42.613 31.1902 41.9238C30.204 41.2346 29.077 40.6832 27.8091 40.4075C26.5413 40.1319 25.1325 39.7183 24.0055 39.5805C20.2018 38.8913 16.68 37.7886 13.2989 36.1346C9.91792 34.4805 7.24127 32.2751 5.12813 29.6562C3.01499 27.0373 2.02887 23.867 2.02887 20.1454C2.02887 16.1481 3.15586 12.5643 5.269 9.66971C7.38213 6.77511 10.3405 4.43187 13.7216 2.77781C17.2435 1.12376 21.0471 0.43457 24.9916 0.43457C29.7814 0.43457 34.2894 1.39943 38.3748 3.32916C42.4602 5.25889 45.8413 8.01565 48.2362 11.5994L34.8529 19.3184C34.2894 18.4913 33.5851 17.8021 32.7398 17.1129C31.8945 16.4238 30.9084 15.8724 29.7814 15.3211C28.6544 14.7697 27.5274 14.494 26.2595 14.494C24.7099 14.3562 23.1602 14.494 21.8924 14.7697C20.6245 15.0454 19.4975 15.5967 18.7931 16.4238C18.0887 17.2508 17.6661 18.3535 17.6661 19.7319C17.6661 21.1102 18.2296 22.0751 19.4975 22.6265C20.6245 23.3156 22.0332 23.7292 23.5829 24.0048C25.1325 24.2805 26.5413 24.694 27.6683 25.1075C31.1902 26.2102 34.5712 27.7265 37.6705 29.3805C40.7697 31.1724 43.3055 33.24 45.2778 35.8589C47.25 38.34 48.0953 41.3724 47.9544 44.8184C47.9544 48.8157 46.6865 52.2616 44.2916 55.294C41.8968 58.3265 38.7975 60.5319 34.8529 62.0481C31.4719 63.2886 27.3865 63.84 23.1603 63.5643Z" fill="white"/>
</svg>
