<svg width="41" height="39" viewBox="0 0 41 39" fill="none" xmlns="http://www.w3.org/2000/svg">
<path d="M0.0566406 0.679502C5.26905 -0.00968492 10.7632 0.403826 15.8347 1.92004C18.3705 2.74707 20.9063 3.84977 23.3011 5.09031C25.696 6.46869 27.8092 8.12274 29.7814 9.91464C31.7537 11.8444 33.4442 13.912 34.853 16.1174C36.2617 18.4606 37.5296 20.8039 38.234 23.285C39.9245 28.2471 40.488 33.6228 39.7836 38.7228C39.2201 33.6228 38.0931 28.6606 36.1209 23.9741C35.1347 21.6309 34.0077 19.4255 32.4581 17.4958C31.0493 15.4282 29.4997 13.4985 27.6683 11.8444C25.8369 10.0525 23.8646 8.53626 21.7515 7.15788C19.6384 5.7795 17.3844 4.6768 14.9895 3.71193C10.3406 2.19572 5.26905 1.23085 0.0566406 0.679502Z" fill="white"/>
</svg>
