<svg width="67" height="65" viewBox="0 0 67 65" fill="none" xmlns="http://www.w3.org/2000/svg">
<path d="M66.1739 2.22534V62.4603H49.1279L48.2826 56.2576C46.733 58.6009 44.6198 60.5306 42.0841 61.909C39.5483 63.2874 36.5899 64.1145 33.2089 64.1145C28.56 64.1145 24.3334 63.2875 20.3889 61.6333C16.4444 59.9793 12.9225 57.6362 9.82321 54.6037C6.72394 51.5713 4.46992 48.1253 2.77941 44.2659C1.0889 40.4064 0.243652 36.1333 0.243652 31.5847C0.243652 27.3117 1.0889 23.3145 2.63854 19.5928C4.18817 15.8712 6.44219 12.563 9.40059 9.66845C12.359 6.77385 15.74 4.56859 19.4028 2.91453C23.2064 1.26048 27.2918 0.571289 31.6593 0.571289C35.4629 0.571289 38.8439 1.39832 41.8023 2.91453C44.7607 4.43075 47.4374 6.49832 49.6914 8.84156L66.1739 2.22534ZM32.9271 47.9874C35.7447 47.9874 38.2804 47.2982 40.5344 45.9198C42.7885 44.5414 44.6199 42.6118 45.8877 40.2684C47.1556 37.9252 47.86 35.1686 47.86 32.4118C47.86 29.5172 47.1556 26.7605 45.8877 24.4171C44.6199 22.0739 42.7885 20.1443 40.5344 18.7659C38.2804 17.3875 35.7447 16.6983 32.9271 16.6983C30.1096 16.6983 27.5736 17.3875 25.1787 18.7659C22.9247 20.1443 21.0933 22.0739 19.6845 24.4171C18.2758 26.7605 17.7123 29.3793 17.7123 32.2738C17.7123 35.1684 18.4166 37.7875 19.8254 40.1307C21.2342 42.474 23.0655 44.4036 25.3196 45.782C27.5736 47.2982 30.1096 47.9874 32.9271 47.9874Z" fill="white"/>
</svg>
