<svg width="58" height="63" viewBox="0 0 58 63" fill="none" xmlns="http://www.w3.org/2000/svg">
<path d="M57.731 24.1427V62.4616H40.685V28.6913C40.685 26.6238 40.1215 24.694 39.1354 22.9021C38.1493 21.2481 36.7405 19.8697 34.9091 18.767C33.2186 17.8021 31.2463 17.2508 29.1332 17.2508C27.0201 17.2508 25.0478 17.8021 23.2164 18.767C21.3851 19.7319 20.1172 21.1102 18.9902 22.9021C18.004 24.5562 17.4405 26.4859 17.4405 28.6913V62.4616H0.394531V2.22646H17.4405V6.63727C19.5537 4.70754 21.9486 3.19133 24.6252 2.08863C27.4427 0.985923 30.2602 0.43457 33.3595 0.43457C37.8675 0.43457 41.9529 1.53727 45.4748 3.60484C49.1376 5.67241 51.9551 8.567 54.2091 12.1508C56.604 15.7346 57.731 19.7319 57.731 24.1427Z" fill="white"/>
</svg>
