<svg width="66" height="93" viewBox="0 0 66 93" fill="none" xmlns="http://www.w3.org/2000/svg">
<path d="M48.5805 2.22534H65.6265V63.2874C65.6265 67.6982 64.6404 71.8335 62.809 75.4171C60.9776 79.0013 58.4418 82.0337 55.2017 84.6526C51.9615 87.2716 48.2988 89.2013 44.2134 90.5797C40.128 91.9581 35.7608 92.6472 31.1119 92.6472C26.7447 92.6472 22.6593 91.8202 18.5739 90.1662C14.6294 88.5121 11.1075 86.1689 8.00819 83.2743C4.90892 80.3797 2.51403 76.9335 0.82352 73.2118L16.3199 66.3199C17.1652 68.3875 18.2922 70.0414 19.8418 71.5576C21.3915 72.936 23.082 74.1766 25.0542 74.8657C27.0265 75.6928 28.9988 76.1063 31.1119 76.1063C33.3659 76.1063 35.4791 75.8307 37.5922 75.2794C39.7053 74.7279 41.5367 74.0387 43.2272 72.936C44.9177 71.8333 46.1856 70.5928 47.1718 69.0767C48.1579 67.5605 48.5805 65.6308 48.5805 63.5632V56.5335C46.7491 58.8767 44.3542 60.6686 41.6776 62.047C39.001 63.4253 35.9017 64.2524 32.3798 64.2524C28.0126 64.2524 23.7864 63.4252 19.8418 61.7711C15.8973 60.1171 12.5162 57.9117 9.55783 54.8793C6.59943 51.9847 4.34542 48.5389 2.65491 44.8172C0.964396 40.8199 0.119141 36.6847 0.119141 32.2738C0.119141 27.863 0.964396 23.7279 2.65491 20.0063C4.34542 16.1468 6.59943 12.8387 9.55783 9.94412C12.5162 7.04953 15.8973 4.70629 19.8418 3.05223C23.7864 1.39818 27.8718 0.571289 32.3798 0.571289C35.9017 0.571289 39.001 1.26034 41.6776 2.77656C44.3542 4.15493 46.6083 6.08466 48.5805 8.29007V2.22534ZM32.5207 47.9874C35.3382 47.9874 37.8739 47.2982 40.128 45.782C42.382 44.4036 44.2134 42.474 45.4812 40.1307C46.7491 37.7875 47.4535 35.1684 47.4535 32.2738C47.4535 29.3793 46.7491 26.7605 45.4812 24.4171C44.2134 22.0739 42.382 20.1443 40.128 18.7659C37.8739 17.3875 35.3382 16.6983 32.5207 16.6983C29.7031 16.6983 27.3083 17.3875 24.9134 18.7659C22.6593 20.1443 20.828 22.0739 19.4192 24.4171C18.0104 26.7605 17.4469 29.3793 17.4469 32.2738C17.4469 35.1684 18.1513 37.7875 19.4192 40.1307C20.828 42.474 22.6593 44.4036 24.9134 45.782C27.3083 47.2982 29.844 47.9874 32.5207 47.9874Z" fill="white"/>
</svg>
